<svg version="1" xmlns="http://www.w3.org/2000/svg" width="800" height="800" viewBox="0 0 600.000000 600.000000"><path d="M0 300v300h600V0H0v300zM190.4 89.1c2.1.6 5.6 2.7 7.8 4.8 5.4 5 6.9 10.9 5.7 22.2-.9 8.2-2 12.9-9.3 39.1-4.5 16.3-5.3 23.2-3.3 28 .8 2 2.4 3.9 3.6 4.3 3.3 1 7.9-2.1 11-7.6 2.6-4.6 2.9-4.8 3.5-2.7 1.4 4.6 1.9 21.4.8 26.4-2.2 10-5.2 16.3-10.8 22.3-7.8 8.4-13.1 10.6-25.9 10.6-8.4-.1-10.8-.5-14.7-2.4-6.7-3.3-12.2-9-16.1-16.7l-3.4-6.7-.6 4.1c-1.3 7.9-11.4 17.8-20.9 20.7-9.7 2.8-23 1.2-30.3-3.8-13.1-8.9-19-20.2-18.9-36.2 0-29.3 18.1-51.7 41.6-51.6 8.1 0 13.4 1.3 18 4.5l3.5 2.4.7-9.6c2.2-31.5 14.2-49.3 35.6-53.1 6.2-1.1 16.6-.6 22.4 1zm84.2 140.8c2.8 1.2 6.7 3.9 8.7 5.9 10 10.3 9.6 22.9-2.3 65.3-7.6 26.8-9.4 36.4-7.9 42.7 1.3 6 3.4 8.2 7.5 8.2 4.2 0 8.2-3.4 11.8-10l2.9-5.3-.2-22.1c-.2-23.7 1-35.4 4.9-48.1 8.4-27.3 26.9-40.6 54.5-39.2 11.8.5 18.3 2.9 23.8 8.5 10 10.3 9.6 22.9-2.3 65.3-7.6 26.8-9.4 36.4-7.9 42.7 1.3 5.9 3.4 8.2 7.4 8.2 5.8 0 11.2-6.1 14.1-16.2 2.3-7.9 6.9-15.6 13.3-22.1 11.2-11.6 24.9-16.7 45-16.7 6.6 0 14.3.7 17.8 1.5 32.4 7.6 49 37.9 40.7 74.3-5.7 25.3-28.5 41.2-59.1 41.2-18.5-.1-33.1-5.6-44.4-16.9-3.7-3.8-7.6-8.8-9-11.8-2.4-5.2-3.9-6.7-3.9-3.8 0 3.2-6.4 14-11.2 19.1-6.2 6.6-11.8 9.9-20 12-8.4 2.2-21.1 1.4-29.3-1.7-12.3-4.6-22.4-18.9-27.8-39.2-2.2-8.6-3.7-10.3-3.7-4.3 0 4.9-3 15.7-6.2 22-3.5 7-11.3 15.5-17.4 19.1-10.4 6.1-27.5 7.1-39.9 2.4-11.9-4.5-21.5-17.5-27-36.6-2.9-9.9-3.5-11-3.5-6.4 0 9.8-6 23.8-13.8 32.2-8.9 9.6-18.8 13.9-32.2 13.9-25.8 0-42.8-13.8-47.6-38.5-1.8-9.8-2.1-27.9-.4-36 2.3-11.1 8.4-20.5 16.4-25 1.6-.9 1.4-1.4-2.3-5.2-5.8-6.2-8.2-12.2-8.8-22.4-1.3-21.2 8.8-34.1 29.3-37.1 15.1-2.2 30.2 3.2 36.7 13.2 4.6 6.8 6 13.1 5.5 23.4-.4 8.1-.9 10.1-3.8 15.5-3.1 5.7-6.6 9.7-10.8 12-1.5.8-1.4 1.2.9 3 4.7 3.6 5.9 7.8 5.9 19.9 0 9.5.3 11.3 2.1 13.6 4.4 5.6 12.7 1.8 17.4-8 1.7-3.5 1.8-6.3 1.6-26.9-.2-24.7.9-36 4.9-49 6.4-20.5 18.8-33.5 36.6-38 8.8-2.2 26.3-1.5 33 1.4zM496.5 436c11.8 5.1 17.5 15.9 17.5 33.8 0 4.3.5 5.8 2.4 7.7 1.6 1.6 3.1 2.3 4.3 1.8 3-1 7-5.2 8.9-9.4 1.5-3.4 1.9-3.7 2.7-2.3 1.5 2.7 2.1 22.3.8 28.5-2.7 13-10.7 24-21 28.8-5 2.3-6.8 2.6-17.1 2.6s-12.1-.3-17-2.6c-11.3-5.4-15.1-11.9-15.3-26.8-.2-10.6-1.4-13.4-5.1-12.9-1.2.2-2.9 1.8-3.9 3.8-1.6 3-1.7 5-1.2 14 .8 13.2-.3 18.5-4.6 22.4-3.1 2.8-3.5 2.8-11.3 2.4-10.6-.7-17.1-3.5-23.1-10-9.4-10-14-25.1-14-46.3 0-17.6 1.5-22.6 8.9-30 5.6-5.6 10.3-7.5 18.3-7.5 11.9 0 20.6 5.6 21.9 14.1l.7 4 5.5-5.5c12-12 28.6-16.3 41.7-10.6z"/><path d="M124.8 173c-2.8 2.9-3 3.5-2.6 8.7.4 4.6 1 6.1 3.2 8 1.5 1.3 3.6 2.3 4.6 2.3 1 0 3.1-1 4.6-2.3 2.2-1.9 2.8-3.4 3.2-8 .4-5.2.2-5.8-2.6-8.7-1.7-1.6-4-3-5.2-3-1.2 0-3.5 1.4-5.2 3zM441.9 332.8c-3.1 2.7-3.3 3.5-3.7 9.8-.3 8.3.9 11.2 6 13.7 3.3 1.6 4 1.7 7.3.3 5.9-2.5 8.4-12.1 5.2-19.9-1.8-4.1-3.7-5.7-8-6.4-2.8-.4-4 0-6.8 2.5z"/></svg>