<svg version="1" xmlns="http://www.w3.org/2000/svg" width="800" height="800" viewBox="0 0 600.000000 600.000000"><path d="M0 300v300h600V0H0v300zM193.7 25.1c6.5 2.5 12.6 7.6 15.6 13.3 1.9 3.5 2.2 5.7 2.2 15.6 0 13.5-1.2 19.8-9.5 48.9-9 31.7-10.6 40.4-8.9 47.8 2.9 13.4 14.4 12 21.7-2.7 1.8-3.5 3.2-5.4 3.5-4.6 1.7 4.3 2.9 19.1 2.4 28.5-1 18.8-5.9 31.3-16.7 42.2-9.8 9.9-19.4 13.8-34 13.9-19.8 0-33.7-8.8-42.9-27.2l-3.9-7.9-1.6 5.3c-3.4 11.3-11.6 20-24.5 26.1-5.2 2.4-8 3.1-15.5 3.4-16.5.9-29.5-3.9-40.4-14.9-14.2-14.1-19.3-35.3-14.3-59.3 5.4-26.2 20.5-45.2 41-51.6 13.2-4.1 30.6-2.1 40 4.6 1.9 1.3 3.7 2.3 3.9 2 .2-.2.8-5.7 1.3-12.2 2.1-28.6 9.3-47.9 22.2-59.9 8.4-7.8 16-11.3 29.2-13.5 8-1.3 22.8-.1 29.2 2.2zm114.1 186c4.4 1.5 7.5 3.3 10.6 6.5 10.9 10.9 10.4 27-2.3 71.8-7.4 25.9-9.1 33.8-9.1 42.5 0 5.4.5 7.5 2.3 10.2 5.1 7.6 14.7 3.3 19.9-8.8 2.3-5.5 2.4-6.4 1.8-19.8-1.3-27.6 1.6-52.9 7.6-68.2 3.4-8.6 5.6-12.5 11.2-19.1 5.9-7.1 13-11.7 22.7-14.8 6.7-2.2 10-2.7 20-2.7 15.4-.2 23.2 2.2 29.9 8.9 10.9 10.9 10.4 27-2.3 71.8-3.3 11.6-6.7 24.4-7.6 28.4-3.5 17-1.1 27.4 6.7 28 2.9.2 4.3-.3 7.3-2.9 4.1-3.7 5.5-6.1 10.1-17.7 1.8-4.5 4.7-10.5 6.4-13.2 6.9-10.8 21.1-20.7 35-24.6 8.1-2.2 26.4-2.9 35.7-1.4 26.4 4.2 45 20.8 50.8 45.1 1.9 8.4 1.9 26.7 0 36.1-6.4 30.3-32.8 48.2-69 46.5-25.9-1.2-46-12.8-55.6-32.2l-3.2-6.6-1.8 5.2c-5.6 15.8-18.7 28.6-33.4 32.4-11.5 2.9-26.8 1.5-36.7-3.6-12.2-6.2-22.5-23.6-28.2-47.4l-1.4-6-.1 4.3c-.4 18.5-11.7 39.2-26.2 47.9-13.3 7.9-33.9 8.4-48.1 1.2-10.6-5.4-20.8-20.9-26.2-39.9-1.8-6.5-2.5-7.9-2.9-6-.3 1.4-1.1 5.4-1.8 8.9-3.8 19.7-18.3 35.9-36.2 40.7-11 2.9-29.5 1.1-39.4-3.9-16.3-8.3-24.9-23.5-27.4-48.4-2.5-25.7 3.2-44.9 16-53.6l4.9-3.2-4.6-5c-7.4-8.2-10.8-18.9-9.9-30.9 1-12.9 5.7-21.8 15-27.9 7.1-4.8 14.4-6.7 24.8-6.7 26 0 41.4 15.9 39.6 41-.8 11.4-3.8 18.3-11.2 25.6l-6.1 6 2.3 1.7c4.5 3.5 5.6 7.3 6.2 21.8.7 15.4 1.7 17.9 7.5 17.9 5.5 0 11-5 14.5-13.2 1.6-3.8 1.7-6 1.1-19.8-3-65.6 13.6-99.5 51.5-105 8.6-1.3 22-.3 29.3 2.1zm207.7 224.3c7.3 1.9 12.5 4.9 17.1 9.8 8.6 8.9 12.5 20.6 12.2 36.9-.1 7.9 1.6 13.1 4.7 14.3 6.3 2.4 12.2-1.9 17.2-12.5l3-6.3 1.4 7c2 9.7 1.7 30.2-.4 38.4-5.5 21-19.7 36.1-37.5 39.9-7.2 1.5-20.3 1.4-28.3-.3-13.7-2.9-23.9-10.7-28-21.4-1.8-4.7-2.2-8-2.3-18.2-.1-7.7-.7-13.4-1.4-14.7-2.8-5.1-7.9-4.7-10.9.9-1.6 2.9-1.8 5.9-1.8 22.8 0 18.9-.1 19.6-2.5 24-3.2 5.8-7.5 8-15.7 8-7.8 0-19.1-2.3-24.5-5.1-13-6.7-23-22.8-27.9-45.4-2.6-11.6-3.6-35.1-2-43.7 4.3-22.4 15.5-33.6 34.9-34.6 12.3-.7 20.2 1.7 26.4 7.9 3.9 3.9 4.9 5.7 5.9 10.5l1.2 5.9 8.1-8c12.2-12.1 23.9-17.2 39.1-17.4 3.9 0 9.3.5 12 1.3z"/><path d="M104.2 137.6c-3.6 2.5-5.2 6.8-5.2 13.7 0 8.2 2.7 12.7 8.3 14.1 9 2.3 15.1-6.5 13.3-18.9-1.3-8.6-10-13.4-16.4-8.9zM492.8 324.9c-3.3 2.9-3.3 3-3.3 12.1s0 9.2 3.3 12.1c3.7 3.3 7.9 3.8 12.2 1.2 4.9-2.9 7.1-11.4 5-19.2-2.4-9.1-10.7-12-17.2-6.2z"/></svg>