<svg xmlns="http://www.w3.org/2000/svg">
<defs>
<font id="Tofino-Bold" horiz-adv-x="596" ><font-face
    font-family="Tofino-Bold"
    units-per-em="1000"
    panose-1="2 0 0 0 0 0 0 0 0 0"
    ascent="1066"
    descent="-298"
    alphabetic="0" />
<missing-glyph horiz-adv-x="651" d="M50 0V702H601V0H50ZM175 171Q152 199 140 234T127 309Q127 355 144 395T190 464Q170 492 180 523L71 664V35L175 171ZM569 682H82L190 542Q207 568 243 584T324 600Q368 600 404 584T461 541L569 682ZM461 157Q435 130 400
114T324 98Q285 98 250 113T189 156L84 20H568L461 157ZM580 662L471 523Q471 522 472 522Q486 527 501 528T528 521Q541 512 543 491Q545 470 532 459Q522 452 508 452Q497 452 486 454T462 461Q490 432 506 393T522 309Q522 270 510 236T475 173L580 37V662ZM481
307Q484 281 475 258T442 232Q436 231 428 231T410 230Q398 230 385 231T363 237Q351 244 344 257T335 282Q334 284 334 287Q331 297 323 297Q317 297 314 287Q313 286 313 282Q311 271 304 258T284 237Q276 232 263 231T237 230Q229 230 220 230T206 232Q183 235
173 258T166 307V308L151 322V309Q151 270 164 236T201 177T256 136T324 121Q360 121 391 136T447 176T484 236T498 309Q498 314 498 317T497 326Q490 320 481 308V307ZM395 480L385 482Q372 484 359 486T336 496Q332 497 324 497Q288 497 255 482Q245 471 245
460T250 441Q257 427 275 411T323 383T395 363T492 358Q475 423 426 461Q421 461 418 462Q403 467 396 480H395ZM297 306H296Q289 310 271 313T230 316Q201 316 190 312T178 306Q177 298 178 288T182 268T191 252T207 244Q213 243 221 243T237 242Q269 242 279
247Q287 252 293 262T301 284Q304 297 299 304L297 306ZM470 306Q469 308 458 312T418 316Q395 316 377 313T352 306Q351 306 351 305Q350 305 349 304Q344 297 347 284Q349 272 355 262T369 247Q379 242 410 242Q419 242 427 242T441 244Q450 245 456 252T465
268T470 287T470 306ZM437 532Q419 553 387 564T324 576Q282 576 248 560T204 519Q195 500 208 480Q232 499 260 509T320 521Q320 526 320 530T323 541Q332 562 348 566Q363 570 379 559T411 533Q413 531 413 531Q420 534 428 534Q431 534 437 532ZM173 318Q180

<glyph unicode=" " glyph-name="space" horiz-adv-x="198" />
<glyph unicode="!" glyph-name="exclam" horiz-adv-x="301" d="M69 0V139H232V0H69ZM81 194L69 720H232L220 194H81Z" />
<glyph unicode="&quot;" glyph-name="quotedbl" horiz-adv-x="422" d="M26 494L8 751H182L164 494H26ZM258 494L240 751H414L396 494H258Z" />
<glyph unicode="#" glyph-name="numbersign" horiz-adv-x="784" d="M367 0L402 177H304L269 0H127L162 177H69V291H185L214 437H116V551H237L267 702H409L379 551H477L507 702H649L619 551H711V437H596L567 291H664V177H544L509 0H367ZM454 437H356L327 291H425L454 437Z" />
<glyph unicode="$" glyph-name="dollar" horiz-adv-x="582" d="M241 -24L247 35Q137 43 87 96T37 260H188Q188 207 214 185T285 162Q333 162 358 179T384 227Q384 260 359 275T297 299T215 318T134 350T71 412T46 523Q46 603 94 652T247 710L241 767H345L339 710Q444
700 489 648T534 499H384Q384 536 363 560T295 584Q247 584 227 565T206 519Q206 495 220 481T259 457T314 441T377 425T440 403T495 369T533 314T548 233Q548 144 498 95T339 36L345 -24H241Z" />
<glyph unicode="%" glyph-name="percent" horiz-adv-x="885" d="M144 0L604 702H747L287 0H144ZM212 349Q161 349 126 361T69 396T38 454T28 532Q28 577 37 611T68 670T125 706T212 719Q264 719 299 707T355 670T386 612T395 532Q395 488 386 454T356 397T299
361T212 349ZM212 443Q251 443 263 465T276 532Q276 578 264 601T212 625Q174 625 161 602T147 532Q147 487 160 465T212 443ZM674 -18Q623 -18 588 -6T531 29T500 87T490 165Q490 210 499 244T530 303T587 339T674 352Q726 352 761 340T817 303T848 245T857 165Q857
121 848 87T818 30T761 -6T674 -18ZM675 76Q714 76 726 98T739 165Q739 211 727 234T675 258Q637 258 624 235T610 165Q610 120 623 98T675 76Z" />
<glyph unicode="&amp;" glyph-name="ampersand" horiz-adv-x="750" d="M562 -2Q556 3 549 9Q543 14 535 22T516 41Q437 -20 315 -20Q178 -20 115 39T52 208Q52 251 62 284T89 342T126 384T167 412Q147 442 136 473T124 544Q124 585 135 620T174 680T245 720T353
735Q420 735 463 718T531 671T565 600T575 511H411Q411 547 400 572T353 598Q335 598 324 593T307 579T299 561T296 540Q296 509 309 481T347 423T403 360T475 285L490 268Q496 293 499 322T503 384H642Q642 313 631 256T600 152Q632 118 659 90T707 42Q731 18
750 -2H562ZM254 312Q237 295 226 273T214 218Q214 199 219 181T236 149T270 126T325 117Q376 117 414 143Q356 201 296 267L254 312Z" />
<glyph unicode="&apos;" glyph-name="quotesingle" horiz-adv-x="174" d="M18 494L0 751H174L156 494H18Z" />
<glyph unicode="(" glyph-name="parenleft" horiz-adv-x="352" d="M182 -194Q147 -139 120 -66Q97 -4 78 84T58 283Q58 394 74 481T110 632Q133 704 162 760H322Q293 702 270 628Q250 565 234 477T218 283Q218 176 237 89T280 -62Q307 -136 342 -194H182Z" />
<glyph unicode=")" glyph-name="parenright" horiz-adv-x="352" d="M10 -194Q45 -136 72 -62Q95 1 114 88T134 283Q134 389 118 477T82 628Q59 702 30 760H190Q219 704 242 632Q262 569 278 482T294 283Q294 172 275 84T232 -66Q205 -139 170 -194H10Z" />
<glyph unicode="*" glyph-name="asterisk" horiz-adv-x="444" d="M273 380L222 470L171 380L63 454L147 537L40 546L69 670L171 629L159 729H284L272 629L375 670L403 546L297 537L380 454L273 380Z" />
<glyph unicode="+" glyph-name="plus" horiz-adv-x="478" d="M173 124V275H28V395H173V546H305V395H450V275H305V124H173Z" />
<glyph unicode="," glyph-name="comma" horiz-adv-x="294" d="M9 -147Q18 -126 28 -100Q36 -78 44 -50T60 12Q67 46 71 70T77 111Q79 129 79 142H240Q239 126 235 105Q232 87 227 61T211 0Q200 -38 188 -65T166 -111Q154 -132 143 -147H9Z" />
<glyph unicode="-" glyph-name="hyphen" horiz-adv-x="374" d="M62 257V381H312V257H62Z" />
<glyph unicode="." glyph-name="period" horiz-adv-x="278" d="M57 0V142H221V0H57Z" />
<glyph unicode="/" glyph-name="slash" horiz-adv-x="507" d="M32 -40L342 800H500L190 -40H32Z" />
<glyph unicode="0" glyph-name="zero" horiz-adv-x="684" d="M53 346Q53 443 66 515T111 633T200 703T342 726Q428 726 484 703T572 634T618 515T631 346Q631 256 618 189T573 76T484 9T342 -13Q256 -13 200 9T112 76T66 188T53 346ZM458 346Q458 411 452 455T432
527T396 566T341 578Q309 578 287 566T251 527T231 456T225 346Q225 288 231 248T250 183T286 147T341 135Q374 135 396 146T432 183T452 248T458 346Z" />
<glyph unicode="1" glyph-name="one" horiz-adv-x="383" d="M135 0V555L1 494V638L179 718L176 708L180 718H305V0H135Z" />
<glyph unicode="2" glyph-name="two" horiz-adv-x="588" d="M31 0V139Q31 139 47 151T90 185T151 233T222 292Q249 316 277 339T327 387T364 436T378 491Q378 582 293 582Q247 582 224 558T200 479H26Q26 604 90 666T293 728Q427 728 487 669T548 496Q548 453
535 417T502 349T456 290T407 240Q382 216 358 197T313 163Q289 146 268 134Q336 136 392 138Q416 139 439 139T482 140T516 141T536 142V0H31Z" />
<glyph unicode="3" glyph-name="three" horiz-adv-x="599" d="M372 452Q469 432 514 377T559 228Q559 118 493 55T286 -9Q218 -9 169 8T88 57T40 133T24 231H187Q187 216 191 200T207 169T237 146T284 136Q312 136 331 144T363 165T380 196T385 232Q385 252 380
270T359 302T319 324T253 333Q239 333 224 332T196 329Q181 327 167 326V454H169L329 567L49 559V701H541V573L372 452Z" />
<glyph unicode="4" glyph-name="four" horiz-adv-x="639" d="M361 0L362 117H31V257L354 701H531V257H615V117H531V0H361ZM365 492L195 257H363L365 492Z" />
<glyph unicode="5" glyph-name="five" horiz-adv-x="608" d="M244 564L226 440Q247 454 277 464T349 474Q406 474 449 457T520 408T562 331T576 230Q576 174 561 130T512 55T427 8T301 -9Q231 -9 182 8T101 54T55 122T40 205H204Q204 199 208 187T224 162T253
140T301 131Q330 131 349 139T381 161T398 193T404 230Q404 249 399 268T381 303T350 328T301 338Q274 338 256 331T226 314T210 297T204 286L52 288L91 566H90L108 701H537V561L244 564Z" />
<glyph unicode="6" glyph-name="six" horiz-adv-x="663" d="M420 514Q420 524 415 536T400 560T373 578T334 586Q313 586 297 580T267 556T246 507T232 425Q259 443 293 454T376 466Q446 466 491 445T563 389T600 311T610 224Q610 178 597 136T551 60T465 7T334
-13Q255 -13 201 8T114 70T67 174T53 317Q53 428 68 505T117 632T204 703T334 726Q408 726 457 707T536 658T578 590T590 514H420ZM227 288Q229 242 236 212T257 163T290 136T334 128Q385 128 410 156T436 226Q436 270 415 301T341 332Q301 332 274 320T227 288Z"
/>
<glyph unicode="7" glyph-name="seven" horiz-adv-x="537" d="M111 0Q111 56 120 110T146 214T182 309T223 392Q272 482 335 559L10 557V701H520V557Q455 474 404 382Q382 343 362 298T325 204T299 104T289 0H111Z" />
<glyph unicode="8" glyph-name="eight" horiz-adv-x="671" d="M501 388Q510 387 529 376T568 342T603 287T618 208Q618 157 605 117T558 48T471 4T335 -11Q254 -11 200 4T113 47T67 116T53 208Q53 253 67 286T101 342T140 375T170 388Q164 389 149 397T117 423T89
466T76 528Q76 571 89 608T132 671T211 713T335 728Q409 728 459 713T539 672T582 608T595 528Q595 492 583 466T554 423T523 398T501 388ZM443 222Q443 264 419 291T336 319Q276 319 252 292T228 222Q228 180 252 154T336 128Q395 128 419 154T443 222ZM424 513Q424
554 404 575T335 596Q287 596 267 575T246 513Q246 479 266 459T335 439Q383 439 403 459T424 513Z" />
<glyph unicode="9" glyph-name="nine" horiz-adv-x="663" d="M232 199Q232 189 236 177T250 153T280 135T328 127Q351 127 368 133T397 154T416 198T429 271Q403 253 368 241T287 229Q220 229 175 250T103 306T65 387T53 481Q53 530 68 574T116 652T201 706T329
726Q405 726 458 705T545 643T594 539T610 396Q610 285 596 208T549 81T462 10T328 -13Q246 -13 195 7T114 58T73 126T62 199H232ZM436 403Q435 455 428 490T408 546T375 576T329 585Q278 585 253 556T227 479Q227 427 249 395T322 363Q362 363 389 374T436 403Z"
/>
<glyph unicode=":" glyph-name="colon" horiz-adv-x="278" d="M57 0V144H221V0H57ZM57 358V500H221V358H57Z" />
<glyph unicode=";" glyph-name="semicolon" horiz-adv-x="301" d="M4 -147Q13 -126 23 -100Q31 -78 39 -50T55 12Q62 46 66 70T72 111Q74 129 74 142H235Q234 126 230 105Q227 87 222 61T206 0Q195 -38 183 -65T161 -111Q149 -132 138 -147H4ZM80 358V496H244V358H80Z" />
<glyph unicode="&lt;" glyph-name="less" horiz-adv-x="506" d="M24 250V386L474 532V394L159 318L474 242V104L24 250Z" />
<glyph unicode="=" glyph-name="equal" horiz-adv-x="509" d="M32 349V473H477V349H32ZM32 157V281H477V157H32Z" />
<glyph unicode="&gt;" glyph-name="greater" horiz-adv-x="506" d="M32 104V242L346 318L32 394V532L482 386V250L32 104Z" />
<glyph unicode="?" glyph-name="question" horiz-adv-x="538" d="M171 0V136H335V0H171ZM177 190V206Q177 253 188 287T215 347T251 393T287 434T315 476T326 528Q326 544 324 559T313 585T291 604T252 611Q229 611 215 603T192 579T182 540T179 488H15Q15 621
71 688T256 755Q324 755 369 739T442 694T480 629T492 548Q492 500 480 466T451 405T412 357T373 313T343 266T329 206L328 190H177Z" />
<glyph unicode="@" glyph-name="at" horiz-adv-x="920" d="M670 -108Q635 -121 585 -128T461 -136Q350 -136 273 -105T146 -19T75 112T53 279Q53 368 75 444T146 577T272 664T461 696Q570 696 647 665T772 577T843 445T866 279Q866 149 824 82T689 15Q635 15 603
36T554 93Q534 70 501 55T414 40Q321 40 279 101T237 277Q237 391 279 452T414 514Q459 514 490 497T540 460L554 513H670V205Q670 151 680 129T711 107Q721 107 731 112T749 134T762 186T767 279Q767 347 751 406T699 510T605 580T461 606Q377 606 319 581T226
511T176 407T160 279Q160 214 172 155T218 52T310 -19T462 -46Q487 -46 516 -44T574 -38T628 -28T670 -14V-108ZM534 361Q523 379 503 394T449 409Q417 409 397 376T376 277Q376 210 396 177T449 144Q485 144 505 157T534 190V361Z" />
<glyph unicode="A" glyph-name="A" horiz-adv-x="692" d="M508 0L465 137H215L172 0H0L268 720H428L692 0H508ZM342 536L262 285H420L342 536Z" />
<glyph unicode="B" glyph-name="B" horiz-adv-x="695" d="M78 -2V722H325Q416 722 473 709T563 672T606 611T618 528Q618 472 599 433T523 371Q561 360 585 344T622 306T639 258T644 200Q644 151 634 114T589 51T491 12T319 -2H78ZM320 130Q369 130 399 135T446
151T467 178T473 218Q473 241 468 258T446 286T400 302T320 307H248V130H320ZM320 428Q361 428 386 432T426 447T446 472T452 509Q452 530 447 545T427 571T387 585T320 590H248V428H320Z" />
<glyph unicode="C" glyph-name="C" horiz-adv-x="692" d="M643 276Q642 196 623 140T568 48T479 -4T357 -20Q278 -20 221 1T127 68T71 186T53 359Q53 460 71 532T126 651T221 718T357 740Q426 740 479 724T568 672T624 582T644 447H477Q475 489 467 517T444 561T407
585T357 592Q321 592 296 581T256 543T233 471T225 359Q225 293 232 249T255 178T296 140T357 129Q385 129 406 135T443 159T466 204T477 276H643Z" />
<glyph unicode="D" glyph-name="D" horiz-adv-x="717" d="M78 -2V722H296Q403 722 472 705T583 649Q630 606 647 536T664 359Q664 268 651 203T605 94Q565 43 492 21T296 -2H78ZM284 143Q352 143 393 151T458 188Q477 211 484 252T492 359Q492 435 483 478T450
543Q426 566 387 571T284 577H248V143H284Z" />
<glyph unicode="E" glyph-name="E" horiz-adv-x="620" d="M78 0V720H578V575H248V436H528V299H248V146H585V0H78Z" />
<glyph unicode="F" glyph-name="F" horiz-adv-x="566" d="M78 0V720H556V574H248V412H506V272H248V0H78Z" />
<glyph unicode="G" glyph-name="G" horiz-adv-x="702" d="M489 245H380V372H642V97Q642 89 626 70T576 31T488 -4T358 -20Q279 -20 222 0T127 66T71 183T53 359Q53 462 71 534T126 652T221 719T358 740Q507 740 574 672T642 466H479Q476 535 446 564T358 594Q322
594 297 583T256 544T233 471T225 359Q225 292 233 247T258 175T303 136T371 124Q431 124 460 138T489 163V245Z" />
<glyph unicode="H" glyph-name="H" horiz-adv-x="732" d="M484 0V287H248V0L78 -1V719L248 720V445H484V720H654V0H484Z" />
<glyph unicode="I" glyph-name="I" horiz-adv-x="326" d="M78 0V720H248V0H78Z" />
<glyph unicode="J" glyph-name="J" horiz-adv-x="477" d="M18 0V156H93Q136 156 163 161T207 186T228 243T234 345L233 708H403L405 345Q405 248 396 182T356 76T262 18T93 0H18Z" />
<glyph unicode="K" glyph-name="K" horiz-adv-x="696" d="M501 0L319 270L248 180V0H78V720H248V387L483 720H677L420 396L695 0H501Z" />
<glyph unicode="L" glyph-name="L" horiz-adv-x="521" d="M78 0V720H248V155H502V0H78Z" />
<glyph unicode="M" glyph-name="M" horiz-adv-x="939" d="M703 0L711 513L534 -2H377L215 505L222 0H78V708H313L470 199L634 708H862L860 0H703Z" />
<glyph unicode="N" glyph-name="N" horiz-adv-x="751" d="M537 -1V0L489 -1L220 484L231 0H78V720H261L532 233L521 720H674V-1H537Z" />
<glyph unicode="O" glyph-name="O" horiz-adv-x="722" d="M361 -20Q280 -20 222 1T127 68T71 186T53 359Q53 460 71 532T126 651T222 718T361 740Q442 740 500 719T595 651T651 533T669 359Q669 258 651 186T596 69T500 2T361 -20ZM361 129Q398 129 424 140T466
178T489 249T496 359Q496 425 489 470T466 542T424 580T361 592Q323 592 298 581T256 542T232 470T225 359Q225 293 232 249T255 179T297 141T361 129Z" />
<glyph unicode="P" glyph-name="P" horiz-adv-x="687" d="M78 -2V722H326Q420 722 483 712T585 673T639 595T655 469Q655 392 639 343T585 265T482 227T321 216H248V-2H78ZM321 359Q372 359 407 364T462 389Q486 413 486 470Q486 503 479 523T455 556Q435 572
402 576T321 580H249V359H321Z" />
<glyph unicode="Q" glyph-name="Q" horiz-adv-x="722" d="M453 -11Q411 -20 361 -20Q280 -20 222 1T127 68T71 186T53 359Q53 460 71 532T126 651T222 718T361 740Q442 740 500 719T595 651T651 533T669 359Q669 243 646 167T572 45L697 -52L607 -153L453 -11ZM361
129Q398 129 424 140T466 178T489 249T496 359Q496 425 489 470T466 542T424 580T361 592Q323 592 298 581T256 542T232 470T225 359Q225 293 232 249T255 179T297 141T361 129Z" />
<glyph unicode="R" glyph-name="R" horiz-adv-x="703" d="M491 0L382 234Q368 233 354 233T323 233H250V0H78V720H328Q429 720 492 708T590 668T637 594T650 477Q650 433 646 399T629 337T597 291T545 260L683 0H491ZM323 375Q371 375 404 379T456 400Q480 422
480 477Q480 511 472 531T446 562Q426 574 396 577T323 580H250V375H323Z" />
<glyph unicode="S" glyph-name="S" horiz-adv-x="657" d="M446 504Q446 544 417 571T332 599Q302 599 282 593T249 577T231 553T225 526Q225 499 242 483T287 455T350 436T423 417T496 392T560 353T605 293T622 203Q622 148 606 106T554 36T463 -6T328 -20Q182
-20 110 39T37 233H200Q200 176 235 149T322 122Q388 122 417 143T446 196Q446 223 429 239T385 265T322 282T249 300T177 325T114 367T69 433T52 532Q52 580 68 619T117 685T202 726T327 741Q473 741 540 682T607 504H446Z" />
<glyph unicode="T" glyph-name="T" horiz-adv-x="570" d="M198 0L199 565H17V720H553V565H369L368 0H198Z" />
<glyph unicode="U" glyph-name="U" horiz-adv-x="721" d="M476 720H649V338Q649 241 634 173T584 62T494 0T360 -20Q281 -20 227 -1T138 62T88 173T72 338V720H243V342Q243 277 249 236T270 172T306 140T359 131Q390 131 412 139T448 171T469 236T476 342V720Z" />
<glyph unicode="V" glyph-name="V" horiz-adv-x="672" d="M258 0L0 720H191L342 222L493 720H672L412 0H258Z" />
<glyph unicode="W" glyph-name="W" horiz-adv-x="1020" d="M634 0L505 474L376 0H220L0 720H188L303 218L427 720H592L726 208L844 720H1020L798 0H634Z" />
<glyph unicode="X" glyph-name="X" horiz-adv-x="688" d="M498 0L334 234L179 0H-5L240 368H241L-4 720H193L349 496L497 720H681L443 360L695 0H498Z" />
<glyph unicode="Y" glyph-name="Y" horiz-adv-x="676" d="M256 0V245L0 720H196L347 402L492 720H676L426 243V0H256Z" />
<glyph unicode="Z" glyph-name="Z" horiz-adv-x="614" d="M28 2V176L399 573L43 571V719H579V545L207 147L582 150V2H28Z" />
<glyph unicode="[" glyph-name="bracketleft" horiz-adv-x="414" d="M80 -200V760H404V620H238V-60H404V-200H80Z" />
<glyph unicode="\" glyph-name="backslash" horiz-adv-x="531" d="M342 -40L32 800H190L500 -40H342Z" />
<glyph unicode="]" glyph-name="bracketright" horiz-adv-x="414" d="M10 -200V-60H176V620H10V760H334V-200H10Z" />
<glyph unicode="^" glyph-name="asciicircum" horiz-adv-x="454" d="M284 459L224 603L164 459H38L165 746H283L411 459H284Z" />
<glyph unicode="_" glyph-name="underscore" horiz-adv-x="555" d="M62 0V122H493V0H62Z" />
<glyph unicode="`" glyph-name="grave" horiz-adv-x="600" d="M161 611L45 786H216L304 611H161Z" />
<glyph unicode="a" glyph-name="a" horiz-adv-x="629" d="M427 1L412 56Q388 24 348 6T245 -13Q148 -13 101 21Q72 42 60 76T47 159Q47 239 90 277Q111 296 141 306T210 322T294 329T391 330Q391 358 389 378T379 413Q371 429 355 436T309 444Q283 444 266 437T238
420T223 397T218 372H72Q72 396 78 428T108 489T177 538T302 558Q385 558 434 542T509 497Q526 478 535 454T548 402T554 340T555 270V149L563 1H427ZM391 236Q346 236 312 234T254 223T218 199T205 156Q205 128 223 110T284 92Q315 92 345 106T391 158V236Z" />
<glyph unicode="b" glyph-name="b" horiz-adv-x="660" d="M69 0L75 156V760H240L239 491Q250 502 265 514T299 535T341 551T393 558Q513 558 564 485T615 273Q615 133 564 61T393 -12Q327 -12 285 9T219 62L205 0H69ZM239 194Q243 180 251 166T273 140T306 122T353
115Q403 115 425 153T447 273Q447 354 425 392T353 431Q329 431 311 424T278 405T255 379T239 353V194Z" />
<glyph unicode="c" glyph-name="c" horiz-adv-x="610" d="M408 332Q406 386 382 410T314 434Q257 434 235 397T212 273Q212 185 234 149T314 112Q356 112 380 133T407 199H570Q567 148 552 108T506 41T428 -1T314 -16Q236 -16 185 3T102 60T58 150T45 273Q45 341
58 394T102 485T184 541T314 561Q382 561 429 546T507 502T551 430T569 332H408Z" />
<glyph unicode="d" glyph-name="d" horiz-adv-x="660" d="M454 0L439 62Q415 30 374 9T267 -12Q147 -12 96 60T45 273Q45 412 96 485T267 558Q322 558 360 540T420 501V760H584V156L591 0H454ZM420 353Q414 365 405 379T382 404T350 423T306 431Q256 431 234 393T212
273Q212 192 234 154T306 115Q333 115 352 122T385 140T407 166T420 195V353Z" />
<glyph unicode="e" glyph-name="e" horiz-adv-x="624" d="M213 237Q216 163 238 133T311 102Q339 102 357 109T388 127T405 152T411 179H576Q576 143 563 109T518 46T437 1T312 -16Q235 -16 184 3T102 59T58 149T45 271Q45 339 58 393T102 484T184 542T312 562Q386
562 437 542T519 482T564 380T578 237H213ZM411 338Q402 398 379 423T311 448Q266 448 244 423T215 338H411Z" />
<glyph unicode="f" glyph-name="f" horiz-adv-x="385" d="M92 0V412H18V536H92V545Q92 588 98 628T126 698T185 747T288 766H362V636H321Q305 636 293 632T273 617T260 587T256 537V536H364V412H256V0H92Z" />
<glyph unicode="g" glyph-name="g" horiz-adv-x="658" d="M422 42Q397 19 360 4T267 -11Q147 -11 96 61T45 273Q45 412 96 485T267 558Q302 558 330 548T380 524T416 495T438 469L455 546H592L586 381V-2Q586 -26 585 -52T577 -105T554 -156T507 -199T428 -229T309
-240Q264 -240 231 -233T172 -214T130 -186T102 -153Q85 -125 80 -98T75 -52H226Q226 -57 227 -69T236 -93T264 -114T321 -124Q350 -124 368 -119T398 -103Q415 -87 418 -62T422 -4V42ZM422 349Q416 361 407 375T384 402T351 423T306 431Q256 431 234 393T212 273Q212
192 234 154T306 116Q334 116 354 123T388 143T410 171T422 202V349Z" />
<glyph unicode="h" glyph-name="h" horiz-adv-x="660" d="M425 0Q425 82 426 148Q426 176 426 203T426 253T427 291T427 311Q427 333 425 353T415 387T393 410T355 419Q327 419 307 409T271 384T247 354T233 327Q233 280 233 234T233 144T233 64T233 0H69V760H231L232
484Q242 496 257 509T294 534T341 553T399 561Q451 561 487 549T547 510T580 437T591 327Q591 322 591 306T591 265T590 213T590 154Q589 84 589 0H425Z" />
<glyph unicode="i" glyph-name="i" horiz-adv-x="279" d="M54 0V546H218V0H54ZM314 612V764H478V612H314Z" />
<glyph unicode="j" glyph-name="j" horiz-adv-x="312" d="M-43 -91Q0 -91 24 -84T59 -59T72 -13T75 58V546H239V58Q239 -21 231 -76T193 -165T108 -214T-43 -229V-91ZM74 612V764H238V612H74Z" />
<glyph unicode="k" glyph-name="k" horiz-adv-x="595" d="M416 0L277 204L233 153V0H69V760H233V333L388 546H577L375 316L600 0H416Z" />
<glyph unicode="l" glyph-name="l" horiz-adv-x="301" d="M69 0V760H233V0H69Z" />
<glyph unicode="m" glyph-name="m" horiz-adv-x="973" d="M744 0V148Q744 176 744 203T744 253T745 291T745 311Q745 333 744 353T736 387T716 410T680 419Q658 419 641 412T611 395T587 371T571 346Q571 341 571 337T572 327Q572 322 572 306T572 265T571 213T571
154V0H417V148Q417 176 417 203T417 253T418 291T418 311Q418 333 417 353T409 387T389 410T352 419Q328 419 310 410T277 389T254 362T239 335V0H75V394L69 546H205L222 467Q229 477 243 493T279 524T330 550T396 561Q456 561 494 540T551 470Q559 481 573 496T609
526T659 551T723 561Q769 561 803 549T859 510T893 437T904 327Q904 322 904 306T904 265T903 213T903 154Q902 84 902 0H744Z" />
<glyph unicode="n" glyph-name="n" horiz-adv-x="660" d="M425 0Q425 82 426 148Q426 176 426 203T426 253T427 291T427 311Q427 333 425 353T415 387T393 410T355 419Q330 419 311 411T278 391T255 365T239 339V0H75V394L69 546H205L222 470Q229 480 244 496T281
526T332 550T399 561Q451 561 487 549T547 510T580 437T591 327Q591 322 591 306T591 265T590 213T590 154Q589 84 589 0H425Z" />
<glyph unicode="o" glyph-name="o" horiz-adv-x="635" d="M317 -16Q240 -16 188 4T105 61T59 152T45 272Q45 339 59 392T104 483T188 541T317 562Q393 562 445 542T530 484T576 393T590 272Q590 206 576 153T530 62T446 4T317 -16ZM317 111Q376 111 399 147T422
272Q422 359 399 397T317 435Q258 435 235 397T212 272Q212 184 235 148T317 111Z" />
<glyph unicode="p" glyph-name="p" horiz-adv-x="660" d="M75 -240V384L69 546H205L222 469Q229 480 243 495T279 524T329 548T393 558Q513 558 564 485T615 273Q615 133 564 61T393 -12Q339 -12 302 2T239 40V-154Q239 -200 240 -240H75ZM239 195Q243 180 251
166T273 141T306 122T353 115Q403 115 425 153T447 273Q447 354 425 392T353 431Q329 431 310 424T278 405T255 379T239 353V195Z" />
<glyph unicode="q" glyph-name="q" horiz-adv-x="660" d="M421 -240V40Q396 17 359 3T267 -12Q147 -12 96 60T45 273Q45 412 96 485T267 558Q301 558 329 549T378 526T414 497T437 470L455 546H592L585 389V-240H421ZM421 351Q415 363 406 377T383 403T350 423T306
431Q256 431 234 393T212 273Q212 192 234 154T306 115Q333 115 353 122T386 141T408 168T421 198V351Z" />
<glyph unicode="r" glyph-name="r" horiz-adv-x="444" d="M75 0V384L69 546H205L224 451Q230 466 242 485T276 521T333 550T418 562V412Q365 412 332 396T279 358T251 314T239 278V0H75Z" />
<glyph unicode="s" glyph-name="s" horiz-adv-x="571" d="M377 381Q377 412 357 429T289 447Q267 447 252 443T228 432T216 417T212 400Q212 373 236 360T296 339T375 323T453 297T514 247T538 157Q538 72 478 28T286 -16Q162 -16 103 31T43 183H189Q189 134 216
116T284 98Q328 98 351 110T374 146Q374 174 350 187T290 209T213 225T135 252T75 305T51 399Q51 474 109 517T285 561Q410 561 466 516T523 381H377Z" />
<glyph unicode="t" glyph-name="t" horiz-adv-x="418" d="M304 -7Q233 -7 192 11T129 62T101 137T95 230V422H24V546H95V686L259 713V546H376V422H259V232Q259 198 263 177T275 144T296 128T324 124H382V-7H304Z" />
<glyph unicode="u" glyph-name="u" horiz-adv-x="646" d="M443 0L425 78Q418 67 404 52T367 21T315 -4T247 -15Q198 -15 163 -3T104 35T69 105T57 211Q57 215 57 232T57 273T57 328T58 388Q58 459 59 546H222Q221 464 221 398V235Q221 212 223 193T232 158T253
135T291 126Q316 126 336 134T370 156T393 183T409 210V546H573V152L580 0H443Z" />
<glyph unicode="v" glyph-name="v" horiz-adv-x="585" d="M214 0L4 546H187L300 171L410 546H581L371 0H214Z" />
<glyph unicode="w" glyph-name="w" horiz-adv-x="813" d="M506 0L408 345L315 0H176L0 546H165L252 195L343 546H487L576 199L663 546H812L641 0H506Z" />
<glyph unicode="x" glyph-name="x" horiz-adv-x="567" d="M379 0L271 152L168 0H0L187 274L3 546H184L294 383L400 546H567L378 258L560 0H379Z" />
<glyph unicode="y" glyph-name="y" horiz-adv-x="589" d="M171 -224L242 0H199L4 546H182L292 158L415 546H584L316 -224H171Z" />
<glyph unicode="z" glyph-name="z" horiz-adv-x="533" d="M38 1V163L322 420L48 417V543H491V383L208 127L491 131V1H38Z" />
<glyph unicode="{" glyph-name="braceleft" horiz-adv-x="434" d="M424 -196Q328 -196 270 -187T181 -152T140 -84T130 26Q130 38 130 45T130 66T129 100T129 162Q129 177 126 187T114 205T87 215T42 218V346Q70 346 87 349T113 358T126 375T129 400V546Q129 613
139 654T180 719T269 750T424 758V620Q383 620 357 617T317 601T297 567T291 506Q291 494 291 491T291 480T290 455T290 398Q290 366 280 344T256 308T231 288T216 281Q217 280 229 274T255 255T280 219T291 164Q291 149 291 121T292 55Q292 17 297 -5T316 -38T357
-53T424 -57V-196Z" />
<glyph unicode="|" glyph-name="bar" horiz-adv-x="270" d="M69 -200V820H201V-200H69Z" />
<glyph unicode="}" glyph-name="braceright" horiz-adv-x="434" d="M10 -57Q51 -57 77 -54T117 -39T137 -7T142 51Q142 88 142 118T143 164Q143 196 153 218T177 253T202 273T217 281Q216 281 205 287T180 306T155 342T144 398Q144 422 144 438T144 467T143 489T143
512Q143 548 138 569T118 602T77 616T10 620V758Q106 758 164 750T253 720T295 657T305 550V400Q305 385 308 375T320 359T347 349T392 346V218Q364 218 347 215T321 205T308 188T305 162Q305 129 305 108T305 71T304 45T304 22Q304 -43 294 -85T253 -152T164 -186T10
-196V-57Z" />
<glyph unicode="~" glyph-name="asciitilde" horiz-adv-x="555" d="M527 404Q527 368 522 334T499 273T452 230T370 214Q336 214 314 222T272 241T233 260T184 269Q167 269 156 263T137 247T127 229T123 214H28Q28 250 33 284T55 345T103 388T184 404Q218 404
240 396T282 377T321 358T370 349Q387 349 398 355T417 371T428 389T432 404H527Z" />
</font>
</defs>
</svg>
