<?xml version="1.0" standalone="no"?> <!DOCTYPE svg PUBLIC "-//W3C//DTD SVG 1.0//EN" "http://www.w3.org/TR/2001/REC-SVG-20010904/DTD/svg10.dtd" > <svg xmlns="http://www.w3.org/2000/svg" width="100%" height="100%">
<defs >
<font id="RakoonPersonalUse" horiz-adv-x="615" ><font-face
    font-family="RakoonPersonalUse"
    units-per-em="1000"
    panose-1="0 0 0 0 0 0 0 0 0 0"
    ascent="750"
    descent="-250"
    alphabetic="0" />
<missing-glyph horiz-adv-x="199" />
<glyph unicode=" " glyph-name="space" horiz-adv-x="199" />
<glyph unicode="!" glyph-name="exclam" horiz-adv-x="359" d="M162 171Q208 171 231 145T250 73Q246 38 222 19T162 0Q127 0 103 19T75 73Q70 118 93 144T162 171ZM253 617Q307 617 321 596T327 542T298 468T261 387Q243 343 235 311T219 257T202 226T171 215Q151
215 128 230T87 276T64 350T72 452Q85 507 102 539T140 589T190 612T253 617Z" />
<glyph unicode="&quot;" glyph-name="quotedbl" horiz-adv-x="432" d="M121 571Q165 571 185 551T209 500T203 434T175 371T135 325T94 313Q79 317 75 326T71 348T76 376T83 406Q63 414 50 430T34 472Q29 517 52 544T121 571ZM311 571Q355 571 375 551T399 500T393
434T365 371T325 325T284 313Q269 317 265 326T261 348T266 376T273 406Q253 414 240 430T224 472Q219 517 242 544T311 571Z" />
<glyph unicode="#" glyph-name="numbersign" horiz-adv-x="498" d="M470 133Q467 106 452 95T412 82Q409 58 399 43T361 24Q325 19 307 34T284 81H212Q209 57 198 42T161 24Q124 19 107 34T84 82Q60 84 45 95T26 133Q21 168 36 186T82 209V282Q59 285 44 296T26
333Q21 369 36 387T84 410Q89 441 106 457T161 468Q187 465 198 450T211 412H284Q289 442 307 457T361 468Q388 465 398 450T412 410Q443 405 459 387T470 333Q467 306 452 295T413 282V210Q444 205 459 187T470 133ZM213 212H282V281H213V212Z" />
<glyph unicode="$" glyph-name="dollar" horiz-adv-x="546" d="M52 324Q55 357 69 385T105 435T157 474T218 502V554Q218 584 236 599T284 612Q308 609 320 593T333 554V521Q384 522 420 513T478 489T508 451T511 405Q506 379 489 364T451 343T408 339T369 349T344
370T342 400Q347 413 336 419T306 426T264 422T221 407T188 382T177 348Q177 328 186 322T212 315T251 321T301 329T358 333T421 322Q474 305 493 267T506 184T471 97T399 27Q370 8 333 -3V-49Q333 -73 321 -89T284 -108Q255 -111 237 -96T218 -49V-24Q182 -25
149 -20T88 -2T42 29T17 74Q9 105 16 130T37 168T68 181T98 160Q110 139 134 125T187 105T249 98T308 105T356 127T382 164Q385 177 383 183T367 188T324 178T244 154Q192 139 154 148T92 183T58 246T52 324Z" />
<glyph unicode="%" glyph-name="percent" horiz-adv-x="573" d="M194 62Q173 32 144 13T83 -10Q45 -15 37 4T56 62L368 483Q394 521 431 540T502 554Q528 551 529 532T508 483L194 62ZM157 558Q219 558 250 522T275 425Q269 379 237 354T157 328Q109 328 77 353T40
425Q34 485 65 521T157 558ZM197 448Q198 468 187 479T159 490Q141 490 130 479T120 448Q120 429 132 420T159 411Q173 411 185 420T197 448ZM409 225Q471 225 502 189T527 93Q521 48 489 22T409 -4Q361 -4 329 22T292 93Q286 153 317 189T409 225ZM449 115Q451
137 440 147T411 157Q393 157 382 147T372 115Q373 96 384 87T411 78Q425 78 437 87T449 115Z" />
<glyph unicode="&amp;" glyph-name="ampersand" horiz-adv-x="647" d="M380 313Q391 333 377 349T338 372T286 373T244 341Q226 309 242 281T327 229Q356 218 390 210T455 195T509 185T541 182Q561 184 575 168T597 127T607 72T607 15T598 -30T580 -51Q565 -54
547 -52T513 -39T487 -9T479 40Q463 -4 427 -32T345 -72T248 -80T153 -57T74 -2T28 84Q20 116 26 145T49 199T89 240T140 265Q108 281 91 308T71 366T82 430T125 489T201 532T310 549Q400 549 458 526T547 466T580 386T563 302Q550 276 529 263T485 246T440 246T401
260T379 284T380 313ZM175 122Q184 101 208 90T262 78T320 92T368 137Q336 152 299 166T226 194Q212 199 200 194T180 178T170 152T175 122Z" />
<glyph unicode="&apos;" glyph-name="quotesingle" horiz-adv-x="147" d="M81 601Q125 601 145 581T169 530T163 464T135 401T95 355T54 343Q39 347 35 356T31 378T36 406T43 436Q23 444 10 460T-6 502Q-11 547 12 574T81 601Z" />
<glyph unicode="(" glyph-name="parenleft" horiz-adv-x="454" d="M418 504Q375 476 346 433T303 338T288 230T302 118T346 13T418 -75Q448 -101 440 -114T400 -127T323 -114T232 -73Q177 -40 140 5T85 103T66 210T83 318T139 419T234 504Q282 535 328 546T404
555T441 538T418 504Z" />
<glyph unicode=")" glyph-name="parenright" horiz-adv-x="441" d="M35 504Q5 523 12 537T49 555T125 547T219 504Q276 467 313 419T369 318T388 210T369 103T313 6T221 -73Q176 -100 131 -113T54 -127T14 -114T35 -75Q78 -37 107 13T150 118T165 229T151 338T107
433T35 504Z" />
<glyph unicode="*" glyph-name="asterisk" horiz-adv-x="430" d="M389 338Q387 308 367 298T317 287Q337 257 338 236T307 194Q278 177 257 193T217 238Q198 209 177 193T128 194Q95 214 96 235T117 287Q86 287 67 295T43 335Q38 368 56 381T111 397Q96 421 94
441T114 481Q142 505 165 494T214 444L217 438L221 444Q247 482 270 493T321 481Q344 461 341 441T324 397Q356 395 373 385T389 338Z" />
<glyph unicode="+" glyph-name="plus" horiz-adv-x="430" d="M303 131Q302 95 284 72T231 44Q186 39 159 62T132 131Q97 131 74 149T46 203Q41 247 64 274T132 302Q132 347 159 370T231 388Q265 384 283 361T303 302Q348 302 371 275T390 203Q386 168 363 150T303 131Z" />
<glyph unicode="," glyph-name="comma" horiz-adv-x="250" d="M121 171Q165 171 185 151T209 100T203 34T175 -29T135 -75T94 -87Q79 -83 75 -74T71 -52T76 -24T83 6Q63 14 50 30T34 72Q29 117 52 144T121 171Z" />
<glyph unicode="-" glyph-name="hyphen" horiz-adv-x="347" d="M134 131Q98 131 74 149T46 203Q41 248 64 275T134 302H211Q256 302 279 275T298 203Q294 168 271 150T211 131H134Z" />
<glyph unicode="." glyph-name="period" horiz-adv-x="250" d="M122 171Q168 171 191 145T210 73Q206 38 182 19T122 0Q87 0 63 19T35 73Q30 118 53 144T122 171Z" />
<glyph unicode="/" glyph-name="slash" horiz-adv-x="347" d="M141 5Q125 -31 96 -55T31 -83Q-15 -88 -32 -65T-29 5L202 550Q221 595 258 618T338 637Q371 633 379 610T373 550L141 5Z" />
<glyph unicode="0" glyph-name="zero" horiz-adv-x="878" d="M12 427Q44 444 76 458T143 483Q145 483 147 492T151 513T154 536T158 551Q168 566 189 575T226 591Q267 608 309 620T394 643Q438 654 481 661T570 673Q586 675 607 677T651 679T694 673T726 655Q728
653 726 642T723 626L720 581Q720 579 722 579Q759 568 793 552T850 504V503Q842 505 833 502T814 492T797 479T784 467Q798 459 806 445T819 414T823 380T817 349Q809 369 794 380T760 396T720 402T681 405Q661 407 638 406T595 412Q587 415 584 424T581 444T581
466T584 483Q499 477 416 458T252 410Q249 408 249 407Q250 402 252 391T257 368T260 346T257 332Q246 324 230 322T200 318Q182 316 164 313T127 307Q95 301 67 289Q60 286 54 283T40 275Q37 272 32 267T24 259Q29 275 35 290T48 320Q49 323 54 332T64 351T72
369T75 379Q64 395 48 410T12 427ZM706 484Q708 510 708 536T710 588Q711 602 711 615T714 641Q715 647 712 651T702 657T690 661T678 663Q622 671 563 663T449 644Q389 632 331 616T216 575Q205 570 194 565T174 551Q164 543 162 528T158 502Q154 471 154 441T154
379Q163 379 178 389T202 403Q219 411 237 417T272 429Q343 451 418 468Q454 476 490 482T563 493Q597 496 635 497T706 484ZM623 543Q619 539 616 536T607 530Q600 528 594 535Q586 529 580 528Q566 525 560 537V538Q556 534 552 531T542 525Q535 522 530 530Q527
536 528 541T532 551T536 562T537 572Q529 569 526 564T521 552T518 538T514 525Q511 517 502 521Q499 522 499 526Q499 528 499 530T500 534Q493 532 491 532T483 527Q478 522 472 518T458 514Q453 515 450 518T445 525Q437 517 426 510T404 504Q397 505 392 512Q387
507 382 502T369 495Q355 490 353 505Q351 517 357 525T367 543Q368 545 366 545T363 544Q359 535 354 524T343 503T327 487T304 481Q290 482 288 491T290 513T304 534T324 545Q330 545 332 540Q336 534 333 527Q330 516 321 508T300 498Q301 492 305 492T313 493T321
498T327 503Q338 513 343 524T353 548Q355 551 349 560T345 575Q349 588 361 586Q366 586 368 580Q370 575 370 569T368 558Q378 559 382 558T380 545Q376 537 372 529T366 512Q366 508 370 508Q380 507 386 516T397 538T408 562T420 578Q423 579 427 577Q430 574
428 571Q426 566 424 562T423 551Q425 545 428 539T431 526H432Q437 532 440 539T447 554T455 568T468 578Q485 585 491 569Q495 562 494 557T493 544Q497 545 500 548Q507 554 508 564T512 583Q513 586 516 586T523 586Q527 584 526 580V579Q531 584 537 587Q547
591 551 581Q553 575 552 570T548 560T543 550T542 539Q555 549 561 564T581 589Q591 595 605 589Q607 593 613 593T618 587Q616 578 611 569T606 550Q606 544 610 548Q619 557 624 570T633 596T644 621T664 641Q671 644 675 637Q681 626 677 615T666 595Q663 591
657 586T646 575T637 563T635 551Q637 543 645 545Q652 547 655 553T662 565Q665 568 668 566Q672 566 672 562L670 556Q662 538 645 531Q633 525 625 538Q623 540 623 543ZM831 511Q808 533 780 546T720 568Q719 542 719 516T716 463L715 464V461Q703 460 686
459T651 455T619 446T596 427Q593 424 598 423Q623 413 653 415T710 415Q737 413 764 406Q778 402 788 395T810 382Q810 411 801 431T763 463Q779 477 795 490T831 511ZM144 472Q116 465 90 455T38 430Q54 420 66 408T88 380Q89 378 87 372T80 359T73 346T68 337Q63
326 58 315T49 293Q72 305 97 311T147 320T198 327T248 339Q240 348 227 351T198 354T167 354T142 351Q142 381 142 411T144 472ZM362 208Q362 212 358 218H384Q397 212 408 194T424 163Q424 175 425 191T419 218H454Q449 213 449 207T449 193V79Q449 72 449 64T454
51H358Q363 57 364 67T365 88T363 109T362 127V208ZM313 218Q331 218 339 209T349 185T351 155T350 127V91Q350 68 338 59T305 51Q287 51 279 60T268 84T266 114T267 142Q267 151 267 160T267 178Q267 201 279 209T313 218ZM263 573Q269 573 272 572Q289 570 291
551Q294 531 281 513T250 483Q241 477 237 468T228 450T219 433T203 419Q192 412 178 415Q164 418 166 433Q166 443 173 450T190 459Q192 460 196 459T199 452Q193 448 188 448Q183 446 181 441T182 430Q184 428 190 426Q199 425 205 431T215 447T222 466T226 482Q212
470 198 466Q185 464 177 471Q169 476 169 488Q169 501 175 512Q189 541 216 558Q226 564 240 569Q245 571 250 574T260 579Q264 579 264 574L263 573ZM361 329Q359 336 356 347T352 369T353 391T363 406Q368 410 378 410T391 403Q394 395 391 393T382 391T374
395T374 402Q366 398 366 389T369 368T376 347T383 331Q389 314 391 291T382 251Q377 244 366 242T343 240T318 241T299 243Q304 250 305 260T307 282T305 305T304 324V382Q304 390 304 396T299 410H334Q328 404 328 395T329 377V312Q329 304 329 289T333 267Q337
262 342 262T351 263T359 270T364 279Q367 291 365 304T361 329ZM556 351Q554 347 550 337T541 316T535 295T539 282Q537 288 542 288T552 287T558 280T550 272Q539 267 534 276T530 293Q530 300 533 308T537 322T535 333T521 336V263Q529 263 541 262T561 267Q559
261 558 255T554 243H490Q495 248 495 254T495 268V382Q495 389 495 396T490 410H549Q560 398 560 382T556 351ZM473 405Q473 399 476 392T482 377T485 364T477 351Q471 346 462 346T452 357Q452 362 455 364T462 367T469 365T471 358Q477 359 477 364T474 374T465
383T457 389Q450 391 442 390T430 381Q424 369 428 361T440 346T457 333T472 320Q479 311 482 298T485 274T476 253T453 243Q440 242 428 242T403 243Q407 244 406 251T402 267T398 285T400 299Q405 305 415 306T428 296Q428 291 425 289T418 286T411 288T408 295Q402
293 402 289T405 279T414 269T422 264Q428 262 437 262T452 268Q462 278 460 287T451 304T434 318T419 330Q411 337 406 349T400 374T406 396T426 409Q438 411 451 411T476 410L473 405ZM134 -12L115 -116H95Q92 -99 90 -82T85 -47Q83 -64 80 -81T74 -116H54L36
-12H57Q59 -31 61 -50T66 -89Q68 -69 71 -50T77 -12H95L106 -89Q109 -49 115 -12H134ZM235 -12L216 -116H196Q193 -99 191 -82T186 -47Q184 -64 181 -81T175 -116H155L137 -12H158Q160 -31 162 -50T167 -89Q169 -69 172 -50T178 -12H196L207 -89Q210 -49 216 -12H235ZM336
-12L317 -116H297Q294 -99 292 -82T287 -47Q285 -64 282 -81T276 -116H256L238 -12H259Q261 -31 263 -50T268 -89Q270 -69 273 -50T279 -12H297L308 -89Q311 -49 317 -12H336ZM515 -67Q522 -70 525 -76T529 -89T532 -103T536 -116H512Q509 -111 508 -104T505 -90T499
-79T487 -76V-116H463V-13Q476 -11 493 -10T521 -17Q536 -28 533 -44T515 -67ZM707 -116H683Q674 -98 666 -80T649 -44Q651 -62 651 -80T651 -116H629V-12H655L687 -82Q685 -65 685 -47T685 -12H707V-116ZM459 51Q464 58 465 68T467 90T465 113T464 132V190Q464
198 464 204T459 218H494Q489 213 488 204T486 184T488 163T489 147V71H537Q548 71 563 70T589 75Q587 71 586 61T579 51H459ZM450 -116H426L419 -92H395L390 -116H365L393 -12H423L450 -116ZM802 -112Q783 -119 766 -116T736 -103T721 -75T727 -38Q733 -24 746
-18T775 -11Q776 -11 780 -11T788 -12T796 -14T799 -16L795 -35Q783 -29 773 -31T756 -40T747 -57T748 -79Q754 -100 776 -98Q781 -97 780 -88T779 -75H767V-56H802V-112ZM541 135Q530 155 522 178Q518 189 516 200T505 218H542Q536 205 542 188T554 159Q560 173
565 188T565 218H602Q592 212 590 200T585 178Q582 169 574 156T566 133Q566 128 566 121T565 107T566 94T571 83H536Q544 91 543 107T541 135ZM325 178Q325 185 321 190T311 197T300 197T293 186Q292 180 292 173T293 160Q293 143 292 126T293 91Q293 84 297 79T307
72T317 72T324 83Q326 89 326 96T325 109V178ZM424 66Q423 95 415 125T388 179V72Q388 65 393 61T405 56T417 57T424 66ZM245 559Q232 556 221 548T200 530Q197 527 193 519T185 501T183 484T194 477Q208 477 217 486T231 509T240 536T245 559ZM549 -12H573V-116H549V-12ZM242
491Q249 493 256 500T267 516T274 534T274 551Q271 561 259 561Q253 544 250 526T242 491ZM521 357Q531 357 542 358T555 373Q556 388 544 389T521 390V357ZM599 575Q599 577 598 578Q598 584 592 582Q584 578 580 571T573 556Q571 551 573 544T584 542Q590 547
594 557T599 575ZM458 535Q461 526 469 531Q476 534 479 541T482 557Q481 562 478 565T467 563Q458 556 456 541L458 535ZM328 -103Q328 -96 332 -93T342 -89T351 -92T356 -103Q356 -110 352 -113T342 -117T333 -114T328 -103ZM587 -103Q587 -96 591 -93T601 -89T610
-92T615 -103Q615 -110 611 -113T601 -117T592 -114T587 -103ZM493 -58Q502 -58 505 -53T509 -43T503 -33T490 -29Q485 -30 486 -41T487 -58H493ZM417 -74Q415 -63 413 -53T407 -31L398 -74H417ZM411 542Q408 538 404 532T401 520Q403 514 409 515T416 522Q417
531 411 542ZM300 508Q305 507 313 515T322 528Q324 531 321 533T315 533Q310 528 307 522T300 508ZM665 627Q648 608 642 587Q650 596 657 605T666 627H665ZM359 562Q359 565 360 568T359 574Q357 574 356 571Q355 567 358 562H359Z" />
<glyph unicode="1" glyph-name="one" horiz-adv-x="878" d="M12 427Q44 444 76 458T143 483Q145 483 147 492T151 513T154 536T158 551Q168 566 189 575T226 591Q267 608 309 620T394 643Q438 654 481 661T570 673Q586 675 607 677T651 679T694 673T726 655Q728
653 726 642T723 626L720 581Q720 579 722 579Q759 568 793 552T850 504V503Q842 505 833 502T814 492T797 479T784 467Q798 459 806 445T819 414T823 380T817 349Q809 369 794 380T760 396T720 402T681 405Q661 407 638 406T595 412Q587 415 584 424T581 444T581
466T584 483Q499 477 416 458T252 410Q249 408 249 407Q250 402 252 391T257 368T260 346T257 332Q246 324 230 322T200 318Q182 316 164 313T127 307Q95 301 67 289Q60 286 54 283T40 275Q37 272 32 267T24 259Q29 275 35 290T48 320Q49 323 54 332T64 351T72
369T75 379Q64 395 48 410T12 427ZM706 484Q708 510 708 536T710 588Q711 602 711 615T714 641Q715 647 712 651T702 657T690 661T678 663Q622 671 563 663T449 644Q389 632 331 616T216 575Q205 570 194 565T174 551Q164 543 162 528T158 502Q154 471 154 441T154
379Q163 379 178 389T202 403Q219 411 237 417T272 429Q343 451 418 468Q454 476 490 482T563 493Q597 496 635 497T706 484ZM623 543Q619 539 616 536T607 530Q600 528 594 535Q586 529 580 528Q566 525 560 537V538Q556 534 552 531T542 525Q535 522 530 530Q527
536 528 541T532 551T536 562T537 572Q529 569 526 564T521 552T518 538T514 525Q511 517 502 521Q499 522 499 526Q499 528 499 530T500 534Q493 532 491 532T483 527Q478 522 472 518T458 514Q453 515 450 518T445 525Q437 517 426 510T404 504Q397 505 392 512Q387
507 382 502T369 495Q355 490 353 505Q351 517 357 525T367 543Q368 545 366 545T363 544Q359 535 354 524T343 503T327 487T304 481Q290 482 288 491T290 513T304 534T324 545Q330 545 332 540Q336 534 333 527Q330 516 321 508T300 498Q301 492 305 492T313 493T321
498T327 503Q338 513 343 524T353 548Q355 551 349 560T345 575Q349 588 361 586Q366 586 368 580Q370 575 370 569T368 558Q378 559 382 558T380 545Q376 537 372 529T366 512Q366 508 370 508Q380 507 386 516T397 538T408 562T420 578Q423 579 427 577Q430 574
428 571Q426 566 424 562T423 551Q425 545 428 539T431 526H432Q437 532 440 539T447 554T455 568T468 578Q485 585 491 569Q495 562 494 557T493 544Q497 545 500 548Q507 554 508 564T512 583Q513 586 516 586T523 586Q527 584 526 580V579Q531 584 537 587Q547
591 551 581Q553 575 552 570T548 560T543 550T542 539Q555 549 561 564T581 589Q591 595 605 589Q607 593 613 593T618 587Q616 578 611 569T606 550Q606 544 610 548Q619 557 624 570T633 596T644 621T664 641Q671 644 675 637Q681 626 677 615T666 595Q663 591
657 586T646 575T637 563T635 551Q637 543 645 545Q652 547 655 553T662 565Q665 568 668 566Q672 566 672 562L670 556Q662 538 645 531Q633 525 625 538Q623 540 623 543ZM831 511Q808 533 780 546T720 568Q719 542 719 516T716 463L715 464V461Q703 460 686
459T651 455T619 446T596 427Q593 424 598 423Q623 413 653 415T710 415Q737 413 764 406Q778 402 788 395T810 382Q810 411 801 431T763 463Q779 477 795 490T831 511ZM144 472Q116 465 90 455T38 430Q54 420 66 408T88 380Q89 378 87 372T80 359T73 346T68 337Q63
326 58 315T49 293Q72 305 97 311T147 320T198 327T248 339Q240 348 227 351T198 354T167 354T142 351Q142 381 142 411T144 472ZM362 208Q362 212 358 218H384Q397 212 408 194T424 163Q424 175 425 191T419 218H454Q449 213 449 207T449 193V79Q449 72 449 64T454
51H358Q363 57 364 67T365 88T363 109T362 127V208ZM313 218Q331 218 339 209T349 185T351 155T350 127V91Q350 68 338 59T305 51Q287 51 279 60T268 84T266 114T267 142Q267 151 267 160T267 178Q267 201 279 209T313 218ZM263 573Q269 573 272 572Q289 570 291
551Q294 531 281 513T250 483Q241 477 237 468T228 450T219 433T203 419Q192 412 178 415Q164 418 166 433Q166 443 173 450T190 459Q192 460 196 459T199 452Q193 448 188 448Q183 446 181 441T182 430Q184 428 190 426Q199 425 205 431T215 447T222 466T226 482Q212
470 198 466Q185 464 177 471Q169 476 169 488Q169 501 175 512Q189 541 216 558Q226 564 240 569Q245 571 250 574T260 579Q264 579 264 574L263 573ZM361 329Q359 336 356 347T352 369T353 391T363 406Q368 410 378 410T391 403Q394 395 391 393T382 391T374
395T374 402Q366 398 366 389T369 368T376 347T383 331Q389 314 391 291T382 251Q377 244 366 242T343 240T318 241T299 243Q304 250 305 260T307 282T305 305T304 324V382Q304 390 304 396T299 410H334Q328 404 328 395T329 377V312Q329 304 329 289T333 267Q337
262 342 262T351 263T359 270T364 279Q367 291 365 304T361 329ZM556 351Q554 347 550 337T541 316T535 295T539 282Q537 288 542 288T552 287T558 280T550 272Q539 267 534 276T530 293Q530 300 533 308T537 322T535 333T521 336V263Q529 263 541 262T561 267Q559
261 558 255T554 243H490Q495 248 495 254T495 268V382Q495 389 495 396T490 410H549Q560 398 560 382T556 351ZM473 405Q473 399 476 392T482 377T485 364T477 351Q471 346 462 346T452 357Q452 362 455 364T462 367T469 365T471 358Q477 359 477 364T474 374T465
383T457 389Q450 391 442 390T430 381Q424 369 428 361T440 346T457 333T472 320Q479 311 482 298T485 274T476 253T453 243Q440 242 428 242T403 243Q407 244 406 251T402 267T398 285T400 299Q405 305 415 306T428 296Q428 291 425 289T418 286T411 288T408 295Q402
293 402 289T405 279T414 269T422 264Q428 262 437 262T452 268Q462 278 460 287T451 304T434 318T419 330Q411 337 406 349T400 374T406 396T426 409Q438 411 451 411T476 410L473 405ZM134 -12L115 -116H95Q92 -99 90 -82T85 -47Q83 -64 80 -81T74 -116H54L36
-12H57Q59 -31 61 -50T66 -89Q68 -69 71 -50T77 -12H95L106 -89Q109 -49 115 -12H134ZM235 -12L216 -116H196Q193 -99 191 -82T186 -47Q184 -64 181 -81T175 -116H155L137 -12H158Q160 -31 162 -50T167 -89Q169 -69 172 -50T178 -12H196L207 -89Q210 -49 216 -12H235ZM336
-12L317 -116H297Q294 -99 292 -82T287 -47Q285 -64 282 -81T276 -116H256L238 -12H259Q261 -31 263 -50T268 -89Q270 -69 273 -50T279 -12H297L308 -89Q311 -49 317 -12H336ZM515 -67Q522 -70 525 -76T529 -89T532 -103T536 -116H512Q509 -111 508 -104T505 -90T499
-79T487 -76V-116H463V-13Q476 -11 493 -10T521 -17Q536 -28 533 -44T515 -67ZM707 -116H683Q674 -98 666 -80T649 -44Q651 -62 651 -80T651 -116H629V-12H655L687 -82Q685 -65 685 -47T685 -12H707V-116ZM459 51Q464 58 465 68T467 90T465 113T464 132V190Q464
198 464 204T459 218H494Q489 213 488 204T486 184T488 163T489 147V71H537Q548 71 563 70T589 75Q587 71 586 61T579 51H459ZM450 -116H426L419 -92H395L390 -116H365L393 -12H423L450 -116ZM802 -112Q783 -119 766 -116T736 -103T721 -75T727 -38Q733 -24 746
-18T775 -11Q776 -11 780 -11T788 -12T796 -14T799 -16L795 -35Q783 -29 773 -31T756 -40T747 -57T748 -79Q754 -100 776 -98Q781 -97 780 -88T779 -75H767V-56H802V-112ZM541 135Q530 155 522 178Q518 189 516 200T505 218H542Q536 205 542 188T554 159Q560 173
565 188T565 218H602Q592 212 590 200T585 178Q582 169 574 156T566 133Q566 128 566 121T565 107T566 94T571 83H536Q544 91 543 107T541 135ZM325 178Q325 185 321 190T311 197T300 197T293 186Q292 180 292 173T293 160Q293 143 292 126T293 91Q293 84 297 79T307
72T317 72T324 83Q326 89 326 96T325 109V178ZM424 66Q423 95 415 125T388 179V72Q388 65 393 61T405 56T417 57T424 66ZM245 559Q232 556 221 548T200 530Q197 527 193 519T185 501T183 484T194 477Q208 477 217 486T231 509T240 536T245 559ZM549 -12H573V-116H549V-12ZM242
491Q249 493 256 500T267 516T274 534T274 551Q271 561 259 561Q253 544 250 526T242 491ZM521 357Q531 357 542 358T555 373Q556 388 544 389T521 390V357ZM599 575Q599 577 598 578Q598 584 592 582Q584 578 580 571T573 556Q571 551 573 544T584 542Q590 547
594 557T599 575ZM458 535Q461 526 469 531Q476 534 479 541T482 557Q481 562 478 565T467 563Q458 556 456 541L458 535ZM328 -103Q328 -96 332 -93T342 -89T351 -92T356 -103Q356 -110 352 -113T342 -117T333 -114T328 -103ZM587 -103Q587 -96 591 -93T601 -89T610
-92T615 -103Q615 -110 611 -113T601 -117T592 -114T587 -103ZM493 -58Q502 -58 505 -53T509 -43T503 -33T490 -29Q485 -30 486 -41T487 -58H493ZM417 -74Q415 -63 413 -53T407 -31L398 -74H417ZM411 542Q408 538 404 532T401 520Q403 514 409 515T416 522Q417
531 411 542ZM300 508Q305 507 313 515T322 528Q324 531 321 533T315 533Q310 528 307 522T300 508ZM665 627Q648 608 642 587Q650 596 657 605T666 627H665ZM359 562Q359 565 360 568T359 574Q357 574 356 571Q355 567 358 562H359Z" />
<glyph unicode="2" glyph-name="two" horiz-adv-x="878" d="M12 427Q44 444 76 458T143 483Q145 483 147 492T151 513T154 536T158 551Q168 566 189 575T226 591Q267 608 309 620T394 643Q438 654 481 661T570 673Q586 675 607 677T651 679T694 673T726 655Q728
653 726 642T723 626L720 581Q720 579 722 579Q759 568 793 552T850 504V503Q842 505 833 502T814 492T797 479T784 467Q798 459 806 445T819 414T823 380T817 349Q809 369 794 380T760 396T720 402T681 405Q661 407 638 406T595 412Q587 415 584 424T581 444T581
466T584 483Q499 477 416 458T252 410Q249 408 249 407Q250 402 252 391T257 368T260 346T257 332Q246 324 230 322T200 318Q182 316 164 313T127 307Q95 301 67 289Q60 286 54 283T40 275Q37 272 32 267T24 259Q29 275 35 290T48 320Q49 323 54 332T64 351T72
369T75 379Q64 395 48 410T12 427ZM706 484Q708 510 708 536T710 588Q711 602 711 615T714 641Q715 647 712 651T702 657T690 661T678 663Q622 671 563 663T449 644Q389 632 331 616T216 575Q205 570 194 565T174 551Q164 543 162 528T158 502Q154 471 154 441T154
379Q163 379 178 389T202 403Q219 411 237 417T272 429Q343 451 418 468Q454 476 490 482T563 493Q597 496 635 497T706 484ZM623 543Q619 539 616 536T607 530Q600 528 594 535Q586 529 580 528Q566 525 560 537V538Q556 534 552 531T542 525Q535 522 530 530Q527
536 528 541T532 551T536 562T537 572Q529 569 526 564T521 552T518 538T514 525Q511 517 502 521Q499 522 499 526Q499 528 499 530T500 534Q493 532 491 532T483 527Q478 522 472 518T458 514Q453 515 450 518T445 525Q437 517 426 510T404 504Q397 505 392 512Q387
507 382 502T369 495Q355 490 353 505Q351 517 357 525T367 543Q368 545 366 545T363 544Q359 535 354 524T343 503T327 487T304 481Q290 482 288 491T290 513T304 534T324 545Q330 545 332 540Q336 534 333 527Q330 516 321 508T300 498Q301 492 305 492T313 493T321
498T327 503Q338 513 343 524T353 548Q355 551 349 560T345 575Q349 588 361 586Q366 586 368 580Q370 575 370 569T368 558Q378 559 382 558T380 545Q376 537 372 529T366 512Q366 508 370 508Q380 507 386 516T397 538T408 562T420 578Q423 579 427 577Q430 574
428 571Q426 566 424 562T423 551Q425 545 428 539T431 526H432Q437 532 440 539T447 554T455 568T468 578Q485 585 491 569Q495 562 494 557T493 544Q497 545 500 548Q507 554 508 564T512 583Q513 586 516 586T523 586Q527 584 526 580V579Q531 584 537 587Q547
591 551 581Q553 575 552 570T548 560T543 550T542 539Q555 549 561 564T581 589Q591 595 605 589Q607 593 613 593T618 587Q616 578 611 569T606 550Q606 544 610 548Q619 557 624 570T633 596T644 621T664 641Q671 644 675 637Q681 626 677 615T666 595Q663 591
657 586T646 575T637 563T635 551Q637 543 645 545Q652 547 655 553T662 565Q665 568 668 566Q672 566 672 562L670 556Q662 538 645 531Q633 525 625 538Q623 540 623 543ZM831 511Q808 533 780 546T720 568Q719 542 719 516T716 463L715 464V461Q703 460 686
459T651 455T619 446T596 427Q593 424 598 423Q623 413 653 415T710 415Q737 413 764 406Q778 402 788 395T810 382Q810 411 801 431T763 463Q779 477 795 490T831 511ZM144 472Q116 465 90 455T38 430Q54 420 66 408T88 380Q89 378 87 372T80 359T73 346T68 337Q63
326 58 315T49 293Q72 305 97 311T147 320T198 327T248 339Q240 348 227 351T198 354T167 354T142 351Q142 381 142 411T144 472ZM362 208Q362 212 358 218H384Q397 212 408 194T424 163Q424 175 425 191T419 218H454Q449 213 449 207T449 193V79Q449 72 449 64T454
51H358Q363 57 364 67T365 88T363 109T362 127V208ZM313 218Q331 218 339 209T349 185T351 155T350 127V91Q350 68 338 59T305 51Q287 51 279 60T268 84T266 114T267 142Q267 151 267 160T267 178Q267 201 279 209T313 218ZM263 573Q269 573 272 572Q289 570 291
551Q294 531 281 513T250 483Q241 477 237 468T228 450T219 433T203 419Q192 412 178 415Q164 418 166 433Q166 443 173 450T190 459Q192 460 196 459T199 452Q193 448 188 448Q183 446 181 441T182 430Q184 428 190 426Q199 425 205 431T215 447T222 466T226 482Q212
470 198 466Q185 464 177 471Q169 476 169 488Q169 501 175 512Q189 541 216 558Q226 564 240 569Q245 571 250 574T260 579Q264 579 264 574L263 573ZM361 329Q359 336 356 347T352 369T353 391T363 406Q368 410 378 410T391 403Q394 395 391 393T382 391T374
395T374 402Q366 398 366 389T369 368T376 347T383 331Q389 314 391 291T382 251Q377 244 366 242T343 240T318 241T299 243Q304 250 305 260T307 282T305 305T304 324V382Q304 390 304 396T299 410H334Q328 404 328 395T329 377V312Q329 304 329 289T333 267Q337
262 342 262T351 263T359 270T364 279Q367 291 365 304T361 329ZM556 351Q554 347 550 337T541 316T535 295T539 282Q537 288 542 288T552 287T558 280T550 272Q539 267 534 276T530 293Q530 300 533 308T537 322T535 333T521 336V263Q529 263 541 262T561 267Q559
261 558 255T554 243H490Q495 248 495 254T495 268V382Q495 389 495 396T490 410H549Q560 398 560 382T556 351ZM473 405Q473 399 476 392T482 377T485 364T477 351Q471 346 462 346T452 357Q452 362 455 364T462 367T469 365T471 358Q477 359 477 364T474 374T465
383T457 389Q450 391 442 390T430 381Q424 369 428 361T440 346T457 333T472 320Q479 311 482 298T485 274T476 253T453 243Q440 242 428 242T403 243Q407 244 406 251T402 267T398 285T400 299Q405 305 415 306T428 296Q428 291 425 289T418 286T411 288T408 295Q402
293 402 289T405 279T414 269T422 264Q428 262 437 262T452 268Q462 278 460 287T451 304T434 318T419 330Q411 337 406 349T400 374T406 396T426 409Q438 411 451 411T476 410L473 405ZM134 -12L115 -116H95Q92 -99 90 -82T85 -47Q83 -64 80 -81T74 -116H54L36
-12H57Q59 -31 61 -50T66 -89Q68 -69 71 -50T77 -12H95L106 -89Q109 -49 115 -12H134ZM235 -12L216 -116H196Q193 -99 191 -82T186 -47Q184 -64 181 -81T175 -116H155L137 -12H158Q160 -31 162 -50T167 -89Q169 -69 172 -50T178 -12H196L207 -89Q210 -49 216 -12H235ZM336
-12L317 -116H297Q294 -99 292 -82T287 -47Q285 -64 282 -81T276 -116H256L238 -12H259Q261 -31 263 -50T268 -89Q270 -69 273 -50T279 -12H297L308 -89Q311 -49 317 -12H336ZM515 -67Q522 -70 525 -76T529 -89T532 -103T536 -116H512Q509 -111 508 -104T505 -90T499
-79T487 -76V-116H463V-13Q476 -11 493 -10T521 -17Q536 -28 533 -44T515 -67ZM707 -116H683Q674 -98 666 -80T649 -44Q651 -62 651 -80T651 -116H629V-12H655L687 -82Q685 -65 685 -47T685 -12H707V-116ZM459 51Q464 58 465 68T467 90T465 113T464 132V190Q464
198 464 204T459 218H494Q489 213 488 204T486 184T488 163T489 147V71H537Q548 71 563 70T589 75Q587 71 586 61T579 51H459ZM450 -116H426L419 -92H395L390 -116H365L393 -12H423L450 -116ZM802 -112Q783 -119 766 -116T736 -103T721 -75T727 -38Q733 -24 746
-18T775 -11Q776 -11 780 -11T788 -12T796 -14T799 -16L795 -35Q783 -29 773 -31T756 -40T747 -57T748 -79Q754 -100 776 -98Q781 -97 780 -88T779 -75H767V-56H802V-112ZM541 135Q530 155 522 178Q518 189 516 200T505 218H542Q536 205 542 188T554 159Q560 173
565 188T565 218H602Q592 212 590 200T585 178Q582 169 574 156T566 133Q566 128 566 121T565 107T566 94T571 83H536Q544 91 543 107T541 135ZM325 178Q325 185 321 190T311 197T300 197T293 186Q292 180 292 173T293 160Q293 143 292 126T293 91Q293 84 297 79T307
72T317 72T324 83Q326 89 326 96T325 109V178ZM424 66Q423 95 415 125T388 179V72Q388 65 393 61T405 56T417 57T424 66ZM245 559Q232 556 221 548T200 530Q197 527 193 519T185 501T183 484T194 477Q208 477 217 486T231 509T240 536T245 559ZM549 -12H573V-116H549V-12ZM242
491Q249 493 256 500T267 516T274 534T274 551Q271 561 259 561Q253 544 250 526T242 491ZM521 357Q531 357 542 358T555 373Q556 388 544 389T521 390V357ZM599 575Q599 577 598 578Q598 584 592 582Q584 578 580 571T573 556Q571 551 573 544T584 542Q590 547
594 557T599 575ZM458 535Q461 526 469 531Q476 534 479 541T482 557Q481 562 478 565T467 563Q458 556 456 541L458 535ZM328 -103Q328 -96 332 -93T342 -89T351 -92T356 -103Q356 -110 352 -113T342 -117T333 -114T328 -103ZM587 -103Q587 -96 591 -93T601 -89T610
-92T615 -103Q615 -110 611 -113T601 -117T592 -114T587 -103ZM493 -58Q502 -58 505 -53T509 -43T503 -33T490 -29Q485 -30 486 -41T487 -58H493ZM417 -74Q415 -63 413 -53T407 -31L398 -74H417ZM411 542Q408 538 404 532T401 520Q403 514 409 515T416 522Q417
531 411 542ZM300 508Q305 507 313 515T322 528Q324 531 321 533T315 533Q310 528 307 522T300 508ZM665 627Q648 608 642 587Q650 596 657 605T666 627H665ZM359 562Q359 565 360 568T359 574Q357 574 356 571Q355 567 358 562H359Z" />
<glyph unicode="3" glyph-name="three" horiz-adv-x="878" d="M12 427Q44 444 76 458T143 483Q145 483 147 492T151 513T154 536T158 551Q168 566 189 575T226 591Q267 608 309 620T394 643Q438 654 481 661T570 673Q586 675 607 677T651 679T694 673T726 655Q728
653 726 642T723 626L720 581Q720 579 722 579Q759 568 793 552T850 504V503Q842 505 833 502T814 492T797 479T784 467Q798 459 806 445T819 414T823 380T817 349Q809 369 794 380T760 396T720 402T681 405Q661 407 638 406T595 412Q587 415 584 424T581 444T581
466T584 483Q499 477 416 458T252 410Q249 408 249 407Q250 402 252 391T257 368T260 346T257 332Q246 324 230 322T200 318Q182 316 164 313T127 307Q95 301 67 289Q60 286 54 283T40 275Q37 272 32 267T24 259Q29 275 35 290T48 320Q49 323 54 332T64 351T72
369T75 379Q64 395 48 410T12 427ZM706 484Q708 510 708 536T710 588Q711 602 711 615T714 641Q715 647 712 651T702 657T690 661T678 663Q622 671 563 663T449 644Q389 632 331 616T216 575Q205 570 194 565T174 551Q164 543 162 528T158 502Q154 471 154 441T154
379Q163 379 178 389T202 403Q219 411 237 417T272 429Q343 451 418 468Q454 476 490 482T563 493Q597 496 635 497T706 484ZM623 543Q619 539 616 536T607 530Q600 528 594 535Q586 529 580 528Q566 525 560 537V538Q556 534 552 531T542 525Q535 522 530 530Q527
536 528 541T532 551T536 562T537 572Q529 569 526 564T521 552T518 538T514 525Q511 517 502 521Q499 522 499 526Q499 528 499 530T500 534Q493 532 491 532T483 527Q478 522 472 518T458 514Q453 515 450 518T445 525Q437 517 426 510T404 504Q397 505 392 512Q387
507 382 502T369 495Q355 490 353 505Q351 517 357 525T367 543Q368 545 366 545T363 544Q359 535 354 524T343 503T327 487T304 481Q290 482 288 491T290 513T304 534T324 545Q330 545 332 540Q336 534 333 527Q330 516 321 508T300 498Q301 492 305 492T313 493T321
498T327 503Q338 513 343 524T353 548Q355 551 349 560T345 575Q349 588 361 586Q366 586 368 580Q370 575 370 569T368 558Q378 559 382 558T380 545Q376 537 372 529T366 512Q366 508 370 508Q380 507 386 516T397 538T408 562T420 578Q423 579 427 577Q430 574
428 571Q426 566 424 562T423 551Q425 545 428 539T431 526H432Q437 532 440 539T447 554T455 568T468 578Q485 585 491 569Q495 562 494 557T493 544Q497 545 500 548Q507 554 508 564T512 583Q513 586 516 586T523 586Q527 584 526 580V579Q531 584 537 587Q547
591 551 581Q553 575 552 570T548 560T543 550T542 539Q555 549 561 564T581 589Q591 595 605 589Q607 593 613 593T618 587Q616 578 611 569T606 550Q606 544 610 548Q619 557 624 570T633 596T644 621T664 641Q671 644 675 637Q681 626 677 615T666 595Q663 591
657 586T646 575T637 563T635 551Q637 543 645 545Q652 547 655 553T662 565Q665 568 668 566Q672 566 672 562L670 556Q662 538 645 531Q633 525 625 538Q623 540 623 543ZM831 511Q808 533 780 546T720 568Q719 542 719 516T716 463L715 464V461Q703 460 686
459T651 455T619 446T596 427Q593 424 598 423Q623 413 653 415T710 415Q737 413 764 406Q778 402 788 395T810 382Q810 411 801 431T763 463Q779 477 795 490T831 511ZM144 472Q116 465 90 455T38 430Q54 420 66 408T88 380Q89 378 87 372T80 359T73 346T68 337Q63
326 58 315T49 293Q72 305 97 311T147 320T198 327T248 339Q240 348 227 351T198 354T167 354T142 351Q142 381 142 411T144 472ZM362 208Q362 212 358 218H384Q397 212 408 194T424 163Q424 175 425 191T419 218H454Q449 213 449 207T449 193V79Q449 72 449 64T454
51H358Q363 57 364 67T365 88T363 109T362 127V208ZM313 218Q331 218 339 209T349 185T351 155T350 127V91Q350 68 338 59T305 51Q287 51 279 60T268 84T266 114T267 142Q267 151 267 160T267 178Q267 201 279 209T313 218ZM263 573Q269 573 272 572Q289 570 291
551Q294 531 281 513T250 483Q241 477 237 468T228 450T219 433T203 419Q192 412 178 415Q164 418 166 433Q166 443 173 450T190 459Q192 460 196 459T199 452Q193 448 188 448Q183 446 181 441T182 430Q184 428 190 426Q199 425 205 431T215 447T222 466T226 482Q212
470 198 466Q185 464 177 471Q169 476 169 488Q169 501 175 512Q189 541 216 558Q226 564 240 569Q245 571 250 574T260 579Q264 579 264 574L263 573ZM361 329Q359 336 356 347T352 369T353 391T363 406Q368 410 378 410T391 403Q394 395 391 393T382 391T374
395T374 402Q366 398 366 389T369 368T376 347T383 331Q389 314 391 291T382 251Q377 244 366 242T343 240T318 241T299 243Q304 250 305 260T307 282T305 305T304 324V382Q304 390 304 396T299 410H334Q328 404 328 395T329 377V312Q329 304 329 289T333 267Q337
262 342 262T351 263T359 270T364 279Q367 291 365 304T361 329ZM556 351Q554 347 550 337T541 316T535 295T539 282Q537 288 542 288T552 287T558 280T550 272Q539 267 534 276T530 293Q530 300 533 308T537 322T535 333T521 336V263Q529 263 541 262T561 267Q559
261 558 255T554 243H490Q495 248 495 254T495 268V382Q495 389 495 396T490 410H549Q560 398 560 382T556 351ZM473 405Q473 399 476 392T482 377T485 364T477 351Q471 346 462 346T452 357Q452 362 455 364T462 367T469 365T471 358Q477 359 477 364T474 374T465
383T457 389Q450 391 442 390T430 381Q424 369 428 361T440 346T457 333T472 320Q479 311 482 298T485 274T476 253T453 243Q440 242 428 242T403 243Q407 244 406 251T402 267T398 285T400 299Q405 305 415 306T428 296Q428 291 425 289T418 286T411 288T408 295Q402
293 402 289T405 279T414 269T422 264Q428 262 437 262T452 268Q462 278 460 287T451 304T434 318T419 330Q411 337 406 349T400 374T406 396T426 409Q438 411 451 411T476 410L473 405ZM134 -12L115 -116H95Q92 -99 90 -82T85 -47Q83 -64 80 -81T74 -116H54L36
-12H57Q59 -31 61 -50T66 -89Q68 -69 71 -50T77 -12H95L106 -89Q109 -49 115 -12H134ZM235 -12L216 -116H196Q193 -99 191 -82T186 -47Q184 -64 181 -81T175 -116H155L137 -12H158Q160 -31 162 -50T167 -89Q169 -69 172 -50T178 -12H196L207 -89Q210 -49 216 -12H235ZM336
-12L317 -116H297Q294 -99 292 -82T287 -47Q285 -64 282 -81T276 -116H256L238 -12H259Q261 -31 263 -50T268 -89Q270 -69 273 -50T279 -12H297L308 -89Q311 -49 317 -12H336ZM515 -67Q522 -70 525 -76T529 -89T532 -103T536 -116H512Q509 -111 508 -104T505 -90T499
-79T487 -76V-116H463V-13Q476 -11 493 -10T521 -17Q536 -28 533 -44T515 -67ZM707 -116H683Q674 -98 666 -80T649 -44Q651 -62 651 -80T651 -116H629V-12H655L687 -82Q685 -65 685 -47T685 -12H707V-116ZM459 51Q464 58 465 68T467 90T465 113T464 132V190Q464
198 464 204T459 218H494Q489 213 488 204T486 184T488 163T489 147V71H537Q548 71 563 70T589 75Q587 71 586 61T579 51H459ZM450 -116H426L419 -92H395L390 -116H365L393 -12H423L450 -116ZM802 -112Q783 -119 766 -116T736 -103T721 -75T727 -38Q733 -24 746
-18T775 -11Q776 -11 780 -11T788 -12T796 -14T799 -16L795 -35Q783 -29 773 -31T756 -40T747 -57T748 -79Q754 -100 776 -98Q781 -97 780 -88T779 -75H767V-56H802V-112ZM541 135Q530 155 522 178Q518 189 516 200T505 218H542Q536 205 542 188T554 159Q560 173
565 188T565 218H602Q592 212 590 200T585 178Q582 169 574 156T566 133Q566 128 566 121T565 107T566 94T571 83H536Q544 91 543 107T541 135ZM325 178Q325 185 321 190T311 197T300 197T293 186Q292 180 292 173T293 160Q293 143 292 126T293 91Q293 84 297 79T307
72T317 72T324 83Q326 89 326 96T325 109V178ZM424 66Q423 95 415 125T388 179V72Q388 65 393 61T405 56T417 57T424 66ZM245 559Q232 556 221 548T200 530Q197 527 193 519T185 501T183 484T194 477Q208 477 217 486T231 509T240 536T245 559ZM549 -12H573V-116H549V-12ZM242
491Q249 493 256 500T267 516T274 534T274 551Q271 561 259 561Q253 544 250 526T242 491ZM521 357Q531 357 542 358T555 373Q556 388 544 389T521 390V357ZM599 575Q599 577 598 578Q598 584 592 582Q584 578 580 571T573 556Q571 551 573 544T584 542Q590 547
594 557T599 575ZM458 535Q461 526 469 531Q476 534 479 541T482 557Q481 562 478 565T467 563Q458 556 456 541L458 535ZM328 -103Q328 -96 332 -93T342 -89T351 -92T356 -103Q356 -110 352 -113T342 -117T333 -114T328 -103ZM587 -103Q587 -96 591 -93T601 -89T610
-92T615 -103Q615 -110 611 -113T601 -117T592 -114T587 -103ZM493 -58Q502 -58 505 -53T509 -43T503 -33T490 -29Q485 -30 486 -41T487 -58H493ZM417 -74Q415 -63 413 -53T407 -31L398 -74H417ZM411 542Q408 538 404 532T401 520Q403 514 409 515T416 522Q417
531 411 542ZM300 508Q305 507 313 515T322 528Q324 531 321 533T315 533Q310 528 307 522T300 508ZM665 627Q648 608 642 587Q650 596 657 605T666 627H665ZM359 562Q359 565 360 568T359 574Q357 574 356 571Q355 567 358 562H359Z" />
<glyph unicode="4" glyph-name="four" horiz-adv-x="878" d="M12 427Q44 444 76 458T143 483Q145 483 147 492T151 513T154 536T158 551Q168 566 189 575T226 591Q267 608 309 620T394 643Q438 654 481 661T570 673Q586 675 607 677T651 679T694 673T726 655Q728
653 726 642T723 626L720 581Q720 579 722 579Q759 568 793 552T850 504V503Q842 505 833 502T814 492T797 479T784 467Q798 459 806 445T819 414T823 380T817 349Q809 369 794 380T760 396T720 402T681 405Q661 407 638 406T595 412Q587 415 584 424T581 444T581
466T584 483Q499 477 416 458T252 410Q249 408 249 407Q250 402 252 391T257 368T260 346T257 332Q246 324 230 322T200 318Q182 316 164 313T127 307Q95 301 67 289Q60 286 54 283T40 275Q37 272 32 267T24 259Q29 275 35 290T48 320Q49 323 54 332T64 351T72
369T75 379Q64 395 48 410T12 427ZM706 484Q708 510 708 536T710 588Q711 602 711 615T714 641Q715 647 712 651T702 657T690 661T678 663Q622 671 563 663T449 644Q389 632 331 616T216 575Q205 570 194 565T174 551Q164 543 162 528T158 502Q154 471 154 441T154
379Q163 379 178 389T202 403Q219 411 237 417T272 429Q343 451 418 468Q454 476 490 482T563 493Q597 496 635 497T706 484ZM623 543Q619 539 616 536T607 530Q600 528 594 535Q586 529 580 528Q566 525 560 537V538Q556 534 552 531T542 525Q535 522 530 530Q527
536 528 541T532 551T536 562T537 572Q529 569 526 564T521 552T518 538T514 525Q511 517 502 521Q499 522 499 526Q499 528 499 530T500 534Q493 532 491 532T483 527Q478 522 472 518T458 514Q453 515 450 518T445 525Q437 517 426 510T404 504Q397 505 392 512Q387
507 382 502T369 495Q355 490 353 505Q351 517 357 525T367 543Q368 545 366 545T363 544Q359 535 354 524T343 503T327 487T304 481Q290 482 288 491T290 513T304 534T324 545Q330 545 332 540Q336 534 333 527Q330 516 321 508T300 498Q301 492 305 492T313 493T321
498T327 503Q338 513 343 524T353 548Q355 551 349 560T345 575Q349 588 361 586Q366 586 368 580Q370 575 370 569T368 558Q378 559 382 558T380 545Q376 537 372 529T366 512Q366 508 370 508Q380 507 386 516T397 538T408 562T420 578Q423 579 427 577Q430 574
428 571Q426 566 424 562T423 551Q425 545 428 539T431 526H432Q437 532 440 539T447 554T455 568T468 578Q485 585 491 569Q495 562 494 557T493 544Q497 545 500 548Q507 554 508 564T512 583Q513 586 516 586T523 586Q527 584 526 580V579Q531 584 537 587Q547
591 551 581Q553 575 552 570T548 560T543 550T542 539Q555 549 561 564T581 589Q591 595 605 589Q607 593 613 593T618 587Q616 578 611 569T606 550Q606 544 610 548Q619 557 624 570T633 596T644 621T664 641Q671 644 675 637Q681 626 677 615T666 595Q663 591
657 586T646 575T637 563T635 551Q637 543 645 545Q652 547 655 553T662 565Q665 568 668 566Q672 566 672 562L670 556Q662 538 645 531Q633 525 625 538Q623 540 623 543ZM831 511Q808 533 780 546T720 568Q719 542 719 516T716 463L715 464V461Q703 460 686
459T651 455T619 446T596 427Q593 424 598 423Q623 413 653 415T710 415Q737 413 764 406Q778 402 788 395T810 382Q810 411 801 431T763 463Q779 477 795 490T831 511ZM144 472Q116 465 90 455T38 430Q54 420 66 408T88 380Q89 378 87 372T80 359T73 346T68 337Q63
326 58 315T49 293Q72 305 97 311T147 320T198 327T248 339Q240 348 227 351T198 354T167 354T142 351Q142 381 142 411T144 472ZM362 208Q362 212 358 218H384Q397 212 408 194T424 163Q424 175 425 191T419 218H454Q449 213 449 207T449 193V79Q449 72 449 64T454
51H358Q363 57 364 67T365 88T363 109T362 127V208ZM313 218Q331 218 339 209T349 185T351 155T350 127V91Q350 68 338 59T305 51Q287 51 279 60T268 84T266 114T267 142Q267 151 267 160T267 178Q267 201 279 209T313 218ZM263 573Q269 573 272 572Q289 570 291
551Q294 531 281 513T250 483Q241 477 237 468T228 450T219 433T203 419Q192 412 178 415Q164 418 166 433Q166 443 173 450T190 459Q192 460 196 459T199 452Q193 448 188 448Q183 446 181 441T182 430Q184 428 190 426Q199 425 205 431T215 447T222 466T226 482Q212
470 198 466Q185 464 177 471Q169 476 169 488Q169 501 175 512Q189 541 216 558Q226 564 240 569Q245 571 250 574T260 579Q264 579 264 574L263 573ZM361 329Q359 336 356 347T352 369T353 391T363 406Q368 410 378 410T391 403Q394 395 391 393T382 391T374
395T374 402Q366 398 366 389T369 368T376 347T383 331Q389 314 391 291T382 251Q377 244 366 242T343 240T318 241T299 243Q304 250 305 260T307 282T305 305T304 324V382Q304 390 304 396T299 410H334Q328 404 328 395T329 377V312Q329 304 329 289T333 267Q337
262 342 262T351 263T359 270T364 279Q367 291 365 304T361 329ZM556 351Q554 347 550 337T541 316T535 295T539 282Q537 288 542 288T552 287T558 280T550 272Q539 267 534 276T530 293Q530 300 533 308T537 322T535 333T521 336V263Q529 263 541 262T561 267Q559
261 558 255T554 243H490Q495 248 495 254T495 268V382Q495 389 495 396T490 410H549Q560 398 560 382T556 351ZM473 405Q473 399 476 392T482 377T485 364T477 351Q471 346 462 346T452 357Q452 362 455 364T462 367T469 365T471 358Q477 359 477 364T474 374T465
383T457 389Q450 391 442 390T430 381Q424 369 428 361T440 346T457 333T472 320Q479 311 482 298T485 274T476 253T453 243Q440 242 428 242T403 243Q407 244 406 251T402 267T398 285T400 299Q405 305 415 306T428 296Q428 291 425 289T418 286T411 288T408 295Q402
293 402 289T405 279T414 269T422 264Q428 262 437 262T452 268Q462 278 460 287T451 304T434 318T419 330Q411 337 406 349T400 374T406 396T426 409Q438 411 451 411T476 410L473 405ZM134 -12L115 -116H95Q92 -99 90 -82T85 -47Q83 -64 80 -81T74 -116H54L36
-12H57Q59 -31 61 -50T66 -89Q68 -69 71 -50T77 -12H95L106 -89Q109 -49 115 -12H134ZM235 -12L216 -116H196Q193 -99 191 -82T186 -47Q184 -64 181 -81T175 -116H155L137 -12H158Q160 -31 162 -50T167 -89Q169 -69 172 -50T178 -12H196L207 -89Q210 -49 216 -12H235ZM336
-12L317 -116H297Q294 -99 292 -82T287 -47Q285 -64 282 -81T276 -116H256L238 -12H259Q261 -31 263 -50T268 -89Q270 -69 273 -50T279 -12H297L308 -89Q311 -49 317 -12H336ZM515 -67Q522 -70 525 -76T529 -89T532 -103T536 -116H512Q509 -111 508 -104T505 -90T499
-79T487 -76V-116H463V-13Q476 -11 493 -10T521 -17Q536 -28 533 -44T515 -67ZM707 -116H683Q674 -98 666 -80T649 -44Q651 -62 651 -80T651 -116H629V-12H655L687 -82Q685 -65 685 -47T685 -12H707V-116ZM459 51Q464 58 465 68T467 90T465 113T464 132V190Q464
198 464 204T459 218H494Q489 213 488 204T486 184T488 163T489 147V71H537Q548 71 563 70T589 75Q587 71 586 61T579 51H459ZM450 -116H426L419 -92H395L390 -116H365L393 -12H423L450 -116ZM802 -112Q783 -119 766 -116T736 -103T721 -75T727 -38Q733 -24 746
-18T775 -11Q776 -11 780 -11T788 -12T796 -14T799 -16L795 -35Q783 -29 773 -31T756 -40T747 -57T748 -79Q754 -100 776 -98Q781 -97 780 -88T779 -75H767V-56H802V-112ZM541 135Q530 155 522 178Q518 189 516 200T505 218H542Q536 205 542 188T554 159Q560 173
565 188T565 218H602Q592 212 590 200T585 178Q582 169 574 156T566 133Q566 128 566 121T565 107T566 94T571 83H536Q544 91 543 107T541 135ZM325 178Q325 185 321 190T311 197T300 197T293 186Q292 180 292 173T293 160Q293 143 292 126T293 91Q293 84 297 79T307
72T317 72T324 83Q326 89 326 96T325 109V178ZM424 66Q423 95 415 125T388 179V72Q388 65 393 61T405 56T417 57T424 66ZM245 559Q232 556 221 548T200 530Q197 527 193 519T185 501T183 484T194 477Q208 477 217 486T231 509T240 536T245 559ZM549 -12H573V-116H549V-12ZM242
491Q249 493 256 500T267 516T274 534T274 551Q271 561 259 561Q253 544 250 526T242 491ZM521 357Q531 357 542 358T555 373Q556 388 544 389T521 390V357ZM599 575Q599 577 598 578Q598 584 592 582Q584 578 580 571T573 556Q571 551 573 544T584 542Q590 547
594 557T599 575ZM458 535Q461 526 469 531Q476 534 479 541T482 557Q481 562 478 565T467 563Q458 556 456 541L458 535ZM328 -103Q328 -96 332 -93T342 -89T351 -92T356 -103Q356 -110 352 -113T342 -117T333 -114T328 -103ZM587 -103Q587 -96 591 -93T601 -89T610
-92T615 -103Q615 -110 611 -113T601 -117T592 -114T587 -103ZM493 -58Q502 -58 505 -53T509 -43T503 -33T490 -29Q485 -30 486 -41T487 -58H493ZM417 -74Q415 -63 413 -53T407 -31L398 -74H417ZM411 542Q408 538 404 532T401 520Q403 514 409 515T416 522Q417
531 411 542ZM300 508Q305 507 313 515T322 528Q324 531 321 533T315 533Q310 528 307 522T300 508ZM665 627Q648 608 642 587Q650 596 657 605T666 627H665ZM359 562Q359 565 360 568T359 574Q357 574 356 571Q355 567 358 562H359Z" />
<glyph unicode="5" glyph-name="five" horiz-adv-x="878" d="M12 427Q44 444 76 458T143 483Q145 483 147 492T151 513T154 536T158 551Q168 566 189 575T226 591Q267 608 309 620T394 643Q438 654 481 661T570 673Q586 675 607 677T651 679T694 673T726 655Q728
653 726 642T723 626L720 581Q720 579 722 579Q759 568 793 552T850 504V503Q842 505 833 502T814 492T797 479T784 467Q798 459 806 445T819 414T823 380T817 349Q809 369 794 380T760 396T720 402T681 405Q661 407 638 406T595 412Q587 415 584 424T581 444T581
466T584 483Q499 477 416 458T252 410Q249 408 249 407Q250 402 252 391T257 368T260 346T257 332Q246 324 230 322T200 318Q182 316 164 313T127 307Q95 301 67 289Q60 286 54 283T40 275Q37 272 32 267T24 259Q29 275 35 290T48 320Q49 323 54 332T64 351T72
369T75 379Q64 395 48 410T12 427ZM706 484Q708 510 708 536T710 588Q711 602 711 615T714 641Q715 647 712 651T702 657T690 661T678 663Q622 671 563 663T449 644Q389 632 331 616T216 575Q205 570 194 565T174 551Q164 543 162 528T158 502Q154 471 154 441T154
379Q163 379 178 389T202 403Q219 411 237 417T272 429Q343 451 418 468Q454 476 490 482T563 493Q597 496 635 497T706 484ZM623 543Q619 539 616 536T607 530Q600 528 594 535Q586 529 580 528Q566 525 560 537V538Q556 534 552 531T542 525Q535 522 530 530Q527
536 528 541T532 551T536 562T537 572Q529 569 526 564T521 552T518 538T514 525Q511 517 502 521Q499 522 499 526Q499 528 499 530T500 534Q493 532 491 532T483 527Q478 522 472 518T458 514Q453 515 450 518T445 525Q437 517 426 510T404 504Q397 505 392 512Q387
507 382 502T369 495Q355 490 353 505Q351 517 357 525T367 543Q368 545 366 545T363 544Q359 535 354 524T343 503T327 487T304 481Q290 482 288 491T290 513T304 534T324 545Q330 545 332 540Q336 534 333 527Q330 516 321 508T300 498Q301 492 305 492T313 493T321
498T327 503Q338 513 343 524T353 548Q355 551 349 560T345 575Q349 588 361 586Q366 586 368 580Q370 575 370 569T368 558Q378 559 382 558T380 545Q376 537 372 529T366 512Q366 508 370 508Q380 507 386 516T397 538T408 562T420 578Q423 579 427 577Q430 574
428 571Q426 566 424 562T423 551Q425 545 428 539T431 526H432Q437 532 440 539T447 554T455 568T468 578Q485 585 491 569Q495 562 494 557T493 544Q497 545 500 548Q507 554 508 564T512 583Q513 586 516 586T523 586Q527 584 526 580V579Q531 584 537 587Q547
591 551 581Q553 575 552 570T548 560T543 550T542 539Q555 549 561 564T581 589Q591 595 605 589Q607 593 613 593T618 587Q616 578 611 569T606 550Q606 544 610 548Q619 557 624 570T633 596T644 621T664 641Q671 644 675 637Q681 626 677 615T666 595Q663 591
657 586T646 575T637 563T635 551Q637 543 645 545Q652 547 655 553T662 565Q665 568 668 566Q672 566 672 562L670 556Q662 538 645 531Q633 525 625 538Q623 540 623 543ZM831 511Q808 533 780 546T720 568Q719 542 719 516T716 463L715 464V461Q703 460 686
459T651 455T619 446T596 427Q593 424 598 423Q623 413 653 415T710 415Q737 413 764 406Q778 402 788 395T810 382Q810 411 801 431T763 463Q779 477 795 490T831 511ZM144 472Q116 465 90 455T38 430Q54 420 66 408T88 380Q89 378 87 372T80 359T73 346T68 337Q63
326 58 315T49 293Q72 305 97 311T147 320T198 327T248 339Q240 348 227 351T198 354T167 354T142 351Q142 381 142 411T144 472ZM362 208Q362 212 358 218H384Q397 212 408 194T424 163Q424 175 425 191T419 218H454Q449 213 449 207T449 193V79Q449 72 449 64T454
51H358Q363 57 364 67T365 88T363 109T362 127V208ZM313 218Q331 218 339 209T349 185T351 155T350 127V91Q350 68 338 59T305 51Q287 51 279 60T268 84T266 114T267 142Q267 151 267 160T267 178Q267 201 279 209T313 218ZM263 573Q269 573 272 572Q289 570 291
551Q294 531 281 513T250 483Q241 477 237 468T228 450T219 433T203 419Q192 412 178 415Q164 418 166 433Q166 443 173 450T190 459Q192 460 196 459T199 452Q193 448 188 448Q183 446 181 441T182 430Q184 428 190 426Q199 425 205 431T215 447T222 466T226 482Q212
470 198 466Q185 464 177 471Q169 476 169 488Q169 501 175 512Q189 541 216 558Q226 564 240 569Q245 571 250 574T260 579Q264 579 264 574L263 573ZM361 329Q359 336 356 347T352 369T353 391T363 406Q368 410 378 410T391 403Q394 395 391 393T382 391T374
395T374 402Q366 398 366 389T369 368T376 347T383 331Q389 314 391 291T382 251Q377 244 366 242T343 240T318 241T299 243Q304 250 305 260T307 282T305 305T304 324V382Q304 390 304 396T299 410H334Q328 404 328 395T329 377V312Q329 304 329 289T333 267Q337
262 342 262T351 263T359 270T364 279Q367 291 365 304T361 329ZM556 351Q554 347 550 337T541 316T535 295T539 282Q537 288 542 288T552 287T558 280T550 272Q539 267 534 276T530 293Q530 300 533 308T537 322T535 333T521 336V263Q529 263 541 262T561 267Q559
261 558 255T554 243H490Q495 248 495 254T495 268V382Q495 389 495 396T490 410H549Q560 398 560 382T556 351ZM473 405Q473 399 476 392T482 377T485 364T477 351Q471 346 462 346T452 357Q452 362 455 364T462 367T469 365T471 358Q477 359 477 364T474 374T465
383T457 389Q450 391 442 390T430 381Q424 369 428 361T440 346T457 333T472 320Q479 311 482 298T485 274T476 253T453 243Q440 242 428 242T403 243Q407 244 406 251T402 267T398 285T400 299Q405 305 415 306T428 296Q428 291 425 289T418 286T411 288T408 295Q402
293 402 289T405 279T414 269T422 264Q428 262 437 262T452 268Q462 278 460 287T451 304T434 318T419 330Q411 337 406 349T400 374T406 396T426 409Q438 411 451 411T476 410L473 405ZM134 -12L115 -116H95Q92 -99 90 -82T85 -47Q83 -64 80 -81T74 -116H54L36
-12H57Q59 -31 61 -50T66 -89Q68 -69 71 -50T77 -12H95L106 -89Q109 -49 115 -12H134ZM235 -12L216 -116H196Q193 -99 191 -82T186 -47Q184 -64 181 -81T175 -116H155L137 -12H158Q160 -31 162 -50T167 -89Q169 -69 172 -50T178 -12H196L207 -89Q210 -49 216 -12H235ZM336
-12L317 -116H297Q294 -99 292 -82T287 -47Q285 -64 282 -81T276 -116H256L238 -12H259Q261 -31 263 -50T268 -89Q270 -69 273 -50T279 -12H297L308 -89Q311 -49 317 -12H336ZM515 -67Q522 -70 525 -76T529 -89T532 -103T536 -116H512Q509 -111 508 -104T505 -90T499
-79T487 -76V-116H463V-13Q476 -11 493 -10T521 -17Q536 -28 533 -44T515 -67ZM707 -116H683Q674 -98 666 -80T649 -44Q651 -62 651 -80T651 -116H629V-12H655L687 -82Q685 -65 685 -47T685 -12H707V-116ZM459 51Q464 58 465 68T467 90T465 113T464 132V190Q464
198 464 204T459 218H494Q489 213 488 204T486 184T488 163T489 147V71H537Q548 71 563 70T589 75Q587 71 586 61T579 51H459ZM450 -116H426L419 -92H395L390 -116H365L393 -12H423L450 -116ZM802 -112Q783 -119 766 -116T736 -103T721 -75T727 -38Q733 -24 746
-18T775 -11Q776 -11 780 -11T788 -12T796 -14T799 -16L795 -35Q783 -29 773 -31T756 -40T747 -57T748 -79Q754 -100 776 -98Q781 -97 780 -88T779 -75H767V-56H802V-112ZM541 135Q530 155 522 178Q518 189 516 200T505 218H542Q536 205 542 188T554 159Q560 173
565 188T565 218H602Q592 212 590 200T585 178Q582 169 574 156T566 133Q566 128 566 121T565 107T566 94T571 83H536Q544 91 543 107T541 135ZM325 178Q325 185 321 190T311 197T300 197T293 186Q292 180 292 173T293 160Q293 143 292 126T293 91Q293 84 297 79T307
72T317 72T324 83Q326 89 326 96T325 109V178ZM424 66Q423 95 415 125T388 179V72Q388 65 393 61T405 56T417 57T424 66ZM245 559Q232 556 221 548T200 530Q197 527 193 519T185 501T183 484T194 477Q208 477 217 486T231 509T240 536T245 559ZM549 -12H573V-116H549V-12ZM242
491Q249 493 256 500T267 516T274 534T274 551Q271 561 259 561Q253 544 250 526T242 491ZM521 357Q531 357 542 358T555 373Q556 388 544 389T521 390V357ZM599 575Q599 577 598 578Q598 584 592 582Q584 578 580 571T573 556Q571 551 573 544T584 542Q590 547
594 557T599 575ZM458 535Q461 526 469 531Q476 534 479 541T482 557Q481 562 478 565T467 563Q458 556 456 541L458 535ZM328 -103Q328 -96 332 -93T342 -89T351 -92T356 -103Q356 -110 352 -113T342 -117T333 -114T328 -103ZM587 -103Q587 -96 591 -93T601 -89T610
-92T615 -103Q615 -110 611 -113T601 -117T592 -114T587 -103ZM493 -58Q502 -58 505 -53T509 -43T503 -33T490 -29Q485 -30 486 -41T487 -58H493ZM417 -74Q415 -63 413 -53T407 -31L398 -74H417ZM411 542Q408 538 404 532T401 520Q403 514 409 515T416 522Q417
531 411 542ZM300 508Q305 507 313 515T322 528Q324 531 321 533T315 533Q310 528 307 522T300 508ZM665 627Q648 608 642 587Q650 596 657 605T666 627H665ZM359 562Q359 565 360 568T359 574Q357 574 356 571Q355 567 358 562H359Z" />
<glyph unicode="6" glyph-name="six" horiz-adv-x="878" d="M12 427Q44 444 76 458T143 483Q145 483 147 492T151 513T154 536T158 551Q168 566 189 575T226 591Q267 608 309 620T394 643Q438 654 481 661T570 673Q586 675 607 677T651 679T694 673T726 655Q728
653 726 642T723 626L720 581Q720 579 722 579Q759 568 793 552T850 504V503Q842 505 833 502T814 492T797 479T784 467Q798 459 806 445T819 414T823 380T817 349Q809 369 794 380T760 396T720 402T681 405Q661 407 638 406T595 412Q587 415 584 424T581 444T581
466T584 483Q499 477 416 458T252 410Q249 408 249 407Q250 402 252 391T257 368T260 346T257 332Q246 324 230 322T200 318Q182 316 164 313T127 307Q95 301 67 289Q60 286 54 283T40 275Q37 272 32 267T24 259Q29 275 35 290T48 320Q49 323 54 332T64 351T72
369T75 379Q64 395 48 410T12 427ZM706 484Q708 510 708 536T710 588Q711 602 711 615T714 641Q715 647 712 651T702 657T690 661T678 663Q622 671 563 663T449 644Q389 632 331 616T216 575Q205 570 194 565T174 551Q164 543 162 528T158 502Q154 471 154 441T154
379Q163 379 178 389T202 403Q219 411 237 417T272 429Q343 451 418 468Q454 476 490 482T563 493Q597 496 635 497T706 484ZM623 543Q619 539 616 536T607 530Q600 528 594 535Q586 529 580 528Q566 525 560 537V538Q556 534 552 531T542 525Q535 522 530 530Q527
536 528 541T532 551T536 562T537 572Q529 569 526 564T521 552T518 538T514 525Q511 517 502 521Q499 522 499 526Q499 528 499 530T500 534Q493 532 491 532T483 527Q478 522 472 518T458 514Q453 515 450 518T445 525Q437 517 426 510T404 504Q397 505 392 512Q387
507 382 502T369 495Q355 490 353 505Q351 517 357 525T367 543Q368 545 366 545T363 544Q359 535 354 524T343 503T327 487T304 481Q290 482 288 491T290 513T304 534T324 545Q330 545 332 540Q336 534 333 527Q330 516 321 508T300 498Q301 492 305 492T313 493T321
498T327 503Q338 513 343 524T353 548Q355 551 349 560T345 575Q349 588 361 586Q366 586 368 580Q370 575 370 569T368 558Q378 559 382 558T380 545Q376 537 372 529T366 512Q366 508 370 508Q380 507 386 516T397 538T408 562T420 578Q423 579 427 577Q430 574
428 571Q426 566 424 562T423 551Q425 545 428 539T431 526H432Q437 532 440 539T447 554T455 568T468 578Q485 585 491 569Q495 562 494 557T493 544Q497 545 500 548Q507 554 508 564T512 583Q513 586 516 586T523 586Q527 584 526 580V579Q531 584 537 587Q547
591 551 581Q553 575 552 570T548 560T543 550T542 539Q555 549 561 564T581 589Q591 595 605 589Q607 593 613 593T618 587Q616 578 611 569T606 550Q606 544 610 548Q619 557 624 570T633 596T644 621T664 641Q671 644 675 637Q681 626 677 615T666 595Q663 591
657 586T646 575T637 563T635 551Q637 543 645 545Q652 547 655 553T662 565Q665 568 668 566Q672 566 672 562L670 556Q662 538 645 531Q633 525 625 538Q623 540 623 543ZM831 511Q808 533 780 546T720 568Q719 542 719 516T716 463L715 464V461Q703 460 686
459T651 455T619 446T596 427Q593 424 598 423Q623 413 653 415T710 415Q737 413 764 406Q778 402 788 395T810 382Q810 411 801 431T763 463Q779 477 795 490T831 511ZM144 472Q116 465 90 455T38 430Q54 420 66 408T88 380Q89 378 87 372T80 359T73 346T68 337Q63
326 58 315T49 293Q72 305 97 311T147 320T198 327T248 339Q240 348 227 351T198 354T167 354T142 351Q142 381 142 411T144 472ZM362 208Q362 212 358 218H384Q397 212 408 194T424 163Q424 175 425 191T419 218H454Q449 213 449 207T449 193V79Q449 72 449 64T454
51H358Q363 57 364 67T365 88T363 109T362 127V208ZM313 218Q331 218 339 209T349 185T351 155T350 127V91Q350 68 338 59T305 51Q287 51 279 60T268 84T266 114T267 142Q267 151 267 160T267 178Q267 201 279 209T313 218ZM263 573Q269 573 272 572Q289 570 291
551Q294 531 281 513T250 483Q241 477 237 468T228 450T219 433T203 419Q192 412 178 415Q164 418 166 433Q166 443 173 450T190 459Q192 460 196 459T199 452Q193 448 188 448Q183 446 181 441T182 430Q184 428 190 426Q199 425 205 431T215 447T222 466T226 482Q212
470 198 466Q185 464 177 471Q169 476 169 488Q169 501 175 512Q189 541 216 558Q226 564 240 569Q245 571 250 574T260 579Q264 579 264 574L263 573ZM361 329Q359 336 356 347T352 369T353 391T363 406Q368 410 378 410T391 403Q394 395 391 393T382 391T374
395T374 402Q366 398 366 389T369 368T376 347T383 331Q389 314 391 291T382 251Q377 244 366 242T343 240T318 241T299 243Q304 250 305 260T307 282T305 305T304 324V382Q304 390 304 396T299 410H334Q328 404 328 395T329 377V312Q329 304 329 289T333 267Q337
262 342 262T351 263T359 270T364 279Q367 291 365 304T361 329ZM556 351Q554 347 550 337T541 316T535 295T539 282Q537 288 542 288T552 287T558 280T550 272Q539 267 534 276T530 293Q530 300 533 308T537 322T535 333T521 336V263Q529 263 541 262T561 267Q559
261 558 255T554 243H490Q495 248 495 254T495 268V382Q495 389 495 396T490 410H549Q560 398 560 382T556 351ZM473 405Q473 399 476 392T482 377T485 364T477 351Q471 346 462 346T452 357Q452 362 455 364T462 367T469 365T471 358Q477 359 477 364T474 374T465
383T457 389Q450 391 442 390T430 381Q424 369 428 361T440 346T457 333T472 320Q479 311 482 298T485 274T476 253T453 243Q440 242 428 242T403 243Q407 244 406 251T402 267T398 285T400 299Q405 305 415 306T428 296Q428 291 425 289T418 286T411 288T408 295Q402
293 402 289T405 279T414 269T422 264Q428 262 437 262T452 268Q462 278 460 287T451 304T434 318T419 330Q411 337 406 349T400 374T406 396T426 409Q438 411 451 411T476 410L473 405ZM134 -12L115 -116H95Q92 -99 90 -82T85 -47Q83 -64 80 -81T74 -116H54L36
-12H57Q59 -31 61 -50T66 -89Q68 -69 71 -50T77 -12H95L106 -89Q109 -49 115 -12H134ZM235 -12L216 -116H196Q193 -99 191 -82T186 -47Q184 -64 181 -81T175 -116H155L137 -12H158Q160 -31 162 -50T167 -89Q169 -69 172 -50T178 -12H196L207 -89Q210 -49 216 -12H235ZM336
-12L317 -116H297Q294 -99 292 -82T287 -47Q285 -64 282 -81T276 -116H256L238 -12H259Q261 -31 263 -50T268 -89Q270 -69 273 -50T279 -12H297L308 -89Q311 -49 317 -12H336ZM515 -67Q522 -70 525 -76T529 -89T532 -103T536 -116H512Q509 -111 508 -104T505 -90T499
-79T487 -76V-116H463V-13Q476 -11 493 -10T521 -17Q536 -28 533 -44T515 -67ZM707 -116H683Q674 -98 666 -80T649 -44Q651 -62 651 -80T651 -116H629V-12H655L687 -82Q685 -65 685 -47T685 -12H707V-116ZM459 51Q464 58 465 68T467 90T465 113T464 132V190Q464
198 464 204T459 218H494Q489 213 488 204T486 184T488 163T489 147V71H537Q548 71 563 70T589 75Q587 71 586 61T579 51H459ZM450 -116H426L419 -92H395L390 -116H365L393 -12H423L450 -116ZM802 -112Q783 -119 766 -116T736 -103T721 -75T727 -38Q733 -24 746
-18T775 -11Q776 -11 780 -11T788 -12T796 -14T799 -16L795 -35Q783 -29 773 -31T756 -40T747 -57T748 -79Q754 -100 776 -98Q781 -97 780 -88T779 -75H767V-56H802V-112ZM541 135Q530 155 522 178Q518 189 516 200T505 218H542Q536 205 542 188T554 159Q560 173
565 188T565 218H602Q592 212 590 200T585 178Q582 169 574 156T566 133Q566 128 566 121T565 107T566 94T571 83H536Q544 91 543 107T541 135ZM325 178Q325 185 321 190T311 197T300 197T293 186Q292 180 292 173T293 160Q293 143 292 126T293 91Q293 84 297 79T307
72T317 72T324 83Q326 89 326 96T325 109V178ZM424 66Q423 95 415 125T388 179V72Q388 65 393 61T405 56T417 57T424 66ZM245 559Q232 556 221 548T200 530Q197 527 193 519T185 501T183 484T194 477Q208 477 217 486T231 509T240 536T245 559ZM549 -12H573V-116H549V-12ZM242
491Q249 493 256 500T267 516T274 534T274 551Q271 561 259 561Q253 544 250 526T242 491ZM521 357Q531 357 542 358T555 373Q556 388 544 389T521 390V357ZM599 575Q599 577 598 578Q598 584 592 582Q584 578 580 571T573 556Q571 551 573 544T584 542Q590 547
594 557T599 575ZM458 535Q461 526 469 531Q476 534 479 541T482 557Q481 562 478 565T467 563Q458 556 456 541L458 535ZM328 -103Q328 -96 332 -93T342 -89T351 -92T356 -103Q356 -110 352 -113T342 -117T333 -114T328 -103ZM587 -103Q587 -96 591 -93T601 -89T610
-92T615 -103Q615 -110 611 -113T601 -117T592 -114T587 -103ZM493 -58Q502 -58 505 -53T509 -43T503 -33T490 -29Q485 -30 486 -41T487 -58H493ZM417 -74Q415 -63 413 -53T407 -31L398 -74H417ZM411 542Q408 538 404 532T401 520Q403 514 409 515T416 522Q417
531 411 542ZM300 508Q305 507 313 515T322 528Q324 531 321 533T315 533Q310 528 307 522T300 508ZM665 627Q648 608 642 587Q650 596 657 605T666 627H665ZM359 562Q359 565 360 568T359 574Q357 574 356 571Q355 567 358 562H359Z" />
<glyph unicode="7" glyph-name="seven" horiz-adv-x="878" d="M12 427Q44 444 76 458T143 483Q145 483 147 492T151 513T154 536T158 551Q168 566 189 575T226 591Q267 608 309 620T394 643Q438 654 481 661T570 673Q586 675 607 677T651 679T694 673T726 655Q728
653 726 642T723 626L720 581Q720 579 722 579Q759 568 793 552T850 504V503Q842 505 833 502T814 492T797 479T784 467Q798 459 806 445T819 414T823 380T817 349Q809 369 794 380T760 396T720 402T681 405Q661 407 638 406T595 412Q587 415 584 424T581 444T581
466T584 483Q499 477 416 458T252 410Q249 408 249 407Q250 402 252 391T257 368T260 346T257 332Q246 324 230 322T200 318Q182 316 164 313T127 307Q95 301 67 289Q60 286 54 283T40 275Q37 272 32 267T24 259Q29 275 35 290T48 320Q49 323 54 332T64 351T72
369T75 379Q64 395 48 410T12 427ZM706 484Q708 510 708 536T710 588Q711 602 711 615T714 641Q715 647 712 651T702 657T690 661T678 663Q622 671 563 663T449 644Q389 632 331 616T216 575Q205 570 194 565T174 551Q164 543 162 528T158 502Q154 471 154 441T154
379Q163 379 178 389T202 403Q219 411 237 417T272 429Q343 451 418 468Q454 476 490 482T563 493Q597 496 635 497T706 484ZM623 543Q619 539 616 536T607 530Q600 528 594 535Q586 529 580 528Q566 525 560 537V538Q556 534 552 531T542 525Q535 522 530 530Q527
536 528 541T532 551T536 562T537 572Q529 569 526 564T521 552T518 538T514 525Q511 517 502 521Q499 522 499 526Q499 528 499 530T500 534Q493 532 491 532T483 527Q478 522 472 518T458 514Q453 515 450 518T445 525Q437 517 426 510T404 504Q397 505 392 512Q387
507 382 502T369 495Q355 490 353 505Q351 517 357 525T367 543Q368 545 366 545T363 544Q359 535 354 524T343 503T327 487T304 481Q290 482 288 491T290 513T304 534T324 545Q330 545 332 540Q336 534 333 527Q330 516 321 508T300 498Q301 492 305 492T313 493T321
498T327 503Q338 513 343 524T353 548Q355 551 349 560T345 575Q349 588 361 586Q366 586 368 580Q370 575 370 569T368 558Q378 559 382 558T380 545Q376 537 372 529T366 512Q366 508 370 508Q380 507 386 516T397 538T408 562T420 578Q423 579 427 577Q430 574
428 571Q426 566 424 562T423 551Q425 545 428 539T431 526H432Q437 532 440 539T447 554T455 568T468 578Q485 585 491 569Q495 562 494 557T493 544Q497 545 500 548Q507 554 508 564T512 583Q513 586 516 586T523 586Q527 584 526 580V579Q531 584 537 587Q547
591 551 581Q553 575 552 570T548 560T543 550T542 539Q555 549 561 564T581 589Q591 595 605 589Q607 593 613 593T618 587Q616 578 611 569T606 550Q606 544 610 548Q619 557 624 570T633 596T644 621T664 641Q671 644 675 637Q681 626 677 615T666 595Q663 591
657 586T646 575T637 563T635 551Q637 543 645 545Q652 547 655 553T662 565Q665 568 668 566Q672 566 672 562L670 556Q662 538 645 531Q633 525 625 538Q623 540 623 543ZM831 511Q808 533 780 546T720 568Q719 542 719 516T716 463L715 464V461Q703 460 686
459T651 455T619 446T596 427Q593 424 598 423Q623 413 653 415T710 415Q737 413 764 406Q778 402 788 395T810 382Q810 411 801 431T763 463Q779 477 795 490T831 511ZM144 472Q116 465 90 455T38 430Q54 420 66 408T88 380Q89 378 87 372T80 359T73 346T68 337Q63
326 58 315T49 293Q72 305 97 311T147 320T198 327T248 339Q240 348 227 351T198 354T167 354T142 351Q142 381 142 411T144 472ZM362 208Q362 212 358 218H384Q397 212 408 194T424 163Q424 175 425 191T419 218H454Q449 213 449 207T449 193V79Q449 72 449 64T454
51H358Q363 57 364 67T365 88T363 109T362 127V208ZM313 218Q331 218 339 209T349 185T351 155T350 127V91Q350 68 338 59T305 51Q287 51 279 60T268 84T266 114T267 142Q267 151 267 160T267 178Q267 201 279 209T313 218ZM263 573Q269 573 272 572Q289 570 291
551Q294 531 281 513T250 483Q241 477 237 468T228 450T219 433T203 419Q192 412 178 415Q164 418 166 433Q166 443 173 450T190 459Q192 460 196 459T199 452Q193 448 188 448Q183 446 181 441T182 430Q184 428 190 426Q199 425 205 431T215 447T222 466T226 482Q212
470 198 466Q185 464 177 471Q169 476 169 488Q169 501 175 512Q189 541 216 558Q226 564 240 569Q245 571 250 574T260 579Q264 579 264 574L263 573ZM361 329Q359 336 356 347T352 369T353 391T363 406Q368 410 378 410T391 403Q394 395 391 393T382 391T374
395T374 402Q366 398 366 389T369 368T376 347T383 331Q389 314 391 291T382 251Q377 244 366 242T343 240T318 241T299 243Q304 250 305 260T307 282T305 305T304 324V382Q304 390 304 396T299 410H334Q328 404 328 395T329 377V312Q329 304 329 289T333 267Q337
262 342 262T351 263T359 270T364 279Q367 291 365 304T361 329ZM556 351Q554 347 550 337T541 316T535 295T539 282Q537 288 542 288T552 287T558 280T550 272Q539 267 534 276T530 293Q530 300 533 308T537 322T535 333T521 336V263Q529 263 541 262T561 267Q559
261 558 255T554 243H490Q495 248 495 254T495 268V382Q495 389 495 396T490 410H549Q560 398 560 382T556 351ZM473 405Q473 399 476 392T482 377T485 364T477 351Q471 346 462 346T452 357Q452 362 455 364T462 367T469 365T471 358Q477 359 477 364T474 374T465
383T457 389Q450 391 442 390T430 381Q424 369 428 361T440 346T457 333T472 320Q479 311 482 298T485 274T476 253T453 243Q440 242 428 242T403 243Q407 244 406 251T402 267T398 285T400 299Q405 305 415 306T428 296Q428 291 425 289T418 286T411 288T408 295Q402
293 402 289T405 279T414 269T422 264Q428 262 437 262T452 268Q462 278 460 287T451 304T434 318T419 330Q411 337 406 349T400 374T406 396T426 409Q438 411 451 411T476 410L473 405ZM134 -12L115 -116H95Q92 -99 90 -82T85 -47Q83 -64 80 -81T74 -116H54L36
-12H57Q59 -31 61 -50T66 -89Q68 -69 71 -50T77 -12H95L106 -89Q109 -49 115 -12H134ZM235 -12L216 -116H196Q193 -99 191 -82T186 -47Q184 -64 181 -81T175 -116H155L137 -12H158Q160 -31 162 -50T167 -89Q169 -69 172 -50T178 -12H196L207 -89Q210 -49 216 -12H235ZM336
-12L317 -116H297Q294 -99 292 -82T287 -47Q285 -64 282 -81T276 -116H256L238 -12H259Q261 -31 263 -50T268 -89Q270 -69 273 -50T279 -12H297L308 -89Q311 -49 317 -12H336ZM515 -67Q522 -70 525 -76T529 -89T532 -103T536 -116H512Q509 -111 508 -104T505 -90T499
-79T487 -76V-116H463V-13Q476 -11 493 -10T521 -17Q536 -28 533 -44T515 -67ZM707 -116H683Q674 -98 666 -80T649 -44Q651 -62 651 -80T651 -116H629V-12H655L687 -82Q685 -65 685 -47T685 -12H707V-116ZM459 51Q464 58 465 68T467 90T465 113T464 132V190Q464
198 464 204T459 218H494Q489 213 488 204T486 184T488 163T489 147V71H537Q548 71 563 70T589 75Q587 71 586 61T579 51H459ZM450 -116H426L419 -92H395L390 -116H365L393 -12H423L450 -116ZM802 -112Q783 -119 766 -116T736 -103T721 -75T727 -38Q733 -24 746
-18T775 -11Q776 -11 780 -11T788 -12T796 -14T799 -16L795 -35Q783 -29 773 -31T756 -40T747 -57T748 -79Q754 -100 776 -98Q781 -97 780 -88T779 -75H767V-56H802V-112ZM541 135Q530 155 522 178Q518 189 516 200T505 218H542Q536 205 542 188T554 159Q560 173
565 188T565 218H602Q592 212 590 200T585 178Q582 169 574 156T566 133Q566 128 566 121T565 107T566 94T571 83H536Q544 91 543 107T541 135ZM325 178Q325 185 321 190T311 197T300 197T293 186Q292 180 292 173T293 160Q293 143 292 126T293 91Q293 84 297 79T307
72T317 72T324 83Q326 89 326 96T325 109V178ZM424 66Q423 95 415 125T388 179V72Q388 65 393 61T405 56T417 57T424 66ZM245 559Q232 556 221 548T200 530Q197 527 193 519T185 501T183 484T194 477Q208 477 217 486T231 509T240 536T245 559ZM549 -12H573V-116H549V-12ZM242
491Q249 493 256 500T267 516T274 534T274 551Q271 561 259 561Q253 544 250 526T242 491ZM521 357Q531 357 542 358T555 373Q556 388 544 389T521 390V357ZM599 575Q599 577 598 578Q598 584 592 582Q584 578 580 571T573 556Q571 551 573 544T584 542Q590 547
594 557T599 575ZM458 535Q461 526 469 531Q476 534 479 541T482 557Q481 562 478 565T467 563Q458 556 456 541L458 535ZM328 -103Q328 -96 332 -93T342 -89T351 -92T356 -103Q356 -110 352 -113T342 -117T333 -114T328 -103ZM587 -103Q587 -96 591 -93T601 -89T610
-92T615 -103Q615 -110 611 -113T601 -117T592 -114T587 -103ZM493 -58Q502 -58 505 -53T509 -43T503 -33T490 -29Q485 -30 486 -41T487 -58H493ZM417 -74Q415 -63 413 -53T407 -31L398 -74H417ZM411 542Q408 538 404 532T401 520Q403 514 409 515T416 522Q417
531 411 542ZM300 508Q305 507 313 515T322 528Q324 531 321 533T315 533Q310 528 307 522T300 508ZM665 627Q648 608 642 587Q650 596 657 605T666 627H665ZM359 562Q359 565 360 568T359 574Q357 574 356 571Q355 567 358 562H359Z" />
<glyph unicode="8" glyph-name="eight" horiz-adv-x="878" d="M12 427Q44 444 76 458T143 483Q145 483 147 492T151 513T154 536T158 551Q168 566 189 575T226 591Q267 608 309 620T394 643Q438 654 481 661T570 673Q586 675 607 677T651 679T694 673T726 655Q728
653 726 642T723 626L720 581Q720 579 722 579Q759 568 793 552T850 504V503Q842 505 833 502T814 492T797 479T784 467Q798 459 806 445T819 414T823 380T817 349Q809 369 794 380T760 396T720 402T681 405Q661 407 638 406T595 412Q587 415 584 424T581 444T581
466T584 483Q499 477 416 458T252 410Q249 408 249 407Q250 402 252 391T257 368T260 346T257 332Q246 324 230 322T200 318Q182 316 164 313T127 307Q95 301 67 289Q60 286 54 283T40 275Q37 272 32 267T24 259Q29 275 35 290T48 320Q49 323 54 332T64 351T72
369T75 379Q64 395 48 410T12 427ZM706 484Q708 510 708 536T710 588Q711 602 711 615T714 641Q715 647 712 651T702 657T690 661T678 663Q622 671 563 663T449 644Q389 632 331 616T216 575Q205 570 194 565T174 551Q164 543 162 528T158 502Q154 471 154 441T154
379Q163 379 178 389T202 403Q219 411 237 417T272 429Q343 451 418 468Q454 476 490 482T563 493Q597 496 635 497T706 484ZM623 543Q619 539 616 536T607 530Q600 528 594 535Q586 529 580 528Q566 525 560 537V538Q556 534 552 531T542 525Q535 522 530 530Q527
536 528 541T532 551T536 562T537 572Q529 569 526 564T521 552T518 538T514 525Q511 517 502 521Q499 522 499 526Q499 528 499 530T500 534Q493 532 491 532T483 527Q478 522 472 518T458 514Q453 515 450 518T445 525Q437 517 426 510T404 504Q397 505 392 512Q387
507 382 502T369 495Q355 490 353 505Q351 517 357 525T367 543Q368 545 366 545T363 544Q359 535 354 524T343 503T327 487T304 481Q290 482 288 491T290 513T304 534T324 545Q330 545 332 540Q336 534 333 527Q330 516 321 508T300 498Q301 492 305 492T313 493T321
498T327 503Q338 513 343 524T353 548Q355 551 349 560T345 575Q349 588 361 586Q366 586 368 580Q370 575 370 569T368 558Q378 559 382 558T380 545Q376 537 372 529T366 512Q366 508 370 508Q380 507 386 516T397 538T408 562T420 578Q423 579 427 577Q430 574
428 571Q426 566 424 562T423 551Q425 545 428 539T431 526H432Q437 532 440 539T447 554T455 568T468 578Q485 585 491 569Q495 562 494 557T493 544Q497 545 500 548Q507 554 508 564T512 583Q513 586 516 586T523 586Q527 584 526 580V579Q531 584 537 587Q547
591 551 581Q553 575 552 570T548 560T543 550T542 539Q555 549 561 564T581 589Q591 595 605 589Q607 593 613 593T618 587Q616 578 611 569T606 550Q606 544 610 548Q619 557 624 570T633 596T644 621T664 641Q671 644 675 637Q681 626 677 615T666 595Q663 591
657 586T646 575T637 563T635 551Q637 543 645 545Q652 547 655 553T662 565Q665 568 668 566Q672 566 672 562L670 556Q662 538 645 531Q633 525 625 538Q623 540 623 543ZM831 511Q808 533 780 546T720 568Q719 542 719 516T716 463L715 464V461Q703 460 686
459T651 455T619 446T596 427Q593 424 598 423Q623 413 653 415T710 415Q737 413 764 406Q778 402 788 395T810 382Q810 411 801 431T763 463Q779 477 795 490T831 511ZM144 472Q116 465 90 455T38 430Q54 420 66 408T88 380Q89 378 87 372T80 359T73 346T68 337Q63
326 58 315T49 293Q72 305 97 311T147 320T198 327T248 339Q240 348 227 351T198 354T167 354T142 351Q142 381 142 411T144 472ZM362 208Q362 212 358 218H384Q397 212 408 194T424 163Q424 175 425 191T419 218H454Q449 213 449 207T449 193V79Q449 72 449 64T454
51H358Q363 57 364 67T365 88T363 109T362 127V208ZM313 218Q331 218 339 209T349 185T351 155T350 127V91Q350 68 338 59T305 51Q287 51 279 60T268 84T266 114T267 142Q267 151 267 160T267 178Q267 201 279 209T313 218ZM263 573Q269 573 272 572Q289 570 291
551Q294 531 281 513T250 483Q241 477 237 468T228 450T219 433T203 419Q192 412 178 415Q164 418 166 433Q166 443 173 450T190 459Q192 460 196 459T199 452Q193 448 188 448Q183 446 181 441T182 430Q184 428 190 426Q199 425 205 431T215 447T222 466T226 482Q212
470 198 466Q185 464 177 471Q169 476 169 488Q169 501 175 512Q189 541 216 558Q226 564 240 569Q245 571 250 574T260 579Q264 579 264 574L263 573ZM361 329Q359 336 356 347T352 369T353 391T363 406Q368 410 378 410T391 403Q394 395 391 393T382 391T374
395T374 402Q366 398 366 389T369 368T376 347T383 331Q389 314 391 291T382 251Q377 244 366 242T343 240T318 241T299 243Q304 250 305 260T307 282T305 305T304 324V382Q304 390 304 396T299 410H334Q328 404 328 395T329 377V312Q329 304 329 289T333 267Q337
262 342 262T351 263T359 270T364 279Q367 291 365 304T361 329ZM556 351Q554 347 550 337T541 316T535 295T539 282Q537 288 542 288T552 287T558 280T550 272Q539 267 534 276T530 293Q530 300 533 308T537 322T535 333T521 336V263Q529 263 541 262T561 267Q559
261 558 255T554 243H490Q495 248 495 254T495 268V382Q495 389 495 396T490 410H549Q560 398 560 382T556 351ZM473 405Q473 399 476 392T482 377T485 364T477 351Q471 346 462 346T452 357Q452 362 455 364T462 367T469 365T471 358Q477 359 477 364T474 374T465
383T457 389Q450 391 442 390T430 381Q424 369 428 361T440 346T457 333T472 320Q479 311 482 298T485 274T476 253T453 243Q440 242 428 242T403 243Q407 244 406 251T402 267T398 285T400 299Q405 305 415 306T428 296Q428 291 425 289T418 286T411 288T408 295Q402
293 402 289T405 279T414 269T422 264Q428 262 437 262T452 268Q462 278 460 287T451 304T434 318T419 330Q411 337 406 349T400 374T406 396T426 409Q438 411 451 411T476 410L473 405ZM134 -12L115 -116H95Q92 -99 90 -82T85 -47Q83 -64 80 -81T74 -116H54L36
-12H57Q59 -31 61 -50T66 -89Q68 -69 71 -50T77 -12H95L106 -89Q109 -49 115 -12H134ZM235 -12L216 -116H196Q193 -99 191 -82T186 -47Q184 -64 181 -81T175 -116H155L137 -12H158Q160 -31 162 -50T167 -89Q169 -69 172 -50T178 -12H196L207 -89Q210 -49 216 -12H235ZM336
-12L317 -116H297Q294 -99 292 -82T287 -47Q285 -64 282 -81T276 -116H256L238 -12H259Q261 -31 263 -50T268 -89Q270 -69 273 -50T279 -12H297L308 -89Q311 -49 317 -12H336ZM515 -67Q522 -70 525 -76T529 -89T532 -103T536 -116H512Q509 -111 508 -104T505 -90T499
-79T487 -76V-116H463V-13Q476 -11 493 -10T521 -17Q536 -28 533 -44T515 -67ZM707 -116H683Q674 -98 666 -80T649 -44Q651 -62 651 -80T651 -116H629V-12H655L687 -82Q685 -65 685 -47T685 -12H707V-116ZM459 51Q464 58 465 68T467 90T465 113T464 132V190Q464
198 464 204T459 218H494Q489 213 488 204T486 184T488 163T489 147V71H537Q548 71 563 70T589 75Q587 71 586 61T579 51H459ZM450 -116H426L419 -92H395L390 -116H365L393 -12H423L450 -116ZM802 -112Q783 -119 766 -116T736 -103T721 -75T727 -38Q733 -24 746
-18T775 -11Q776 -11 780 -11T788 -12T796 -14T799 -16L795 -35Q783 -29 773 -31T756 -40T747 -57T748 -79Q754 -100 776 -98Q781 -97 780 -88T779 -75H767V-56H802V-112ZM541 135Q530 155 522 178Q518 189 516 200T505 218H542Q536 205 542 188T554 159Q560 173
565 188T565 218H602Q592 212 590 200T585 178Q582 169 574 156T566 133Q566 128 566 121T565 107T566 94T571 83H536Q544 91 543 107T541 135ZM325 178Q325 185 321 190T311 197T300 197T293 186Q292 180 292 173T293 160Q293 143 292 126T293 91Q293 84 297 79T307
72T317 72T324 83Q326 89 326 96T325 109V178ZM424 66Q423 95 415 125T388 179V72Q388 65 393 61T405 56T417 57T424 66ZM245 559Q232 556 221 548T200 530Q197 527 193 519T185 501T183 484T194 477Q208 477 217 486T231 509T240 536T245 559ZM549 -12H573V-116H549V-12ZM242
491Q249 493 256 500T267 516T274 534T274 551Q271 561 259 561Q253 544 250 526T242 491ZM521 357Q531 357 542 358T555 373Q556 388 544 389T521 390V357ZM599 575Q599 577 598 578Q598 584 592 582Q584 578 580 571T573 556Q571 551 573 544T584 542Q590 547
594 557T599 575ZM458 535Q461 526 469 531Q476 534 479 541T482 557Q481 562 478 565T467 563Q458 556 456 541L458 535ZM328 -103Q328 -96 332 -93T342 -89T351 -92T356 -103Q356 -110 352 -113T342 -117T333 -114T328 -103ZM587 -103Q587 -96 591 -93T601 -89T610
-92T615 -103Q615 -110 611 -113T601 -117T592 -114T587 -103ZM493 -58Q502 -58 505 -53T509 -43T503 -33T490 -29Q485 -30 486 -41T487 -58H493ZM417 -74Q415 -63 413 -53T407 -31L398 -74H417ZM411 542Q408 538 404 532T401 520Q403 514 409 515T416 522Q417
531 411 542ZM300 508Q305 507 313 515T322 528Q324 531 321 533T315 533Q310 528 307 522T300 508ZM665 627Q648 608 642 587Q650 596 657 605T666 627H665ZM359 562Q359 565 360 568T359 574Q357 574 356 571Q355 567 358 562H359Z" />
<glyph unicode="9" glyph-name="nine" horiz-adv-x="878" d="M12 427Q44 444 76 458T143 483Q145 483 147 492T151 513T154 536T158 551Q168 566 189 575T226 591Q267 608 309 620T394 643Q438 654 481 661T570 673Q586 675 607 677T651 679T694 673T726 655Q728
653 726 642T723 626L720 581Q720 579 722 579Q759 568 793 552T850 504V503Q842 505 833 502T814 492T797 479T784 467Q798 459 806 445T819 414T823 380T817 349Q809 369 794 380T760 396T720 402T681 405Q661 407 638 406T595 412Q587 415 584 424T581 444T581
466T584 483Q499 477 416 458T252 410Q249 408 249 407Q250 402 252 391T257 368T260 346T257 332Q246 324 230 322T200 318Q182 316 164 313T127 307Q95 301 67 289Q60 286 54 283T40 275Q37 272 32 267T24 259Q29 275 35 290T48 320Q49 323 54 332T64 351T72
369T75 379Q64 395 48 410T12 427ZM706 484Q708 510 708 536T710 588Q711 602 711 615T714 641Q715 647 712 651T702 657T690 661T678 663Q622 671 563 663T449 644Q389 632 331 616T216 575Q205 570 194 565T174 551Q164 543 162 528T158 502Q154 471 154 441T154
379Q163 379 178 389T202 403Q219 411 237 417T272 429Q343 451 418 468Q454 476 490 482T563 493Q597 496 635 497T706 484ZM623 543Q619 539 616 536T607 530Q600 528 594 535Q586 529 580 528Q566 525 560 537V538Q556 534 552 531T542 525Q535 522 530 530Q527
536 528 541T532 551T536 562T537 572Q529 569 526 564T521 552T518 538T514 525Q511 517 502 521Q499 522 499 526Q499 528 499 530T500 534Q493 532 491 532T483 527Q478 522 472 518T458 514Q453 515 450 518T445 525Q437 517 426 510T404 504Q397 505 392 512Q387
507 382 502T369 495Q355 490 353 505Q351 517 357 525T367 543Q368 545 366 545T363 544Q359 535 354 524T343 503T327 487T304 481Q290 482 288 491T290 513T304 534T324 545Q330 545 332 540Q336 534 333 527Q330 516 321 508T300 498Q301 492 305 492T313 493T321
498T327 503Q338 513 343 524T353 548Q355 551 349 560T345 575Q349 588 361 586Q366 586 368 580Q370 575 370 569T368 558Q378 559 382 558T380 545Q376 537 372 529T366 512Q366 508 370 508Q380 507 386 516T397 538T408 562T420 578Q423 579 427 577Q430 574
428 571Q426 566 424 562T423 551Q425 545 428 539T431 526H432Q437 532 440 539T447 554T455 568T468 578Q485 585 491 569Q495 562 494 557T493 544Q497 545 500 548Q507 554 508 564T512 583Q513 586 516 586T523 586Q527 584 526 580V579Q531 584 537 587Q547
591 551 581Q553 575 552 570T548 560T543 550T542 539Q555 549 561 564T581 589Q591 595 605 589Q607 593 613 593T618 587Q616 578 611 569T606 550Q606 544 610 548Q619 557 624 570T633 596T644 621T664 641Q671 644 675 637Q681 626 677 615T666 595Q663 591
657 586T646 575T637 563T635 551Q637 543 645 545Q652 547 655 553T662 565Q665 568 668 566Q672 566 672 562L670 556Q662 538 645 531Q633 525 625 538Q623 540 623 543ZM831 511Q808 533 780 546T720 568Q719 542 719 516T716 463L715 464V461Q703 460 686
459T651 455T619 446T596 427Q593 424 598 423Q623 413 653 415T710 415Q737 413 764 406Q778 402 788 395T810 382Q810 411 801 431T763 463Q779 477 795 490T831 511ZM144 472Q116 465 90 455T38 430Q54 420 66 408T88 380Q89 378 87 372T80 359T73 346T68 337Q63
326 58 315T49 293Q72 305 97 311T147 320T198 327T248 339Q240 348 227 351T198 354T167 354T142 351Q142 381 142 411T144 472ZM362 208Q362 212 358 218H384Q397 212 408 194T424 163Q424 175 425 191T419 218H454Q449 213 449 207T449 193V79Q449 72 449 64T454
51H358Q363 57 364 67T365 88T363 109T362 127V208ZM313 218Q331 218 339 209T349 185T351 155T350 127V91Q350 68 338 59T305 51Q287 51 279 60T268 84T266 114T267 142Q267 151 267 160T267 178Q267 201 279 209T313 218ZM263 573Q269 573 272 572Q289 570 291
551Q294 531 281 513T250 483Q241 477 237 468T228 450T219 433T203 419Q192 412 178 415Q164 418 166 433Q166 443 173 450T190 459Q192 460 196 459T199 452Q193 448 188 448Q183 446 181 441T182 430Q184 428 190 426Q199 425 205 431T215 447T222 466T226 482Q212
470 198 466Q185 464 177 471Q169 476 169 488Q169 501 175 512Q189 541 216 558Q226 564 240 569Q245 571 250 574T260 579Q264 579 264 574L263 573ZM361 329Q359 336 356 347T352 369T353 391T363 406Q368 410 378 410T391 403Q394 395 391 393T382 391T374
395T374 402Q366 398 366 389T369 368T376 347T383 331Q389 314 391 291T382 251Q377 244 366 242T343 240T318 241T299 243Q304 250 305 260T307 282T305 305T304 324V382Q304 390 304 396T299 410H334Q328 404 328 395T329 377V312Q329 304 329 289T333 267Q337
262 342 262T351 263T359 270T364 279Q367 291 365 304T361 329ZM556 351Q554 347 550 337T541 316T535 295T539 282Q537 288 542 288T552 287T558 280T550 272Q539 267 534 276T530 293Q530 300 533 308T537 322T535 333T521 336V263Q529 263 541 262T561 267Q559
261 558 255T554 243H490Q495 248 495 254T495 268V382Q495 389 495 396T490 410H549Q560 398 560 382T556 351ZM473 405Q473 399 476 392T482 377T485 364T477 351Q471 346 462 346T452 357Q452 362 455 364T462 367T469 365T471 358Q477 359 477 364T474 374T465
383T457 389Q450 391 442 390T430 381Q424 369 428 361T440 346T457 333T472 320Q479 311 482 298T485 274T476 253T453 243Q440 242 428 242T403 243Q407 244 406 251T402 267T398 285T400 299Q405 305 415 306T428 296Q428 291 425 289T418 286T411 288T408 295Q402
293 402 289T405 279T414 269T422 264Q428 262 437 262T452 268Q462 278 460 287T451 304T434 318T419 330Q411 337 406 349T400 374T406 396T426 409Q438 411 451 411T476 410L473 405ZM134 -12L115 -116H95Q92 -99 90 -82T85 -47Q83 -64 80 -81T74 -116H54L36
-12H57Q59 -31 61 -50T66 -89Q68 -69 71 -50T77 -12H95L106 -89Q109 -49 115 -12H134ZM235 -12L216 -116H196Q193 -99 191 -82T186 -47Q184 -64 181 -81T175 -116H155L137 -12H158Q160 -31 162 -50T167 -89Q169 -69 172 -50T178 -12H196L207 -89Q210 -49 216 -12H235ZM336
-12L317 -116H297Q294 -99 292 -82T287 -47Q285 -64 282 -81T276 -116H256L238 -12H259Q261 -31 263 -50T268 -89Q270 -69 273 -50T279 -12H297L308 -89Q311 -49 317 -12H336ZM515 -67Q522 -70 525 -76T529 -89T532 -103T536 -116H512Q509 -111 508 -104T505 -90T499
-79T487 -76V-116H463V-13Q476 -11 493 -10T521 -17Q536 -28 533 -44T515 -67ZM707 -116H683Q674 -98 666 -80T649 -44Q651 -62 651 -80T651 -116H629V-12H655L687 -82Q685 -65 685 -47T685 -12H707V-116ZM459 51Q464 58 465 68T467 90T465 113T464 132V190Q464
198 464 204T459 218H494Q489 213 488 204T486 184T488 163T489 147V71H537Q548 71 563 70T589 75Q587 71 586 61T579 51H459ZM450 -116H426L419 -92H395L390 -116H365L393 -12H423L450 -116ZM802 -112Q783 -119 766 -116T736 -103T721 -75T727 -38Q733 -24 746
-18T775 -11Q776 -11 780 -11T788 -12T796 -14T799 -16L795 -35Q783 -29 773 -31T756 -40T747 -57T748 -79Q754 -100 776 -98Q781 -97 780 -88T779 -75H767V-56H802V-112ZM541 135Q530 155 522 178Q518 189 516 200T505 218H542Q536 205 542 188T554 159Q560 173
565 188T565 218H602Q592 212 590 200T585 178Q582 169 574 156T566 133Q566 128 566 121T565 107T566 94T571 83H536Q544 91 543 107T541 135ZM325 178Q325 185 321 190T311 197T300 197T293 186Q292 180 292 173T293 160Q293 143 292 126T293 91Q293 84 297 79T307
72T317 72T324 83Q326 89 326 96T325 109V178ZM424 66Q423 95 415 125T388 179V72Q388 65 393 61T405 56T417 57T424 66ZM245 559Q232 556 221 548T200 530Q197 527 193 519T185 501T183 484T194 477Q208 477 217 486T231 509T240 536T245 559ZM549 -12H573V-116H549V-12ZM242
491Q249 493 256 500T267 516T274 534T274 551Q271 561 259 561Q253 544 250 526T242 491ZM521 357Q531 357 542 358T555 373Q556 388 544 389T521 390V357ZM599 575Q599 577 598 578Q598 584 592 582Q584 578 580 571T573 556Q571 551 573 544T584 542Q590 547
594 557T599 575ZM458 535Q461 526 469 531Q476 534 479 541T482 557Q481 562 478 565T467 563Q458 556 456 541L458 535ZM328 -103Q328 -96 332 -93T342 -89T351 -92T356 -103Q356 -110 352 -113T342 -117T333 -114T328 -103ZM587 -103Q587 -96 591 -93T601 -89T610
-92T615 -103Q615 -110 611 -113T601 -117T592 -114T587 -103ZM493 -58Q502 -58 505 -53T509 -43T503 -33T490 -29Q485 -30 486 -41T487 -58H493ZM417 -74Q415 -63 413 -53T407 -31L398 -74H417ZM411 542Q408 538 404 532T401 520Q403 514 409 515T416 522Q417
531 411 542ZM300 508Q305 507 313 515T322 528Q324 531 321 533T315 533Q310 528 307 522T300 508ZM665 627Q648 608 642 587Q650 596 657 605T666 627H665ZM359 562Q359 565 360 568T359 574Q357 574 356 571Q355 567 358 562H359Z" />
<glyph unicode=":" glyph-name="colon" horiz-adv-x="250" d="M122 171Q168 171 191 145T210 73Q206 38 182 19T122 0Q87 0 63 19T35 73Q30 118 53 144T122 171ZM122 383Q168 383 191 357T210 285Q206 250 182 231T122 212Q87 212 63 231T35 285Q30 330 53 356T122 383Z" />
<glyph unicode=";" glyph-name="semicolon" horiz-adv-x="250" d="M122 383Q168 383 191 357T210 285Q206 250 182 231T122 212Q87 212 63 231T35 285Q30 330 53 356T122 383ZM121 171Q165 171 185 151T209 100T203 34T175 -29T135 -75T94 -87Q79 -83 75 -74T71
-52T76 -24T83 6Q63 14 50 30T34 72Q29 117 52 144T121 171Z" />
<glyph unicode="&lt;" glyph-name="less" horiz-adv-x="328" d="M174 162Q194 150 211 143T241 127T261 105T268 68Q268 40 263 29T248 18T219 26T176 47Q114 76 85 110T54 178T79 245T155 304Q187 321 209 334T244 348T262 335T268 282Q268 262 266 246T254 215T225
188T174 162Z" />
<glyph unicode="=" glyph-name="equal" horiz-adv-x="347" d="M134 81Q116 81 101 82T74 89T55 105T46 133Q41 178 64 195T134 212H211Q256 212 279 195T298 133Q296 116 289 106T271 90T244 83T211 81H134ZM134 241Q116 241 101 242T74 249T55 265T46 293Q41
338 64 355T134 372H211Q256 372 279 355T298 293Q296 276 289 266T271 250T244 243T211 241H134Z" />
<glyph unicode="&gt;" glyph-name="greater" horiz-adv-x="328" d="M148 203Q128 215 111 222T81 238T61 260T54 297Q54 325 59 336T74 347T102 339T146 318Q208 289 237 255T268 187T243 120T167 61Q135 44 113 31T78 17T60 30T54 83Q54 103 56 119T68 150T97
177T148 203Z" />
<glyph unicode="?" glyph-name="question" horiz-adv-x="547" d="M487 373Q467 356 443 347T393 332T343 325T300 318T270 308T258 288Q259 245 243 226T202 205Q175 205 155 217T125 250T119 296T148 347Q164 364 183 376T223 398T262 419T295 444Q321 470 317
497T282 537Q253 549 232 547T201 536T197 512T228 487Q246 479 242 465T220 435T173 408T114 391T56 394T11 426Q-16 464 -4 502T49 568T154 611T295 619Q377 611 430 584T508 521T528 446T487 373ZM172 171Q218 171 241 145T260 73Q256 38 232 19T172 0Q137 0
113 19T85 73Q80 118 103 144T172 171Z" />
<glyph unicode="@" glyph-name="at" horiz-adv-x="994" d="M816 254Q812 229 821 215T843 205T864 237T868 321Q863 376 822 417T720 480T584 501T438 468Q373 440 328 392T259 289T235 176T259 73Q284 27 323 -3T412 -47T523 -55T649 -25Q645 -68 615 -102T539
-159T434 -188T317 -186T200 -147T98 -64Q56 -14 38 48T24 176T56 307T130 428T245 525T399 585Q532 614 630 604T795 559T899 468T950 350T955 226T917 113T845 32T746 0Q710 0 684 10T641 35T614 70T604 110Q603 90 592 70T563 34T519 8T463 0Q425 2 395 17T344
59T314 119T308 195Q313 245 331 282T373 343T426 378T480 389Q506 389 525 384T558 369T583 349T603 326Q621 358 654 375T735 389Q790 384 808 352T816 254ZM564 187Q577 187 587 197T598 231Q599 255 590 267T564 280Q548 280 539 268T530 231Q530 208 540 198T564
187Z" />
<glyph unicode="A" glyph-name="A" horiz-adv-x="964" d="M375 -115Q327 -134 288 -127T220 -89T175 -8T159 112Q132 102 111 92T75 70Q53 53 38 56T16 75T8 118T17 172T42 226T83 271Q114 295 184 304Q201 374 230 439T305 556T412 638T556 669Q624 669 674 643T762
573T825 472T868 354T898 232T919 120T938 30T961 -25Q968 -34 977 -37T996 -42T1013 -47T1025 -59Q1031 -72 1022 -90T992 -127T943 -161T882 -182T817 -185T755 -161Q734 -146 719 -114T694 -39T678 55T665 161Q654 160 641 160T613 163Q556 168 490 166T355
155Q356 85 369 38T392 -39T403 -87T375 -115ZM653 265Q647 323 638 375T616 465T583 525T534 543Q518 541 496 528T450 486T406 415T371 309Q437 305 507 295T645 268L653 265Z" />
<glyph unicode="B" glyph-name="B" horiz-adv-x="951" d="M288 224Q284 327 296 384T332 468Q228 412 206 349T239 222Q270 187 269 159T246 112T190 88T120 88T56 119T15 185Q-1 246 18 307T89 425T225 531T424 619Q539 656 627 668T778 675T881 647T943 592T968
522T960 444Q950 409 928 382T876 332T816 294T756 266Q790 266 822 251T875 206T901 132T888 32Q867 -30 826 -76T732 -152T617 -193T491 -199T366 -167T252 -98Q206 -59 190 -23T175 37T194 66T230 49Q254 21 286 1T356 -33Q330 -2 311 59T288 224ZM449 505Q492
505 511 489T534 445T531 380T514 299Q596 321 644 353T708 419T713 482T661 526T558 539T409 503Q419 504 428 504T449 505ZM490 41Q491 12 491 -12T487 -53Q520 -52 549 -44T601 -19T640 20T660 74Q664 104 648 122T606 150T548 161T488 156Q486 126 487 97T490
41Z" />
<glyph unicode="C" glyph-name="C" horiz-adv-x="833" d="M515 341Q534 390 526 423T490 473T423 493T341 484T258 444T190 374T153 275T162 147Q175 99 205 70T273 28T356 17T441 34T516 74T569 132Q582 154 601 162T640 167T680 149T714 111T734 57T735 -10Q726
-65 684 -106T581 -170T446 -194T300 -172T162 -94T53 47Q23 108 13 175T12 309T53 438T136 549T261 630T428 672Q522 681 594 665T716 616T795 540T832 452T830 366T789 295Q759 266 725 252T657 236T594 241T544 264T515 299T515 341Z" />
<glyph unicode="D" glyph-name="D" horiz-adv-x="1087" d="M310 236Q308 294 310 338T320 413T339 466T365 500Q244 441 217 372T249 234Q281 197 280 168T256 120T198 95T124 96T56 128T14 197Q-3 260 16 324T90 448T233 558T443 647Q589 692 705 681T899 615T1013
466T1034 252Q1019 137 972 52T859 -89T712 -172T551 -200T395 -175T262 -98Q215 -56 198 -19T182 43T200 72T239 55Q278 13 318 -13T399 -53Q383 -40 368 -17T340 40T320 123T310 236ZM512 47Q514 9 514 -21T502 -66Q553 -63 598 -40T680 25T741 123T775 252Q786
331 766 395T699 498T584 547T428 526Q447 529 472 529Q510 529 529 516T555 478T557 422T545 351T528 271T513 187Q508 150 509 115T512 47Z" />
<glyph unicode="E" glyph-name="E" horiz-adv-x="744" d="M454 352Q471 393 466 423T443 472T396 500T337 507T278 492T230 455Q217 438 215 418T222 380T256 348T318 327Q372 339 403 324T437 271Q438 248 428 232T397 207T349 200T288 219Q259 218 228 208T173
179T136 135T134 78Q145 45 172 30T234 13T310 22T387 52T455 96T503 150Q522 183 552 184T610 165T653 104T660 12Q650 -40 620 -78T546 -141T450 -177T342 -187T234 -169T135 -125T57 -55T11 41Q0 84 9 124T41 197T95 253T164 287Q120 308 97 345T71 426T86 513T144
593T247 651T395 674Q517 674 596 643T715 562T760 453T739 337Q720 296 689 276T624 250T555 251T496 273T458 309T454 352Z" />
<glyph unicode="F" glyph-name="F" horiz-adv-x="983" d="M262 202Q298 168 297 141T272 96T210 73T132 77T59 114T13 190Q-10 277 28 362T158 513T392 614T721 636Q817 629 879 628T982 634T1051 661T1104 714Q1121 736 1140 730T1173 698T1191 633T1184 553T1138
473T1043 409Q997 390 956 387T874 391T797 414T724 446T651 480T578 508Q595 485 595 449T588 366T568 266T549 158Q596 171 647 183T743 210T824 241T876 279Q889 296 901 292T921 269T930 222T921 165T888 107T826 62Q774 39 739 33T674 27T615 31T543 30L546
-29Q547 -61 548 -88T546 -135T533 -166T507 -177Q484 -177 455 -165T400 -113T354 -1T332 194Q327 324 341 395T383 498Q331 478 289 445T227 372T212 287T262 202Z" />
<glyph unicode="G" glyph-name="G" horiz-adv-x="788" d="M885 -50Q898 -62 886 -86T846 -133T777 -175T692 -194T603 -174T522 -96Q466 -123 400 -132T270 -126T148 -71T54 40Q22 100 11 167T10 301T52 429T135 540T261 622T429 665Q513 673 577 661T686 624T758
563T796 488T803 408T782 335Q763 298 735 279T676 256T615 259T561 283T526 320T519 366Q528 405 514 431T470 471T402 485T322 473T245 433T184 365T152 267T163 140Q173 102 193 78T239 42T294 29T349 34T398 55T433 89Q413 115 395 121T361 127T333 122T315
124Q301 138 311 160T348 201T418 232T510 234T614 189T722 80Q762 25 789 1T835 -32T865 -41T885 -50Z" />
<glyph unicode="H" glyph-name="H" horiz-adv-x="888" d="M122 278Q119 363 123 423T139 525T166 591T204 628T252 645T309 649Q351 649 373 633T403 589T408 521T396 436T377 340T359 237Q409 234 461 228T565 210Q566 244 571 283Q580 378 593 445T623 556T663
626T710 662T765 675T828 672Q877 666 899 644T925 586T918 505T890 407T854 297T820 180Q808 129 803 78T795 -19Q792 -58 789 -90T778 -146T758 -182T725 -191Q702 -188 676 -175T627 -131T586 -45T565 95Q517 98 462 96T353 87Q353 74 353 62T355 38Q356 3 356
-26T354 -77T341 -110T312 -122Q294 -122 273 -116T230 -92T188 -42T153 44Q97 24 68 2Q46 -15 32 -12T10 7T3 48T12 102T36 156T76 200Q85 207 97 212T125 222Q124 235 123 249T122 278Z" />
<glyph unicode="I" glyph-name="I" horiz-adv-x="541" d="M188 301Q187 368 191 417T203 504Q155 492 117 477T58 442Q40 426 29 429T11 446T5 484T12 533T32 582T64 622Q88 641 135 650T244 659T374 648T508 620Q545 610 565 592T585 557T560 530T484 525L465
527Q465 499 461 467T451 398T437 324T424 246Q413 169 413 116T412 30Q454 49 486 77Q504 92 516 89T535 71T543 31T539 -18T521 -68T490 -109Q466 -129 422 -137T326 -143T222 -130T129 -99Q94 -82 80 -64T69 -31T94 -9T154 -5Q183 -8 211 -8T266 -6Q250 6 236
28T212 87T195 176T188 301Z" />
<glyph unicode="J" glyph-name="J" horiz-adv-x="738" d="M666 212Q688 155 686 89T650 -34T546 -131T362 -178Q296 -182 240 -168T139 -126T63 -60T18 19T6 104T34 187Q55 220 83 237T141 258T200 258T256 241T301 215T328 186T332 161T305 146Q271 140 253 121T232
75T237 22T267 -27T319 -59T390 -62Q440 -52 464 -11T476 83Q470 112 459 138T436 192T413 251T395 323Q389 360 393 394T408 458Q385 441 362 427T312 405T257 395T196 401Q146 413 115 440T69 500T52 565T57 621T77 653T107 645Q131 621 155 606T212 588T293
593T411 627Q463 645 511 657T603 675T687 675T766 651Q797 636 810 609T824 553T816 496T795 454T768 438T744 463Q736 483 723 504T693 542T653 568T604 575Q587 573 572 568T542 555Q544 554 548 554Q632 536 655 499T659 401Q645 360 646 311T666 212Z" />
<glyph unicode="K" glyph-name="K" horiz-adv-x="666" d="M4 264Q1 390 11 462T44 572T98 620T170 630Q208 630 228 614T254 568T258 499T246 413T229 315T213 212Q252 221 275 244T313 300T337 371T359 449T387 526T433 595T507 648T619 677Q663 681 695 672T744
647T759 617T731 596Q682 586 652 559T601 495T564 415T526 329T472 248T389 184Q394 188 409 192T446 197T493 196T545 182T597 150T643 95Q684 27 710 0T753 -35T781 -39T802 -40Q815 -47 812 -63T794 -100T753 -141T696 -174T631 -192T562 -183T497 -137T442
-44Q414 25 390 63T340 116T283 126T208 103L211 26Q212 -8 213 -37T211 -87T199 -120T174 -132Q159 -132 141 -127T105 -106T70 -64T39 8T16 114T4 264Z" />
<glyph unicode="L" glyph-name="L" horiz-adv-x="699" d="M644 113Q675 95 697 65T734 2T752 -63T751 -116T729 -144T683 -133Q653 -114 605 -99T499 -74T383 -65T272 -75Q263 -135 230 -167T157 -206T79 -199T20 -152T5 -71T60 37Q47 80 39 138T28 273Q24 401
36 475T74 588T138 636T223 647Q269 647 292 630T323 582T326 510T312 420T291 318T273 210Q269 182 269 155T269 101Q325 117 381 126T487 138T577 134T644 113Z" />
<glyph unicode="M" glyph-name="M" horiz-adv-x="991" d="M97 263Q95 349 98 409T110 510Q72 542 39 556Q3 571 4 592T31 631T101 663T195 676T295 660T385 602Q439 545 481 451T546 231L749 553Q765 590 784 611T825 641T872 650T925 647Q968 641 988 619T1011
563T1006 485T981 389T948 281T918 166Q907 116 903 67T895 -28Q892 -66 889 -98T880 -152T862 -187T833 -196Q817 -194 798 -186T761 -158T728 -106T702 -24T689 96T694 261L557 -3Q547 -41 525 -62T477 -83T428 -54T391 36Q377 101 345 173T270 315Q262 258 258
201Q254 156 254 112T257 27Q258 -7 258 -35T257 -85T248 -117T228 -129Q211 -129 190 -116T149 -62T115 57T97 263Z" />
<glyph unicode="N" glyph-name="N" horiz-adv-x="808" d="M722 648Q758 642 776 621T801 565T803 487T789 392T767 285T744 171Q735 122 731 73T725 -21Q723 -59 721 -91T712 -147T690 -182T645 -189Q616 -184 596 -173T560 -144T531 -101T503 -39Q485 6 462 55T412
155T354 253T289 345Q284 311 279 276T271 206Q267 161 267 117T270 34Q271 0 271 -28T269 -78T259 -110T238 -122Q225 -122 208 -117T172 -97T134 -55T100 15T75 120T62 267Q60 355 66 414T86 515Q61 523 42 526Q11 530 6 550T15 595T60 643T131 677T220 678T318
629Q375 583 427 490T529 267Q529 270 530 272Q536 364 546 429T569 537T598 604T634 640T675 651T722 648Z" />
<glyph unicode="O" glyph-name="O" horiz-adv-x="1032" d="M569 653Q676 653 758 619T893 523T970 374T981 181Q972 99 938 35T850 -73T725 -140T569 -163Q484 -163 413 -140T287 -73T199 35T156 181Q150 233 153 283Q147 285 141 286T129 290Q84 305 57 332T16
392T2 455T9 509T31 539T64 533Q90 511 123 490T197 455Q245 549 339 601T569 653ZM569 369Q534 339 494 319T408 287Q399 242 405 187Q410 139 422 104T457 44T511 6T591 -14Q634 -19 676 -7T751 32T808 98T836 185Q842 246 834 297T801 385T735 442T634 462H622Q623
442 611 418T569 369Z" />
<glyph unicode="P" glyph-name="P" horiz-adv-x="938" d="M270 191Q265 305 277 368T316 463Q219 409 199 349T233 229Q264 195 263 167T240 122T185 98T115 98T50 129T9 193Q-7 253 12 312T83 427T219 531T418 617Q533 653 622 665T778 672T890 645T960 592T991
523T988 447Q974 394 942 347T866 257T771 180T668 115T568 65T481 29Q481 18 481 8T483 -12Q484 -41 484 -66T482 -109T470 -137T444 -148Q421 -148 392 -137T337 -90T292 13T270 191ZM441 506Q480 506 500 492T527 453T531 394T519 321T501 237T485 149Q570 177
625 225T704 324T722 424T678 503T573 537T407 505Q415 506 423 506T441 506Z" />
<glyph unicode="Q" glyph-name="Q" horiz-adv-x="1056" d="M1171 -84Q1183 -96 1171 -119T1131 -165T1063 -204T980 -220T894 -193T819 -108Q720 -163 588 -163Q504 -163 433 -140T307 -73T219 35T176 181Q170 232 173 279Q162 281 152 284T132 290Q87 305 60
332T19 392T5 455T11 509T34 539T67 533Q95 510 132 487T215 450Q263 546 357 599T588 653Q695 653 777 619T913 523T990 374T1001 181Q995 127 979 85Q989 74 998 63T1018 38Q1055 -14 1081 -36T1124 -67T1152 -76T1171 -84ZM571 369Q540 343 504 324T430 293Q419
243 425 187Q436 90 487 38T633 -14Q710 -14 764 20Q750 45 737 58T711 77T687 82T666 79T649 76T637 79Q623 93 635 116T678 158T755 184T854 172Q854 177 855 180Q861 241 853 293T821 382T755 441T654 462Q646 462 639 462T625 460Q625 441 613 418T571 369Z"
/>
<glyph unicode="R" glyph-name="R" horiz-adv-x="920" d="M257 199Q255 257 257 301T265 379T280 435T301 474Q208 420 190 359T222 237Q251 202 250 174T228 128T176 104T110 105T48 136T10 201Q-5 261 13 321T80 438T209 542T397 628Q505 665 588 677T730 684T828
655T887 602T910 532T902 456Q890 412 858 371T789 295T715 236T655 200Q673 205 702 207T764 200T832 168T892 100Q919 53 939 26T975 -16T1002 -34T1022 -38T1037 -37T1051 -39Q1064 -46 1061 -63T1043 -102T1002 -144T945 -179T880 -196T811 -187T746 -139T691
-43Q663 29 639 68T589 123T531 133T456 109Q454 78 455 49T458 -7Q461 -66 457 -98T421 -131Q406 -131 389 -128T355 -112T321 -79T291 -20T268 70T257 199ZM418 516Q464 516 483 495T504 437T497 351T476 248Q550 267 594 303T656 379T663 458T619 519T525 545T385
515Q393 516 401 516T418 516Z" />
<glyph unicode="S" glyph-name="S" horiz-adv-x="788" d="M60 358Q66 425 102 478T191 569T311 629T445 657Q536 664 600 653T704 617T759 557T765 481Q757 441 732 418T675 386T609 380T549 395T510 428T505 474Q513 498 497 511T453 527T389 522T322 497T271
454T253 394Q255 357 272 344T316 330T380 338T457 355T541 365T627 354Q681 337 711 305T752 231T756 144T727 54T671 -30T592 -97Q542 -128 483 -147T362 -172T242 -174T135 -150T53 -100T8 -24Q-4 24 7 61T39 119T87 138T131 105Q149 74 186 50T270 10T365 -10T457
-8T531 18T571 72Q576 92 572 110T544 138T473 146T348 120Q268 97 211 108T119 154T69 242T60 358Z" />
<glyph unicode="T" glyph-name="T" horiz-adv-x="802" d="M447 625Q511 640 577 652T704 667T820 663T917 630Q953 608 966 580T979 524T967 472T940 436T909 425T887 453Q871 507 819 539T678 565Q703 553 712 530T719 476T707 408T683 328T655 239T629 147Q624
125 619 97T611 39T606 -19T606 -72Q610 -113 598 -143T547 -177Q531 -179 512 -172T473 -147T437 -97T411 -17T401 99T416 257Q429 341 443 397T473 491Q426 465 378 439T281 395T180 373T74 389Q28 406 5 437T-25 503T-25 572T-2 630T34 663T74 656Q103 632 132
617T201 598T300 599T447 625Z" />
<glyph unicode="U" glyph-name="U" horiz-adv-x="771" d="M298 451Q259 357 243 282T229 152T253 62T311 14Q335 5 359 12T402 40T434 93T451 169Q451 177 451 185T452 203V204Q453 221 454 239T457 277Q466 372 479 439T509 550T547 620T593 656T646 668T707
665Q754 659 775 637T800 579T794 499T767 401T731 291T699 174Q688 123 683 73T674 -24Q671 -63 668 -95T658 -151T639 -187T607 -196Q590 -194 571 -186T534 -161T499 -116T470 -44Q453 -65 432 -82T386 -110T331 -126T266 -126Q198 -115 149 -82T68 4T20 127T2
281Q-3 448 40 542T185 643Q285 649 313 604T298 451Z" />
<glyph unicode="V" glyph-name="V" horiz-adv-x="810" d="M570 605Q627 628 671 613T742 548T776 420T764 238Q750 162 724 92T654 -32T548 -118T402 -150Q337 -150 291 -125T213 -60T162 34T130 143T111 257T99 363T86 448T67 501Q60 510 51 513T33 518T16 523T5
535Q-1 549 8 568T38 606T85 640T143 663T204 665T262 637Q291 612 306 570T329 475T337 364T339 248T340 139T350 49T374 -10T420 -28Q435 -26 456 -13T496 29T532 104T554 218Q561 290 555 343T540 434T521 498T511 543T522 576T570 605Z" />
<glyph unicode="W" glyph-name="W" horiz-adv-x="1097" d="M566 618Q608 609 626 593T649 551T649 492T639 415T632 317T642 197Q653 132 664 93T686 31T709 3T734 -3Q762 -1 779 35T805 126T815 245T814 367T805 467T792 522Q783 538 771 546T747 560T729 572T721
589Q721 610 737 626T780 652T838 664T902 659T963 633T1012 582Q1027 558 1037 517T1052 424T1054 313T1041 196T1010 82T960 -19T889 -97T794 -141Q748 -151 708 -145T635 -119T573 -69T522 -1Q511 -33 496 -59T458 -105T407 -135T342 -145Q289 -144 251 -119T186
-52T142 43T114 152T97 266T85 371T73 456T56 510Q50 519 43 522T28 527T14 533T5 545Q0 559 11 578T43 615T93 649T152 670T211 670T262 641Q286 616 297 575T313 484T316 379T311 271T307 169T309 85T325 29T361 12Q371 13 383 22T407 50T429 97T448 166Q448
167 448 168T447 171Q419 262 416 347T428 497T480 595T566 618Z" />
<glyph unicode="X" glyph-name="X" horiz-adv-x="775" d="M144 69Q184 111 228 157T312 254L339 289Q302 341 265 371T193 416T123 436T57 443Q31 444 18 465T3 514T14 574T54 629T122 663T220 658Q261 647 294 625T354 573T402 507T442 431Q481 485 516 528T589
602T667 648T758 659Q793 656 817 647T849 617T850 563T810 482T725 367T587 214L551 177Q576 127 606 94Q645 49 683 22T757 -16T824 -23T881 -1Q902 14 917 6T939 -22T942 -70T922 -124T873 -169T792 -191Q747 -194 702 -176T615 -122T531 -35T453 82Q359 -4
289 -49T168 -112T84 -129T31 -117Q14 -109 16 -92T36 -51T81 3T144 69Z" />
<glyph unicode="Y" glyph-name="Y" horiz-adv-x="739" d="M548 649Q604 671 645 659T711 608T741 510T735 381Q717 291 659 227T513 137Q505 94 501 52T494 -27Q491 -64 488 -95T478 -149T459 -183T427 -192Q403 -189 375 -175T323 -124T284 -25T270 140Q221 157
192 187T144 253T118 328T103 403T90 468T69 515Q62 523 53 526T35 530T19 535T7 546Q1 559 11 577T40 613T87 645T145 666T206 669T263 643Q301 612 316 567T335 471T339 372T342 284T363 223T419 206Q434 208 454 217T492 247T526 301T546 383Q549 414 541 442T521
495T500 542T489 583T500 619T548 649Z" />
<glyph unicode="Z" glyph-name="Z" horiz-adv-x="806" d="M818 82Q839 97 854 90T875 63T876 13T851 -43T796 -93T707 -123Q653 -130 616 -118T548 -86T492 -45T433 -15T360 -15T260 -63Q210 -95 172 -111T103 -131T52 -133T16 -122Q-1 -113 1 -96T21 -55T66 -1T129
66Q170 108 214 155T297 254Q340 310 376 361T445 457Q412 451 383 451T327 452T273 447T217 430T156 389T87 315Q69 292 55 301T32 338T24 408T36 493T71 575T134 636Q177 660 216 661T294 653T368 628T441 603T516 594T595 621Q628 644 664 655T744 663Q776 660
800 651T835 623T841 577T811 510Q770 445 708 379T578 253T448 142T339 57Q418 102 473 114T570 121T641 98T698 69T753 57T818 82Z" />
<glyph unicode="[" glyph-name="bracketleft" horiz-adv-x="454" d="M257 433V2H354Q403 2 424 -18T444 -63T419 -107T357 -128H180Q140 -128 113 -103T86 -35V467Q86 507 111 535T180 563H357Q396 563 419 543T444 498T425 454T354 433H257Z" />
<glyph unicode="\" glyph-name="backslash" horiz-adv-x="347" d="M-30 550Q-45 586 -37 609T5 637Q47 642 84 619T141 550L372 5Q392 -41 375 -64T312 -83Q276 -79 247 -55T202 5L-30 550Z" />
<glyph unicode="]" glyph-name="bracketright" horiz-adv-x="441" d="M107 433Q58 433 37 453T17 498T42 542T104 563H281Q325 563 350 535T375 467V-35Q375 -78 348 -103T281 -128H104Q65 -128 42 -108T17 -63T36 -19T107 2H204V433H107Z" />
<glyph unicode="^" glyph-name="asciicircum" horiz-adv-x="393" d="M208 439Q193 413 181 398T156 376T128 366T92 364Q54 364 36 372T17 396T29 432T70 477Q95 500 127 513T193 526T262 509T327 456Q363 412 362 388T306 364Q282 364 270 371T248 390T231 414T208 439Z" />
<glyph unicode="_" glyph-name="underscore" horiz-adv-x="454" d="M134 -119Q98 -119 74 -101T46 -47Q41 -2 64 25T134 52H311Q356 52 379 25T398 -47Q394 -82 371 -100T311 -119H134Z" />
<glyph unicode="`" glyph-name="grave" horiz-adv-x="499" d="M78 556Q82 582 96 598T134 618T195 612T282 576Q308 562 334 548T381 519T411 488T417 454Q412 437 395 431T355 425T305 429T256 435Q189 441 152 453T97 481T77 516T78 556Z" />
<glyph unicode="a" glyph-name="a" horiz-adv-x="568" d="M568 261Q580 215 578 169T557 85T506 24T423 0Q387 0 361 10T318 35T291 70T281 110Q280 90 269 70T240 34T196 8T140 0Q102 2 72 17T21 59T-9 119T-15 195Q-10 245 8 282T50 343T103 378T157 389Q183
389 202 384T235 369T260 349T280 326Q298 358 331 375T412 389Q467 384 485 352T493 254Q489 228 496 215T515 201T542 215T568 261ZM241 187Q254 187 264 197T275 231Q276 255 267 267T241 280Q225 280 216 268T207 231Q207 208 217 198T241 187Z" />
<glyph unicode="b" glyph-name="b" horiz-adv-x="498" d="M255 391Q306 390 345 374T410 328T447 257T452 165Q443 86 389 43T252 0Q187 0 141 21T63 81T16 175T-3 300Q-8 396 -1 458T28 557T85 608T175 623Q227 623 252 604T284 552T281 478T255 391ZM244 204Q257
204 267 214T278 248Q279 272 270 284T244 297Q228 297 219 285T210 248Q210 225 220 215T244 204Z" />
<glyph unicode="c" glyph-name="c" horiz-adv-x="387" d="M259 168Q299 168 335 192T387 261Q393 240 395 216T394 165Q385 86 331 43T194 0Q112 0 58 43T-6 165Q-12 216 -1 257T36 328T102 374T194 391Q243 391 280 376T337 330Q346 315 350 300T352 269T343
242T323 223Q300 209 285 217T269 246Q268 263 252 268T220 263Q211 257 207 242T205 210T220 181T259 168Z" />
<glyph unicode="d" glyph-name="d" horiz-adv-x="569" d="M569 261Q581 215 579 169T558 85T507 24T424 0Q373 0 338 26T281 114Q281 94 271 73T242 36T197 9T140 0Q102 2 72 17T22 59T-8 119T-14 195Q-9 245 8 282T50 343T103 378T157 389Q190 389 212 381T250
358Q252 493 298 558T438 623Q487 623 512 608T546 566T551 506T536 433T514 356T495 281Q488 246 494 227T514 205T542 216T569 261ZM242 187Q255 187 265 197T276 231Q277 255 267 267T242 280Q226 280 217 268T207 231Q208 208 218 198T242 187Z" />
<glyph unicode="e" glyph-name="e" horiz-adv-x="387" d="M337 330Q351 309 349 282T332 232T288 193T221 179Q235 168 260 168Q300 168 336 192T387 261Q400 220 394 165Q385 86 331 43T194 0Q112 0 58 43T-6 165Q-12 216 -1 257T36 328T102 374T194 391Q243
391 280 376T337 330ZM267 248Q268 256 264 261T252 269T236 271T221 263Q213 258 209 248T203 226Q226 221 245 225T267 248Z" />
<glyph unicode="f" glyph-name="f" horiz-adv-x="325" d="M90 270Q141 301 179 315Q195 321 210 324T235 324T251 312T252 283Q245 250 253 234T276 217T305 226T325 261Q338 222 331 193T307 148T267 129T225 140Q223 105 224 72T228 9Q230 -23 230 -50T227 -96T211
-127T177 -138Q147 -138 118 -126T64 -75T22 36T1 229Q-4 346 3 422T32 542T89 605T179 623Q231 623 257 603T291 550T293 471T275 376T250 273T229 171Q227 163 227 156T225 140Q208 154 199 180L90 270Z" />
<glyph unicode="g" glyph-name="g" horiz-adv-x="542" d="M220 10Q267 27 285 56T286 114Q283 101 272 88T242 63T200 46T147 40Q75 44 33 79T-10 195Q-10 246 7 282T50 343T106 378T162 389Q188 389 207 384T240 369T266 349T286 326Q304 358 337 375T417 389Q444
387 462 378T489 343T500 271T494 147Q488 72 471 20T423 -66T347 -118T239 -143Q185 -149 140 -144T57 -122Q27 -108 11 -87T-12 -42T-16 3T-4 39T19 56T49 46Q63 34 83 24T126 8T173 2T220 10ZM246 187Q259 187 269 197T281 231Q282 255 272 267T246 280Q231
280 221 268T212 231Q213 208 223 198T246 187Z" />
<glyph unicode="h" glyph-name="h" horiz-adv-x="556" d="M-3 300Q-8 396 -1 458T28 557T85 608T175 623Q235 623 260 598T286 532T272 440T233 336Q253 356 276 370T327 389Q362 395 391 388T441 363T472 318T481 254Q479 228 486 215T506 201T531 215T556 261Q568
215 566 169T545 85T494 24T411 0Q362 0 333 12T289 45T270 89T269 139Q271 160 264 171T248 181T231 168T223 129Q223 127 223 125T224 120Q226 94 226 72T223 34T207 9T173 0Q143 0 114 10T60 51T19 142T-3 300Z" />
<glyph unicode="i" glyph-name="i" horiz-adv-x="302" d="M-8 195Q-8 248 8 284T60 335Q41 348 29 368T14 414Q7 475 39 512T134 549Q196 549 228 512T253 414Q245 355 198 330Q218 318 224 299T227 254Q223 228 230 215T250 201T277 215T302 261Q314 215 312
169T291 85T240 24T157 0Q108 0 77 16T26 60T0 122T-8 195Z" />
<glyph unicode="j" glyph-name="j" horiz-adv-x="285" d="M116 549Q179 549 211 512T235 414Q227 354 180 330Q204 319 218 298T235 241T233 157T212 42Q198 -18 176 -54T128 -109T74 -131T19 -129Q-10 -122 -17 -105T-21 -61T-10 1T1 80Q3 126 0 167T-2 241T8
297T46 333Q3 358 -3 414Q-11 475 21 512T116 549Z" />
<glyph unicode="k" glyph-name="k" horiz-adv-x="556" d="M556 261Q568 215 566 169T545 85T494 24T411 0Q376 0 345 14T289 51T246 102T221 158L224 120Q226 94 227 72T224 34T208 9T174 0Q144 0 114 10T60 51T19 142T-3 300Q-8 396 -1 458T28 557T85 608T175
623Q233 623 258 600T286 538T275 451T240 351Q251 361 262 369T287 384Q326 404 364 406T433 396T483 360T502 304Q502 262 485 236T442 195T385 179T326 184Q350 161 385 159T454 168T517 205T556 261ZM252 214Q262 214 270 222T279 249Q280 269 272 278T252
288Q240 288 232 279T225 249Q225 231 233 223T252 214Z" />
<glyph unicode="l" glyph-name="l" horiz-adv-x="315" d="M315 261Q327 215 325 169T304 85T253 24T170 0Q133 0 104 13T54 58T19 141T-1 268Q-15 449 31 536T184 623Q233 623 258 608T292 566T297 506T282 433T260 356T241 281Q234 246 240 227T260 205T288 216T315
261Z" />
<glyph unicode="m" glyph-name="m" horiz-adv-x="787" d="M787 261Q799 215 797 169T776 85T725 24T642 0Q594 0 565 12T520 45T502 89T501 139Q503 161 495 171T477 180T459 164T455 122Q459 95 459 73T449 34T421 9T366 0Q334 0 313 10T280 40T265 84T266 139Q269
161 262 171T245 181T227 164T221 120Q223 94 223 72T220 34T204 9T170 0Q140 0 112 8T60 41T21 109T0 223Q-2 247 1 277T17 333T55 376T124 391Q141 390 157 386T184 372T202 348T208 311Q228 340 258 362T324 391Q372 399 407 379T454 327Q474 350 500 367T559
391Q594 397 623 390T672 365T703 318T712 254Q710 228 718 215T737 201T762 215T787 261Z" />
<glyph unicode="n" glyph-name="n" horiz-adv-x="553" d="M0 223Q-2 247 1 277T17 333T55 376T124 391Q141 390 157 386T184 372T202 348T208 311Q228 340 258 362T324 391Q359 397 388 390T438 365T468 318T477 254Q475 228 483 215T503 201T528 215T553 261Q565
215 563 169T542 85T491 24T408 0Q359 0 330 12T286 45T267 89T266 139Q268 160 261 171T245 181T228 168T220 129Q220 127 220 125T221 120Q223 94 223 72T220 34T204 9T170 0Q140 0 112 8T60 41T21 109T0 223Z" />
<glyph unicode="o" glyph-name="o" horiz-adv-x="425" d="M193 391Q245 391 284 375T350 329T387 258T393 165Q384 86 330 43T193 0Q111 0 57 43T-7 165Q-13 216 -2 257T36 328T101 374T193 391ZM227 231Q228 255 219 267T193 280Q177 280 168 268T159 231Q159
208 169 198T193 187Q206 187 216 197T227 231Z" />
<glyph unicode="p" glyph-name="p" horiz-adv-x="546" d="M145 389Q190 383 205 367T220 324Q239 352 266 371T334 394Q379 397 410 381T460 333T485 259T485 165Q477 99 438 55T336 5Q295 1 264 13T211 50Q210 10 212 -23T214 -80T202 -119T166 -137Q139 -141
112 -134T62 -103T23 -36T1 74Q-7 169 -3 232T18 332T66 382T145 389ZM284 178Q285 202 276 214T250 227Q234 227 225 215T216 178Q216 155 226 145T250 134Q263 134 273 144T284 178Z" />
<glyph unicode="q" glyph-name="q" horiz-adv-x="530" d="M336 389Q383 395 414 382T463 332T483 232T480 74Q475 7 459 -36T419 -102T369 -133T315 -137Q290 -134 280 -120T268 -84T267 -30T270 38Q245 19 213 10T145 5Q82 11 43 55T-4 165Q-10 216 -1 259T32
333T93 380T183 391Q214 388 237 378T278 352Q287 367 301 376T336 389ZM231 227Q215 227 206 215T197 178Q198 155 208 145T231 134Q244 134 254 144T266 178Q266 202 257 214T231 227Z" />
<glyph unicode="r" glyph-name="r" horiz-adv-x="475" d="M0 223Q-2 247 1 277T17 333T55 376T124 391Q152 389 174 378T205 341Q219 361 238 375T283 394Q319 401 344 395T384 373T403 334T403 283Q398 258 404 243T423 225T449 229T475 261Q489 218 478 186T443
135T385 108T322 108T271 137T247 197Q246 209 241 216T231 220T221 194T220 128Q220 113 222 92T222 50T208 15T171 0Q141 0 112 8T60 41T21 109T0 223Z" />
<glyph unicode="s" glyph-name="s" horiz-adv-x="387" d="M96 239Q98 231 125 232T193 239Q213 241 238 240T287 232T328 208T351 165Q356 138 348 108T317 51T257 8T168 -11Q112 -12 77 3T23 41T-2 90T-3 139Q2 167 11 169T40 164Q55 158 74 153T128 148Q145
148 162 149T195 153T221 162T237 177Q242 188 220 186T148 175Q111 168 80 172T27 189T-7 223T-17 270Q-15 301 -1 327T36 373T91 403T159 414Q231 414 275 380T331 289Q336 257 325 248T298 249Q281 258 250 261T184 263Q170 262 154 261T125 256T103 249T96
239Z" />
<glyph unicode="t" glyph-name="t" horiz-adv-x="315" d="M-7 441Q0 441 8 441T28 443Q53 507 94 546T190 597Q232 606 254 598T286 569T293 518T283 451Q290 451 296 451T308 450Q335 448 347 433T360 399T346 363T308 340Q297 338 283 336T252 333Q248 319 245
306T240 281Q233 246 240 227T260 205T288 216T315 261Q327 215 325 169T304 85T253 24T170 0Q133 0 102 11T48 53T12 135T-1 268Q-1 287 0 305T3 341Q2 341 2 341T0 342Q-30 348 -44 363T-58 395T-45 425T-7 441Z" />
<glyph unicode="u" glyph-name="u" horiz-adv-x="586" d="M586 261Q598 215 596 169T575 85T524 24T441 0Q405 0 380 11T340 40T317 80T307 124Q299 101 285 79T249 40T202 11T146 0Q105 0 74 16T24 59T-4 124T-8 206Q0 309 46 352T174 389Q201 387 217 380T240
358T243 319T229 259Q220 230 224 213T239 193T262 206T279 257Q290 329 325 361T429 389Q484 384 502 352T510 254Q506 228 513 215T533 201T560 215T586 261Z" />
<glyph unicode="v" glyph-name="v" horiz-adv-x="527" d="M474 214Q465 162 442 122T386 55T312 14T224 0Q178 0 137 18T64 67T15 141T-2 233Q0 318 35 357T148 389Q174 387 190 380T213 358T219 319T210 259Q204 230 209 213T225 193T245 206T257 257Q262 329
293 361T388 389Q414 387 434 377T466 345T480 292T474 214Z" />
<glyph unicode="w" glyph-name="w" horiz-adv-x="742" d="M609 389Q635 387 654 377T686 345T700 292T695 214Q686 162 663 122T606 55T532 14T444 0Q396 0 363 23T312 81Q290 45 256 23T175 0Q129 0 95 18T39 67T7 141T-2 233Q0 318 35 357T148 389Q174 387 190
380T213 358T219 319T210 259Q204 230 209 213T225 193T245 206T257 257Q262 329 286 358T364 388Q416 388 431 360T430 259Q424 230 429 213T445 193T465 206T477 257Q482 329 513 361T609 389Z" />
<glyph unicode="x" glyph-name="x" horiz-adv-x="485" d="M8 100Q11 135 35 159T98 199Q50 209 21 233T-6 304Q-5 323 2 341T25 372T63 390T122 389Q173 379 193 353T201 267Q197 249 203 238T219 225T238 233T249 266Q251 302 257 325T277 363T310 383T362 389Q415
387 434 364T444 292Q437 260 420 240T379 206Q404 196 418 174T439 111Q443 86 438 65T417 28T376 6T311 1Q285 3 269 9T245 28T238 65T247 127Q251 145 245 156T229 169T210 162T201 129Q201 88 196 63T179 23T148 5T101 0Q48 1 26 25T8 100Z" />
<glyph unicode="y" glyph-name="y" horiz-adv-x="550" d="M414 389Q447 389 468 380T501 345T513 272T509 147Q502 72 485 20T437 -66T361 -118T253 -143Q199 -149 154 -144T71 -122Q41 -108 25 -87T2 -42T-2 3T10 39T33 56T64 46Q78 34 98 24T141 8T188 2T235
10Q282 27 300 56T301 114Q288 90 258 68T182 41Q141 37 107 50T49 89T12 151T-2 230Q-2 307 43 351T170 389Q197 387 213 380T236 358T239 319T225 259Q216 230 220 213T235 193T257 206T275 257Q286 326 317 357T414 389Z" />
<glyph unicode="z" glyph-name="z" horiz-adv-x="451" d="M451 261Q463 215 465 169T455 85T414 24T336 0Q310 0 290 7T251 24T217 41T182 53T144 50T99 24Q78 7 60 6T29 13T7 36T-2 67Q-4 106 19 137T80 191T162 229T245 255Q239 264 226 268T183 258Q119 229
82 222T27 222T3 248T-1 287Q0 320 6 340T34 371T96 387T206 391Q275 391 318 386T385 369T414 337T413 287Q408 269 395 261T356 248Q337 242 312 234T259 217T205 197T158 176T127 156T120 140Q123 134 133 138T158 152T192 173T235 189T284 193T338 173Q377
149 403 174T451 261Z" />
<glyph unicode="{" glyph-name="braceleft" horiz-adv-x="454" d="M418 504Q377 483 360 457T336 402T328 346T317 292T286 247T215 215Q261 212 285 196T320 156T334 101T345 40T367 -21T418 -75Q440 -90 442 -102T432 -121T398 -130T347 -127T289 -108T232 -73Q197
-44 181 -16T159 37T152 85T147 123T130 150T89 163Q64 165 52 181T39 216T51 251T89 273Q114 278 126 290T145 319T155 359T167 405T190 455T234 504Q263 528 294 540T352 556T401 557T434 545T442 526T418 504Z" />
<glyph unicode="|" glyph-name="bar" horiz-adv-x="347" d="M257 5Q257 -31 239 -55T185 -83Q140 -88 113 -65T86 5V550Q86 595 113 618T185 637Q220 633 238 610T257 550V5Z" />
<glyph unicode="}" glyph-name="braceright" horiz-adv-x="441" d="M39 504Q18 515 15 526T23 545T55 556T104 557T163 541T223 504Q252 480 267 455T290 406T301 359T311 320T330 290T368 273Q393 268 405 252T418 216T406 181T368 163Q339 160 327 150T311 124T306
85T299 38T276 -16T225 -73Q198 -95 168 -108T110 -126T60 -131T25 -122T15 -102T39 -75Q73 -51 89 -21T112 40T122 101T137 155T171 196T242 215Q194 226 172 246T140 292T130 345T122 402T98 456T39 504Z" />
<glyph unicode="~" glyph-name="asciitilde" horiz-adv-x="398" d="M56 246Q84 288 106 300T145 310T176 292T201 266T223 250T243 263Q258 288 280 287T321 271T348 230T345 182Q319 134 299 118T261 104T230 119T203 144T177 158T150 141Q132 117 109 120T68
143T45 191T56 246Z" />
</font>
</defs>
</svg>
