<?xml version="1.0" standalone="no"?>
<!DOCTYPE svg PUBLIC "-//W3C//DTD SVG 20010904//EN"
 "http://www.w3.org/TR/2001/REC-SVG-20010904/DTD/svg10.dtd">
<svg version="1.0" xmlns="http://www.w3.org/2000/svg"
 width="600.000000pt" height="600.000000pt" viewBox="0 0 600.000000 600.000000"
 preserveAspectRatio="xMidYMid meet">
<metadata>
Created by potrace 1.11, written by Peter Selinger 2001-2013
</metadata>
<g transform="translate(0.000000,600.000000) scale(0.100000,-0.100000)"
fill="#000000" stroke="none">
<path d="M0 3000 l0 -3000 3000 0 3000 0 0 3000 0 3000 -3000 0 -3000 0 0
-3000z m1904 2109 c21 -6 56 -27 78 -48 54 -50 69 -109 57 -222 -9 -82 -20
-129 -93 -391 -45 -163 -53 -232 -33 -280 8 -20 24 -39 36 -43 33 -10 79 21
110 76 26 46 29 48 35 27 14 -46 19 -214 8 -264 -22 -100 -52 -163 -108 -223
-78 -84 -131 -106 -259 -106 -84 1 -108 5 -147 24 -67 33 -122 90 -161 167
l-34 67 -6 -41 c-13 -79 -114 -178 -209 -207 -97 -28 -230 -12 -303 38 -131
89 -190 202 -189 362 0 293 181 517 416 516 81 0 134 -13 180 -45 l35 -24 7
96 c22 315 142 493 356 531 62 11 166 6 224 -10z m842 -1408 c28 -12 67 -39
87 -59 100 -103 96 -229 -23 -653 -76 -268 -94 -364 -79 -427 13 -60 34 -82
75 -82 42 0 82 34 118 100 l29 53 -2 221 c-2 237 10 354 49 481 84 273 269
406 545 392 118 -5 183 -29 238 -85 100 -103 96 -229 -23 -653 -76 -268 -94
-364 -79 -427 13 -59 34 -82 74 -82 58 0 112 61 141 162 23 79 69 156 133 221
112 116 249 167 450 167 66 0 143 -7 178 -15 324 -76 490 -379 407 -743 -57
-253 -285 -412 -591 -412 -185 1 -331 56 -444 169 -37 38 -76 88 -90 118 -24
52 -39 67 -39 38 0 -32 -64 -140 -112 -191 -62 -66 -118 -99 -200 -120 -84
-22 -211 -14 -293 17 -123 46 -224 189 -278 392 -22 86 -37 103 -37 43 0 -49
-30 -157 -62 -220 -35 -70 -113 -155 -174 -191 -104 -61 -275 -71 -399 -24
-119 45 -215 175 -270 366 -29 99 -35 110 -35 64 0 -98 -60 -238 -138 -322
-89 -96 -188 -139 -322 -139 -258 0 -428 138 -476 385 -18 98 -21 279 -4 360
23 111 84 205 164 250 16 9 14 14 -23 52 -58 62 -82 122 -88 224 -13 212 88
341 293 371 151 22 302 -32 367 -132 46 -68 60 -131 55 -234 -4 -81 -9 -101
-38 -155 -31 -57 -66 -97 -108 -120 -15 -8 -14 -12 9 -30 47 -36 59 -78 59
-199 0 -95 3 -113 21 -136 44 -56 127 -18 174 80 17 35 18 63 16 269 -2 247 9
360 49 490 64 205 188 335 366 380 88 22 263 15 330 -14z m2219 -2061 c118
-51 175 -159 175 -338 0 -43 5 -58 24 -77 16 -16 31 -23 43 -18 30 10 70 52
89 94 15 34 19 37 27 23 15 -27 21 -223 8 -285 -27 -130 -107 -240 -210 -288
-50 -23 -68 -26 -171 -26 -103 0 -121 3 -170 26 -113 54 -151 119 -153 268 -2
106 -14 134 -51 129 -12 -2 -29 -18 -39 -38 -16 -30 -17 -50 -12 -140 8 -132
-3 -185 -46 -224 -31 -28 -35 -28 -113 -24 -106 7 -171 35 -231 100 -94 100
-140 251 -140 463 0 176 15 226 89 300 56 56 103 75 183 75 119 0 206 -56 219
-141 l7 -40 55 55 c120 120 286 163 417 106z"/>
<path d="M1248 4270 c-28 -29 -30 -35 -26 -87 4 -46 10 -61 32 -80 15 -13 36
-23 46 -23 10 0 31 10 46 23 22 19 28 34 32 80 4 52 2 58 -26 87 -17 16 -40
30 -52 30 -12 0 -35 -14 -52 -30z"/>
<path d="M4419 2672 c-31 -27 -33 -35 -37 -98 -3 -83 9 -112 60 -137 33 -16
40 -17 73 -3 59 25 84 121 52 199 -18 41 -37 57 -80 64 -28 4 -40 0 -68 -25z"/>
</g>
</svg>
