<?xml version="1.0" standalone="no"?>
<!DOCTYPE svg PUBLIC "-//W3C//DTD SVG 20010904//EN"
 "http://www.w3.org/TR/2001/REC-SVG-20010904/DTD/svg10.dtd">
<svg version="1.0" xmlns="http://www.w3.org/2000/svg"
 width="600.000000pt" height="600.000000pt" viewBox="0 0 600.000000 600.000000"
 preserveAspectRatio="xMidYMid meet">
<metadata>
Created by potrace 1.11, written by Peter Selinger 2001-2013
</metadata>
<g transform="translate(0.000000,600.000000) scale(0.100000,-0.100000)"
fill="#000000" stroke="none">
<path d="M0 3000 l0 -3000 3000 0 3000 0 0 3000 0 3000 -3000 0 -3000 0 0
-3000z m1937 2749 c65 -25 126 -76 156 -133 19 -35 22 -57 22 -156 0 -135 -12
-198 -95 -489 -90 -317 -106 -404 -89 -478 29 -134 144 -120 217 27 18 35 32
54 35 46 17 -43 29 -191 24 -285 -10 -188 -59 -313 -167 -422 -98 -99 -194
-138 -340 -139 -198 0 -337 88 -429 272 l-39 79 -16 -53 c-34 -113 -116 -200
-245 -261 -52 -24 -80 -31 -155 -34 -165 -9 -295 39 -404 149 -142 141 -193
353 -143 593 54 262 205 452 410 516 132 41 306 21 400 -46 19 -13 37 -23 39
-20 2 2 8 57 13 122 21 286 93 479 222 599 84 78 160 113 292 135 80 13 228 1
292 -22z m1141 -1860 c44 -15 75 -33 106 -65 109 -109 104 -270 -23 -718 -74
-259 -91 -338 -91 -425 0 -54 5 -75 23 -102 51 -76 147 -33 199 88 23 55 24
64 18 198 -13 276 16 529 76 682 34 86 56 125 112 191 59 71 130 117 227 148
67 22 100 27 200 27 154 2 232 -22 299 -89 109 -109 104 -270 -23 -718 -33
-116 -67 -244 -76 -284 -35 -170 -11 -274 67 -280 29 -2 43 3 73 29 41 37 55
61 101 177 18 45 47 105 64 132 69 108 211 207 350 246 81 22 264 29 357 14
264 -42 450 -208 508 -451 19 -84 19 -267 0 -361 -64 -303 -328 -482 -690
-465 -259 12 -460 128 -556 322 l-32 66 -18 -52 c-56 -158 -187 -286 -334
-324 -115 -29 -268 -15 -367 36 -122 62 -225 236 -282 474 l-14 60 -1 -43 c-4
-185 -117 -392 -262 -479 -133 -79 -339 -84 -481 -12 -106 54 -208 209 -262
399 -18 65 -25 79 -29 60 -3 -14 -11 -54 -18 -89 -38 -197 -183 -359 -362
-407 -110 -29 -295 -11 -394 39 -163 83 -249 235 -274 484 -25 257 32 449 160
536 l49 32 -46 50 c-74 82 -108 189 -99 309 10 129 57 218 150 279 71 48 144
67 248 67 260 0 414 -159 396 -410 -8 -114 -38 -183 -112 -256 l-61 -60 23
-17 c45 -35 56 -73 62 -218 7 -154 17 -179 75 -179 55 0 110 50 145 132 16 38
17 60 11 198 -30 656 136 995 515 1050 86 13 220 3 293 -21z m2077 -2243 c73
-19 125 -49 171 -98 86 -89 125 -206 122 -369 -1 -79 16 -131 47 -143 63 -24
122 19 172 125 l30 63 14 -70 c20 -97 17 -302 -4 -384 -55 -210 -197 -361
-375 -399 -72 -15 -203 -14 -283 3 -137 29 -239 107 -280 214 -18 47 -22 80
-23 182 -1 77 -7 134 -14 147 -28 51 -79 47 -109 -9 -16 -29 -18 -59 -18 -228
0 -189 -1 -196 -25 -240 -32 -58 -75 -80 -157 -80 -78 0 -191 23 -245 51 -130
67 -230 228 -279 454 -26 116 -36 351 -20 437 43 224 155 336 349 346 123 7
202 -17 264 -79 39 -39 49 -57 59 -105 l12 -59 81 80 c122 121 239 172 391
174 39 0 93 -5 120 -13z"/>
<path d="M1042 4624 c-36 -25 -52 -68 -52 -137 0 -82 27 -127 83 -141 90 -23
151 65 133 189 -13 86 -100 134 -164 89z"/>
<path d="M4928 2751 c-33 -29 -33 -30 -33 -121 0 -91 0 -92 33 -121 37 -33 79
-38 122 -12 49 29 71 114 50 192 -24 91 -107 120 -172 62z"/>
</g>
</svg>
